<?xml version="1.0"?>
<svg width="190" height="59" xmlns="http://www.w3.org/2000/svg" xmlns:svg="http://www.w3.org/2000/svg">
 <defs>
  <radialGradient cx="0" cy="0" gradientTransform="matrix(4.025819778442383,0,0,4.025819778442383,28.588401794433594,22.018600463867188)" gradientUnits="userSpaceOnUse" id="paint0_radial_1_42" r="1">
   <stop stop-color="#000971" stop-opacity="0.5"/>
   <stop offset="1" stop-color="#0000C9"/>
  </radialGradient>
  <radialGradient cx="0" cy="0" gradientTransform="matrix(3.4707205295562744,0.07116377353668213,-0.07116357237100601,3.470710515975952,25.10140037536621,36.27980041503906)" gradientUnits="userSpaceOnUse" id="paint1_radial_1_42" r="1">
   <stop stop-color="#000971" stop-opacity="0.5"/>
   <stop offset="1" stop-color="#0000C9"/>
  </radialGradient>
  <radialGradient cx="0" cy="0" gradientTransform="matrix(-0.21296943724155426,1.789149284362793,-1.789149284362793,-0.21296943724155426,34.944400787353516,25.81670379638672)" gradientUnits="userSpaceOnUse" id="paint2_radial_1_42" r="1">
   <stop stop-color="#000971" stop-opacity="0.5"/>
   <stop offset="1" stop-color="#0000C9"/>
  </radialGradient>
  <radialGradient cx="0" cy="0" gradientTransform="matrix(2.3244900703430176,0,0,2.3244900703430176,24.47369956970215,27.561996459960938)" gradientUnits="userSpaceOnUse" id="paint3_radial_1_42" r="1">
   <stop stop-color="#000971" stop-opacity="0.5"/>
   <stop offset="1" stop-color="#0000C9"/>
  </radialGradient>
  <radialGradient cx="0" cy="0" gradientTransform="matrix(3.5114901065826416,0,0,3.5114901065826416,33.76639938354492,39.390899658203125)" gradientUnits="userSpaceOnUse" id="paint4_radial_1_42" r="1">
   <stop stop-color="#000971" stop-opacity="0.5"/>
   <stop offset="1" stop-color="#0000C9"/>
  </radialGradient>
  <radialGradient cx="0" cy="0" gradientTransform="matrix(4.009130001068115,0,0,4.009130001068115,38.94929885864258,28.483001708984375)" gradientUnits="userSpaceOnUse" id="paint5_radial_1_42" r="1">
   <stop stop-color="#000971" stop-opacity="0.5"/>
   <stop offset="1" stop-color="#0000C9"/>
  </radialGradient>
  <radialGradient cx="0" cy="0" gradientTransform="matrix(1.5862599611282349,0,0,1.5862699747085571,36.53689956665039,23.199600219726562)" gradientUnits="userSpaceOnUse" id="paint6_radial_1_42" r="1">
   <stop stop-color="#000971" stop-opacity="0.5"/>
   <stop offset="1" stop-color="#000071"/>
  </radialGradient>
  <radialGradient cx="0" cy="0" gradientTransform="matrix(1.7959400415420532,0,0,1.7959400415420532,20.868499755859375,25.476699829101562)" gradientUnits="userSpaceOnUse" id="paint7_radial_1_42" r="1">
   <stop stop-color="#000971" stop-opacity="0.5"/>
   <stop offset="1" stop-color="#000071"/>
  </radialGradient>
  <radialGradient cx="0" cy="0" gradientTransform="matrix(4.920839786529541,0,0,4.920839786529541,31.31549835205078,30.897903442382812)" gradientUnits="userSpaceOnUse" id="paint8_radial_1_42" r="1">
   <stop stop-color="#000971" stop-opacity="0.5"/>
   <stop offset="1" stop-color="#000071"/>
  </radialGradient>
  <radialGradient cx="0" cy="0" gradientTransform="matrix(6.157450199127197,0,0,6.157450199127197,48.96900177001953,25.401100158691406)" gradientUnits="userSpaceOnUse" id="paint9_radial_1_42" r="1">
   <stop stop-color="#000971" stop-opacity="0.5"/>
   <stop offset="1" stop-color="#000071"/>
  </radialGradient>
  <radialGradient cx="0" cy="0" gradientTransform="matrix(5.387819766998291,0,0,5.387829780578613,25.746000289916992,13.422698974609375)" gradientUnits="userSpaceOnUse" id="paint10_radial_1_42" r="1">
   <stop stop-color="#000971" stop-opacity="0.5"/>
   <stop offset="1" stop-color="#000071"/>
  </radialGradient>
  <radialGradient cx="0" cy="0" gradientTransform="matrix(5.4903998374938965,0,0,5.4903998374938965,36.26689910888672,48.47599792480469)" gradientUnits="userSpaceOnUse" id="paint11_radial_1_42" r="1">
   <stop stop-color="#000971" stop-opacity="0.5"/>
   <stop offset="1" stop-color="#000071"/>
  </radialGradient>
  <radialGradient cx="0" cy="0" gradientTransform="matrix(3.627110004425049,0,0,3.627110004425049,19.915199279785156,40.84700012207031)" gradientUnits="userSpaceOnUse" id="paint12_radial_1_42" r="1">
   <stop stop-color="#000971" stop-opacity="0.5"/>
   <stop offset="1" stop-color="#000071"/>
  </radialGradient>
  <radialGradient cx="0" cy="0" gradientTransform="matrix(47.24760055541992,0,0,47.24760055541992,14.500299453735352,24.474899291992188)" gradientUnits="userSpaceOnUse" id="paint13_radial_1_42" r="1">
   <stop stop-color="#000971" stop-opacity="0.5"/>
   <stop offset="1" stop-color="#0000C9"/>
  </radialGradient>
  <radialGradient cx="0" cy="0" gradientTransform="matrix(17.865100860595703,0,0,17.865100860595703,31.232101440429688,30.976303100585938)" gradientUnits="userSpaceOnUse" id="paint14_radial_1_42" r="1">
   <stop stop-color="#000971" stop-opacity="0.5"/>
   <stop offset="1" stop-color="#0000C9"/>
  </radialGradient>
  <radialGradient cx="0" cy="0" gradientTransform="matrix(7.398399829864502,0,0,7.766540050506592,69.96369934082031,30.44660186767578)" gradientUnits="userSpaceOnUse" id="paint35_radial_1_42" r="1">
   <stop stop-color="#000971" stop-opacity="0.5"/>
   <stop offset="1" stop-color="#000071"/>
  </radialGradient>
  <radialGradient cx="0" cy="0" gradientTransform="matrix(7.866799831390381,0,0,8.25823974609375,86.70259857177734,30.48560333251953)" gradientUnits="userSpaceOnUse" id="paint36_radial_1_42" r="1">
   <stop stop-color="#000971" stop-opacity="0.5"/>
   <stop offset="1" stop-color="#000071"/>
  </radialGradient>
  <radialGradient cx="0" cy="0" gradientTransform="matrix(8.632430076599121,0,0,9.061960220336914,105.6500015258789,30.485496520996094)" gradientUnits="userSpaceOnUse" id="paint37_radial_1_42" r="1">
   <stop stop-color="#000971" stop-opacity="0.5"/>
   <stop offset="1" stop-color="#000071"/>
  </radialGradient>
  <radialGradient cx="0" cy="0" gradientTransform="matrix(7.494160175323486,0,0,7.8670501708984375,123.87600708007812,30.485702514648438)" gradientUnits="userSpaceOnUse" id="paint38_radial_1_42" r="1">
   <stop stop-color="#000971" stop-opacity="0.5"/>
   <stop offset="1" stop-color="#000071"/>
  </radialGradient>
  <radialGradient cx="0" cy="0" gradientTransform="matrix(7.866799831390381,0,0,8.25823974609375,140.73500061035156,30.48560333251953)" gradientUnits="userSpaceOnUse" id="paint39_radial_1_42" r="1">
   <stop stop-color="#000971" stop-opacity="0.5"/>
   <stop offset="1" stop-color="#000071"/>
  </radialGradient>
  <radialGradient cx="0" cy="0" gradientTransform="matrix(7.860330104827881,0,0,8.251460075378418,158.18099975585938,30.446701049804688)" gradientUnits="userSpaceOnUse" id="paint40_radial_1_42" r="1">
   <stop stop-color="#000971" stop-opacity="0.5"/>
   <stop offset="1" stop-color="#000071"/>
  </radialGradient>
  <radialGradient cx="0" cy="0" gradientTransform="matrix(7.279220104217529,0,0,7.641419887542725,173.72900390625,30.435203552246094)" gradientUnits="userSpaceOnUse" id="paint41_radial_1_42" r="1">
   <stop stop-color="#000971" stop-opacity="0.5"/>
   <stop offset="1" stop-color="#000071"/>
  </radialGradient>
 </defs>
 <g class="layer">
  <title>Layer 1</title>
  <path d="m26.4,17.16l3.15,10.02c0,0 0.2,0.21 0.77,0c0.56,-0.2 0.44,-0.4 0.44,-0.4l-2.7,-10.02l-1.66,0.4z" fill="url(#paint0_radial_1_42)" id="svg_1"/>
  <path d="m21.39,38.9l7.11,-5.74c0,0 0.16,-0.16 0.24,0c0.08,0.16 0,0.33 0,0.33l-6.62,6.06l-0.73,-0.65z" fill="url(#paint1_radial_1_42)" id="svg_2"/>
  <path d="m33.88,27.91l2.5,-3.84c0,0 0.08,-0.16 -0.04,-0.28c-0.12,-0.08 -0.24,0 -0.24,0l-2.67,3.8l0.45,0.32z" fill="url(#paint2_radial_1_42)" id="svg_3"/>
  <path d="m27.33,28.64l-5.33,-2.63c0,0 -0.24,-0.12 -0.37,0.08c-0.12,0.16 0.05,0.33 0.05,0.33l5.29,2.82l0.36,-0.6z" fill="url(#paint3_radial_1_42)" id="svg_4"/>
  <path d="m35.57,43.22c0,0 -2.83,-8.04 -2.95,-8.24c-0.12,-0.24 -0.36,-0.16 -0.36,-0.16c0,0 -0.36,0.04 -0.32,0.36l1.98,8.89l0.52,-0.36l1.13,-0.49z" fill="url(#paint4_radial_1_42)" id="svg_5"/>
  <path d="m43.98,26.29l-9.86,3.44c0,0 -0.53,0.28 -0.41,0.64c0.12,0.37 0.53,0.25 0.53,0.25l9.94,-2.55l-0.2,-1.78z" fill="url(#paint5_radial_1_42)" id="svg_6"/>
  <path d="m38.12,23.18c0,0.89 -0.73,1.58 -1.58,1.58c-0.89,0 -1.57,-0.73 -1.57,-1.58c0,-0.88 0.72,-1.57 1.57,-1.57c0.89,0 1.58,0.73 1.58,1.57z" fill="url(#paint6_radial_1_42)" id="svg_7"/>
  <path d="m22.68,25.49c0,1.01 -0.8,1.77 -1.77,1.77c-1.01,0 -1.78,-0.8 -1.78,-1.77c0,-1.01 0.81,-1.78 1.78,-1.78c0.97,-0.04 1.77,0.77 1.77,1.78z" fill="url(#paint7_radial_1_42)" id="svg_8"/>
  <path d="m31.33,35.83c2.72,0 4.93,-2.21 4.93,-4.93c0,-2.72 -2.21,-4.93 -4.93,-4.93c-2.72,0 -4.93,2.21 -4.93,4.93c0,2.72 2.21,4.93 4.93,4.93z" fill="url(#paint8_radial_1_42)" id="svg_9"/>
  <path d="m48.98,31.55c3.4,0 6.15,-2.75 6.15,-6.14c0,-3.4 -2.75,-6.15 -6.15,-6.15c-3.39,0 -6.14,2.75 -6.14,6.15c0,3.39 2.75,6.14 6.14,6.14z" fill="url(#paint9_radial_1_42)" id="svg_10"/>
  <path d="m25.75,18.78c2.97,0 5.38,-2.41 5.38,-5.37c0,-2.97 -2.41,-5.38 -5.38,-5.38c-2.96,0 -5.37,2.41 -5.37,5.38c0,2.96 2.41,5.37 5.37,5.37z" fill="url(#paint10_radial_1_42)" id="svg_11"/>
  <path d="m41.75,48.47c0,3.03 -2.46,5.5 -5.49,5.5c-3.03,0 -5.49,-2.47 -5.49,-5.5c0,-3.03 2.46,-5.49 5.49,-5.49c3.03,0 5.49,2.46 5.49,5.49z" fill="url(#paint11_radial_1_42)" id="svg_12"/>
  <path d="m19.9,44.47c2,0 3.63,-1.62 3.63,-3.63c0,-2.01 -1.63,-3.64 -3.63,-3.64c-2.01,0 -3.64,1.63 -3.64,3.64c0,2.01 1.63,3.63 3.64,3.63z" fill="url(#paint12_radial_1_42)" id="svg_13"/>
  <path d="m17.92,43.34c0,0 -0.97,0.85 -3.88,4.89c-2.91,4.08 13.09,-4.4 22.54,-15.67c9.46,-11.28 15.6,-20.04 14.99,-21.54c-0.57,-1.49 -12.77,8.81 -12.77,8.81c0,0 7.96,-8.73 14.91,-11.31c6.95,-2.59 -6.79,17.86 -21.37,31.75c-13.53,12.89 -22.99,14.51 -20.36,9.98c1.33,-2.22 3.47,-4.4 5.94,-6.91z" fill="url(#paint13_radial_1_42)" id="svg_14" opacity="0.3"/>
  <path d="m16.91,21.28c11.23,4.77 21.93,10.79 31.83,17.94c0.93,0.65 1.86,1.34 2.59,2.22c0.36,0.45 0.68,0.97 0.6,1.54c-0.08,0.57 -0.68,0.73 -1.25,0.61c0.77,0.2 1.62,0.6 2.1,-0.04c0.24,-0.33 0.24,-0.73 0.2,-1.1c-0.24,-1.33 -1.41,-2.18 -2.5,-3.03c-9.94,-7.59 -20.12,-13 -31.03,-17.97c-1.57,-0.73 -9.17,-3.8 -9.73,-3.28c-0.41,0.33 -0.08,0.97 0.24,1.38c1.94,2.3 4.44,3.92 7.39,5.41c-1.94,-1.41 -4.64,-2.58 -5.45,-5.05c0.04,-0.73 3.47,0.69 5.01,1.37z" fill="url(#paint14_radial_1_42)" id="svg_15" opacity="0.3"/>
  <path d="m74.48,23.51l0.68,-1.66l0.73,0l0.24,6.59l-0.93,0c-0.28,-1.9 -0.8,-3.32 -1.61,-4.25c-0.81,-0.93 -1.7,-1.37 -2.71,-1.37c-1.13,0 -2.02,0.61 -2.79,1.78c-0.72,1.17 -1.09,3.07 -1.09,5.61c0,2.71 0.41,4.73 1.22,6.02c0.64,1.05 1.57,1.54 2.86,1.54c1.26,0 2.31,-0.53 3.15,-1.54c0.61,-0.76 1.06,-1.86 1.3,-3.31l0.89,0c-0.21,1.86 -0.85,3.35 -1.94,4.44c-1.09,1.09 -2.39,1.66 -3.96,1.66c-2.02,0 -3.72,-0.81 -5.09,-2.38c-1.38,-1.58 -2.06,-3.64 -2.06,-6.1c0,-2.75 0.76,-4.97 2.34,-6.63c1.33,-1.41 2.91,-2.1 4.73,-2.1c0.72,0 1.37,0.12 1.98,0.36c0.72,0.29 1.37,0.73 2.06,1.34z" fill="url(#paint35_radial_1_42)" id="svg_36"/>
  <path d="m83.81,34.46l0.24,-0.69l5.54,-9.05l0,-0.41c0,-0.44 -0.08,-0.72 -0.25,-0.84c-0.16,-0.12 -0.4,-0.21 -0.72,-0.21l-0.89,0l0,-1.05l6.87,0l0,1.05l-0.89,0c-0.65,0 -0.97,0.33 -0.97,0.93l0,12.45c0,0.68 0.28,1.05 0.85,1.05l1.01,0l0,1.05l-6.87,0l0,-1.05l1.09,0c0.52,0 0.77,-0.33 0.77,-0.93l0,-10.06l-0.21,0.6l-5.57,9.01l0,0.49c0,0.6 0.24,0.93 0.69,0.93l1.21,0l0,1.05l-6.87,0l0,-1.05l1.13,0c0.49,0 0.73,-0.33 0.73,-0.93l0,-12.4c0,-0.69 -0.32,-1.05 -0.97,-1.05l-0.89,0l0,-1.06l6.87,0l0,1.06l-1.01,0c-0.57,0 -0.85,0.24 -0.85,0.76l0,10.35l-0.04,0z" fill="url(#paint36_radial_1_42)" id="svg_37"/>
  <path d="m96.29,22.25l5.94,0l3.35,11.15l3.36,-11.15l6.1,0l0,1.05l-1.34,0c-0.32,0 -0.56,0.09 -0.68,0.21c-0.12,0.12 -0.2,0.36 -0.2,0.68l0,12.57c0,0.32 0.08,0.52 0.2,0.64c0.2,0.17 0.48,0.29 0.81,0.29l1.17,0l0,1.05l-7.52,0l0,-1.05l1.42,0c0.24,0 0.44,-0.08 0.6,-0.25c0.13,-0.16 0.21,-0.4 0.21,-0.68l0,-13.5l-4.69,15.44l-0.89,0l-4.69,-15.56l0,12.04c0,0.69 0.21,1.25 0.61,1.7c0.4,0.44 0.97,0.73 1.7,0.81l0,1.05l-5.46,0l0,-1.05c0.69,-0.08 1.21,-0.33 1.62,-0.81c0.36,-0.49 0.56,-1.09 0.56,-1.82l0,-10.66c0,-0.45 -0.08,-0.77 -0.2,-0.89c-0.12,-0.16 -0.4,-0.25 -0.81,-0.25l-1.17,0l0,-1.01z" fill="url(#paint37_radial_1_42)" id="svg_38"/>
  <path d="m122.03,29.53l1.66,0c2.66,0 4.52,0.44 5.65,1.29c1.09,0.85 1.66,1.98 1.66,3.31c0,1.66 -0.53,2.83 -1.58,3.52c-1.05,0.68 -2.46,1.05 -4.24,1.05l-8.44,0l0,-1.05l1.37,0c0.24,0 0.44,-0.08 0.57,-0.29c0.12,-0.2 0.2,-0.44 0.2,-0.72l0,-12.77c0,-0.44 -0.33,-0.65 -0.97,-0.65l-1.13,0l0,-1.05l12.88,0l0.17,5.54l-0.89,0c-0.08,-0.81 -0.25,-1.62 -0.53,-2.38c-0.28,-0.77 -0.69,-1.34 -1.13,-1.66c-0.48,-0.32 -1.17,-0.49 -2.1,-0.49l-2.18,0c-0.61,0 -0.93,0.29 -0.93,0.89l0,5.46l-0.04,0zm0,1.05l0,6.18c0,0.64 0.24,0.97 0.69,0.97l1.89,0c0.81,0 1.54,-0.24 2.11,-0.77c0.6,-0.52 0.88,-1.41 0.88,-2.67c0,-2.46 -1.13,-3.67 -3.35,-3.67l-2.22,0l0,-0.04z" fill="url(#paint38_radial_1_42)" id="svg_39"/>
  <path d="m137.87,34.46l0.24,-0.69l5.53,-9.05l0,-0.41c0,-0.44 -0.08,-0.72 -0.24,-0.84c-0.16,-0.12 -0.4,-0.21 -0.73,-0.21l-0.89,0l0,-1.05l6.87,0l0,1.05l-0.89,0c-0.64,0 -0.97,0.33 -0.97,0.93l0,12.45c0,0.68 0.29,1.05 0.85,1.05l1.01,0l0,1.05l-6.87,0l0,-1.05l1.1,0c0.52,0 0.76,-0.33 0.76,-0.93l0,-10.06l-0.2,0.6l-5.57,9.01l0,0.49c0,0.6 0.24,0.93 0.68,0.93l1.21,0l0,1.05l-6.86,0l0,-1.05l1.13,0c0.48,0 0.72,-0.33 0.72,-0.93l0,-12.4c0,-0.69 -0.32,-1.05 -0.97,-1.05l-0.88,0l0,-1.06l6.86,0l0,1.06l-1.01,0c-0.56,0 -0.84,0.24 -0.84,0.76l0,10.35l-0.04,0z" fill="url(#paint39_radial_1_42)" id="svg_40"/>
  <path d="m158.1,21.85c1.38,0 2.67,0.36 3.84,1.13c1.17,0.77 2.1,1.78 2.75,3.07c0.65,1.29 0.97,2.75 0.97,4.37c0,2.46 -0.73,4.52 -2.18,6.18c-1.46,1.65 -3.23,2.46 -5.38,2.46c-1.41,0 -2.7,-0.36 -3.83,-1.13c-1.13,-0.77 -2.02,-1.78 -2.67,-3.03c-0.65,-1.25 -0.97,-2.75 -0.97,-4.44c0,-2.51 0.73,-4.57 2.14,-6.19c1.42,-1.61 3.23,-2.42 5.33,-2.42zm0.09,1.05c-0.81,0 -1.5,0.24 -2.06,0.73c-0.57,0.48 -1.06,1.25 -1.38,2.34c-0.32,1.09 -0.52,2.59 -0.52,4.45c0,1.97 0.16,3.47 0.48,4.48c0.32,1.01 0.77,1.78 1.38,2.26c0.6,0.49 1.29,0.73 2.1,0.73c1.17,0 2.14,-0.57 2.86,-1.7c0.73,-1.13 1.05,-3.11 1.05,-5.94c0,-1.98 -0.16,-3.47 -0.44,-4.44c-0.32,-1.01 -0.77,-1.74 -1.37,-2.22c-0.61,-0.45 -1.3,-0.69 -2.1,-0.69z" fill="url(#paint40_radial_1_42)" id="svg_41"/>
  <path d="m175.88,30.13c2.71,0.61 4.04,1.98 4.04,4.04c0,1.66 -0.61,2.87 -1.82,3.68c-1.21,0.81 -2.7,1.21 -4.48,1.21c-2.02,0 -3.56,-0.52 -4.57,-1.53c-1.01,-1.01 -1.53,-2.27 -1.53,-3.76l0.81,0c0,1.13 0.4,2.1 1.17,2.91c0.76,0.8 1.81,1.25 3.19,1.25c2.58,0 3.92,-1.29 3.92,-3.84c0,-1.13 -0.33,-1.98 -0.97,-2.5c-0.65,-0.53 -1.42,-0.81 -2.3,-0.81l-1.94,0l0,-1.01l1.37,0c1.09,0 1.9,-0.28 2.38,-0.81c0.49,-0.52 0.73,-1.37 0.73,-2.5c0,-1.1 -0.24,-1.98 -0.77,-2.67c-0.52,-0.69 -1.21,-1.01 -2.06,-1.01c-0.85,0 -1.69,0.32 -2.46,0.93c-0.77,0.6 -1.46,1.98 -2.02,4.08l-0.73,0l0.2,-5.9l0.85,0l0.65,1.37c1.05,-0.93 2.38,-1.37 4.08,-1.37c1.65,0 3.03,0.36 4.08,1.13c1.05,0.77 1.53,1.86 1.53,3.27c0,1.82 -1.09,3.12 -3.35,3.84z" fill="url(#paint41_radial_1_42)" id="svg_42"/>
 </g>
</svg>