<svg width="202" height="202" viewBox="12 62 190 59" fill="none" xmlns="http://www.w3.org/2000/svg">
  <path d="M32.4006 77.164L35.5518 87.1832C35.5518 87.1832 35.7538 87.3852 36.3194 87.1832C36.885 86.9812 36.7638 86.7792 36.7638 86.7792L34.057 76.76L32.4006 77.164Z" fill="url(#paint0_radial_1_42)" />
  <path d="M27.3906 98.8994L34.501 93.1626C34.501 93.1626 34.6626 93.001 34.7434 93.1626C34.8242 93.3242 34.7434 93.4858 34.7434 93.4858L28.1178 99.5458L27.3906 98.8994Z" fill="url(#paint1_radial_1_42)" />
  <path d="M39.876 87.9106L42.3808 84.0726C42.3808 84.0726 42.4616 83.911 42.3404 83.7898C42.2192 83.709 42.098 83.7898 42.098 83.7898L39.4316 87.5874L39.876 87.9106Z" fill="url(#paint2_radial_1_42)" />
  <path d="M33.3313 88.6376L27.9985 86.0116C27.9985 86.0116 27.7561 85.8904 27.6349 86.0924C27.5137 86.254 27.6753 86.4156 27.6753 86.4156L32.9677 89.2436L33.3313 88.6376Z" fill="url(#paint3_radial_1_42)" />
  <path d="M41.5725 103.222C41.5725 103.222 38.7445 95.1824 38.6233 94.9804C38.5021 94.738 38.2597 94.8188 38.2597 94.8188C38.2597 94.8188 37.8961 94.8592 37.9365 95.1824L39.9161 104.07L40.4413 103.707L41.5725 103.222Z" fill="url(#paint4_radial_1_42)" />
  <path d="M49.9751 86.2944L40.1175 89.7284C40.1175 89.7284 39.5923 90.0112 39.7135 90.3748C39.8347 90.7384 40.2387 90.6172 40.2387 90.6172L50.1771 88.072L49.9751 86.2944Z" fill="url(#paint5_radial_1_42)" />
  <path d="M44.118 83.184C44.118 84.0728 43.3908 84.7596 42.5424 84.7596C41.6536 84.7596 40.9668 84.0324 40.9668 83.184C40.9668 82.2952 41.694 81.6084 42.5424 81.6084C43.4312 81.6084 44.118 82.3356 44.118 83.184Z" fill="url(#paint6_radial_1_42)" />
  <path d="M28.6844 85.4866C28.6844 86.4966 27.8763 87.2642 26.9067 87.2642C25.8967 87.2642 25.1292 86.4562 25.1292 85.4866C25.1292 84.4766 25.9371 83.709 26.9067 83.709C27.8763 83.6686 28.6844 84.4766 28.6844 85.4866Z" fill="url(#paint7_radial_1_42)" />
  <path d="M37.3294 95.8288C40.0515 95.8288 42.2582 93.6221 42.2582 90.9C42.2582 88.1779 40.0515 85.9712 37.3294 85.9712C34.6073 85.9712 32.4006 88.1779 32.4006 90.9C32.4006 93.6221 34.6073 95.8288 37.3294 95.8288Z" fill="url(#paint8_radial_1_42)" />
  <path d="M54.9848 91.5465C58.3763 91.5465 61.1256 88.7972 61.1256 85.4057C61.1256 82.0142 58.3763 79.2649 54.9848 79.2649C51.5933 79.2649 48.844 82.0142 48.844 85.4057C48.844 88.7972 51.5933 91.5465 54.9848 91.5465Z" fill="url(#paint9_radial_1_42)" />
  <path d="M31.7541 78.7801C34.7216 78.7801 37.1273 76.3744 37.1273 73.4069C37.1273 70.4394 34.7216 68.0337 31.7541 68.0337C28.7865 68.0337 26.3809 70.4394 26.3809 73.4069C26.3809 76.3744 28.7865 78.7801 31.7541 78.7801Z" fill="url(#paint10_radial_1_42)" />
  <path d="M47.7544 108.474C47.7544 111.504 45.29 113.968 42.26 113.968C39.23 113.968 36.7656 111.504 36.7656 108.474C36.7656 105.444 39.23 102.979 42.26 102.979C45.29 102.979 47.7544 105.444 47.7544 108.474Z" fill="url(#paint11_radial_1_42)" />
  <path d="M25.8958 104.474C27.9039 104.474 29.5318 102.846 29.5318 100.838C29.5318 98.83 27.9039 97.2021 25.8958 97.2021C23.8877 97.2021 22.2598 98.83 22.2598 100.838C22.2598 102.846 23.8877 104.474 25.8958 104.474Z" fill="url(#paint12_radial_1_42)" />
  <path opacity="0.3" d="M23.9171 103.343C23.9171 103.343 22.9475 104.192 20.0387 108.232C17.1299 112.312 33.1283 103.828 42.5819 92.5564C52.0355 81.2848 58.1763 72.518 57.5703 71.0232C57.0047 69.5284 44.8039 79.8304 44.8039 79.8304C44.8039 79.8304 52.7627 71.104 59.7115 68.5184C66.6603 65.9328 52.9243 86.3752 38.3399 100.273C24.8059 113.16 15.3523 114.776 17.9783 110.252C19.3115 108.03 21.4527 105.848 23.9171 103.343Z" fill="url(#paint13_radial_1_42)" />
  <path opacity="0.3" d="M22.9071 81.2849C34.1383 86.0521 44.8443 92.0717 54.7423 99.2225C55.6715 99.8689 56.6007 100.556 57.3279 101.445C57.6915 101.889 58.0147 102.414 57.9339 102.98C57.8531 103.545 57.2471 103.707 56.6815 103.586C57.4491 103.788 58.2975 104.192 58.7823 103.545C59.0247 103.222 59.0247 102.818 58.9843 102.455C58.7419 101.121 57.5703 100.273 56.4795 99.4245C46.5411 91.8293 36.3603 86.4157 25.4523 81.4465C23.8767 80.7193 16.2815 77.6489 15.7159 78.1741C15.3119 78.4973 15.6351 79.1437 15.9583 79.5477C17.8975 81.8505 20.4023 83.4665 23.3515 84.9613C21.4123 83.5473 18.7055 82.3757 17.8975 79.9113C17.9379 79.1841 21.3719 80.5981 22.9071 81.2849Z" fill="url(#paint14_radial_1_42)" />
  <path d="M72.1548 105.646C72.3568 105.686 72.5184 105.807 72.6396 105.888C72.7608 106.009 72.8416 106.13 72.9224 106.292C73.0032 106.454 73.0436 106.696 73.1244 107.06C73.2052 107.504 73.3264 107.746 73.4476 107.746C73.5688 107.746 73.6496 107.544 73.69 107.1H73.8516C73.8112 107.827 73.6092 108.191 73.2052 108.191C73.084 108.191 72.9628 108.15 72.8416 108.029C72.7608 107.948 72.68 107.827 72.6396 107.666C72.5992 107.504 72.5588 107.302 72.5588 106.979C72.5184 106.615 72.478 106.332 72.4376 106.211C72.3972 106.05 72.276 105.969 72.1548 105.888C72.0336 105.807 71.8316 105.767 71.5488 105.767H71.2256V107.585C71.2256 107.666 71.2256 107.746 71.266 107.787C71.3064 107.827 71.3468 107.868 71.468 107.868H71.7912V108.11H70.1348V107.868H70.4176C70.5792 107.868 70.66 107.787 70.66 107.625V103.828C70.66 103.666 70.5792 103.585 70.4176 103.585H70.1348V103.343H71.7912V103.585H71.4276C71.3872 103.585 71.3468 103.585 71.3064 103.626C71.266 103.666 71.2256 103.706 71.2256 103.828V105.565H71.7508C71.9528 105.565 72.1144 105.524 72.1952 105.444C72.276 105.363 72.3164 105.242 72.3568 105.08C72.3972 104.918 72.3972 104.716 72.4376 104.474C72.478 104.191 72.5184 103.949 72.5588 103.828C72.5992 103.666 72.68 103.545 72.7608 103.464C72.882 103.383 73.0032 103.302 73.1648 103.302C73.3264 103.302 73.488 103.343 73.5688 103.464C73.69 103.585 73.7304 103.706 73.7304 103.908C73.7304 104.03 73.69 104.151 73.6496 104.232C73.5688 104.312 73.488 104.353 73.4072 104.353C73.3264 104.353 73.2456 104.312 73.2052 104.232C73.1244 104.151 73.1244 104.07 73.1244 103.989C73.1244 103.949 73.1244 103.868 73.1648 103.828C73.1648 103.787 73.2052 103.747 73.2052 103.747C73.2052 103.706 73.2052 103.666 73.1648 103.626C73.1244 103.585 73.084 103.585 73.0436 103.585C72.9628 103.585 72.9224 103.626 72.8416 103.747C72.7608 103.868 72.7204 104.191 72.68 104.676C72.6396 105.08 72.5992 105.322 72.5588 105.403C72.4376 105.524 72.3164 105.605 72.1548 105.646Z" fill="url(#paint15_radial_1_42)" />
  <path d="M76.317 103.383H79.6298V103.625H79.3874C79.2662 103.625 79.1854 103.666 79.145 103.706C79.1046 103.746 79.1046 103.827 79.1046 103.989V107.584C79.1046 107.746 79.1046 107.827 79.145 107.867C79.1854 107.908 79.2662 107.948 79.347 107.948H79.6298V108.19H77.933V107.948H78.2562C78.3774 107.948 78.4582 107.948 78.4986 107.908C78.539 107.867 78.539 107.786 78.539 107.625V103.706H77.7714C77.5694 103.706 77.4482 103.746 77.3674 103.827C77.2866 103.908 77.2462 104.07 77.2462 104.312L77.2058 105.16C77.125 106.494 77.0038 107.342 76.8018 107.706C76.6402 108.069 76.3978 108.231 76.115 108.231C75.9534 108.231 75.8726 108.19 75.7514 108.069C75.6706 107.948 75.5898 107.827 75.5898 107.625C75.5898 107.463 75.6302 107.342 75.6706 107.261C75.7514 107.18 75.8322 107.14 75.9534 107.14C76.115 107.14 76.2362 107.221 76.2766 107.423C76.317 107.504 76.317 107.544 76.317 107.584C76.317 107.625 76.3574 107.625 76.3978 107.625C76.5594 107.625 76.6806 107.342 76.7614 106.736C76.8422 106.13 76.8826 105.524 76.8826 104.918C76.8826 104.352 76.8422 103.989 76.8018 103.868C76.7614 103.746 76.6402 103.666 76.4382 103.666H76.2362V103.383H76.317Z" fill="url(#paint16_radial_1_42)" />
  <path d="M83.346 107.382L82.0532 104.029C81.9724 103.787 81.8108 103.625 81.6492 103.625H81.5684V103.383H83.1844V103.625H82.9824C82.8208 103.625 82.74 103.625 82.6996 103.666C82.6592 103.706 82.6188 103.746 82.6188 103.827C82.6188 103.868 82.6592 103.989 82.6996 104.11L83.6288 106.655L84.356 104.554C84.4368 104.352 84.4772 104.191 84.4772 104.07C84.4772 103.908 84.4368 103.827 84.356 103.746C84.2752 103.666 84.154 103.625 84.0732 103.625H83.8712V103.383H85.366V103.625C85.0832 103.666 84.8812 103.868 84.76 104.231L83.5884 107.342C83.4672 107.665 83.346 107.867 83.2248 107.988C83.1036 108.11 82.942 108.19 82.6996 108.19C82.4976 108.19 82.2956 108.11 82.1744 107.988C82.0128 107.827 81.9724 107.665 81.9724 107.423C81.9724 107.302 82.0128 107.18 82.0532 107.1C82.134 107.019 82.1744 106.978 82.2956 106.978C82.3764 106.978 82.4572 107.019 82.538 107.1C82.5784 107.18 82.6188 107.261 82.6188 107.342C82.6188 107.382 82.6188 107.463 82.5784 107.584C82.5784 107.625 82.5784 107.665 82.5784 107.665C82.5784 107.746 82.6188 107.786 82.6592 107.827C82.6996 107.867 82.7804 107.908 82.8612 107.908C83.0228 107.948 83.1844 107.746 83.346 107.382Z" fill="url(#paint17_radial_1_42)" />
  <path d="M87.2637 108.151V107.908H87.5061C87.6273 107.908 87.7081 107.868 87.7081 107.827C87.7485 107.787 87.7485 107.706 87.7485 107.625V103.909C87.7485 103.707 87.6677 103.626 87.5061 103.626H87.2637V103.383H90.4149L90.4553 105.04H90.2937C90.2129 104.515 90.1321 104.151 89.9705 103.949C89.8493 103.747 89.6069 103.666 89.2433 103.666H88.3545V105.605H89.1221C89.5665 105.605 89.9301 105.726 90.2129 105.969C90.5361 106.211 90.6573 106.535 90.6573 106.939C90.6573 107.302 90.5361 107.585 90.2533 107.827C89.9705 108.07 89.6069 108.191 89.1625 108.191H87.2637V108.151ZM88.3545 105.807V107.625C88.3545 107.787 88.4353 107.868 88.6373 107.868H89.1625C89.4857 107.868 89.6877 107.787 89.8493 107.625C90.0109 107.464 90.0917 107.181 90.0917 106.817C90.0917 106.454 90.0109 106.211 89.8493 106.05C89.6877 105.888 89.4857 105.767 89.2433 105.767H88.3545V105.807Z" fill="url(#paint18_radial_1_42)" />
  <path d="M95.7898 103.383H99.749V103.625H99.4662C99.3854 103.625 99.3046 103.666 99.2642 103.706C99.2238 103.746 99.2238 103.868 99.2238 104.07V107.504C99.2238 107.665 99.2238 107.746 99.2238 107.786C99.2238 107.827 99.2642 107.867 99.3046 107.867C99.345 107.908 99.4258 107.908 99.4662 107.908H99.7086V108.15H98.0926V107.908H98.3754C98.4966 107.908 98.5774 107.867 98.5774 107.827C98.6178 107.786 98.6178 107.665 98.6178 107.463V103.666H96.8402V107.504C96.8402 107.665 96.8402 107.746 96.8402 107.786C96.8402 107.827 96.8806 107.867 96.921 107.867C96.9614 107.908 97.0018 107.908 97.0826 107.908H97.3654V108.15H95.709V107.908H96.0322C96.113 107.908 96.1534 107.908 96.1938 107.867C96.2342 107.827 96.2342 107.786 96.2342 107.786C96.2342 107.746 96.2342 107.665 96.2342 107.504V104.07C96.2342 103.908 96.2342 103.787 96.1938 103.746C96.1534 103.706 96.113 103.666 95.9918 103.666H95.709V103.383H95.7898Z" fill="url(#paint19_radial_1_42)" />
  <path d="M101.807 103.383H103.705C104.15 103.383 104.473 103.504 104.675 103.746C104.917 103.989 104.998 104.312 104.998 104.676C104.998 105.039 104.877 105.362 104.675 105.564C104.392 105.847 104.029 105.968 103.625 105.968H102.938V107.584C102.938 107.665 102.938 107.746 102.978 107.786C103.019 107.827 103.099 107.867 103.18 107.867H103.625V108.11H101.807V107.867H102.211C102.291 107.867 102.332 107.867 102.372 107.827C102.413 107.786 102.413 107.746 102.413 107.665V103.868C102.413 103.787 102.372 103.706 102.332 103.666C102.291 103.625 102.211 103.585 102.089 103.585H101.807V103.383ZM102.978 105.766H103.503C103.827 105.766 104.069 105.686 104.231 105.524C104.392 105.362 104.433 105.08 104.433 104.676C104.433 104.393 104.392 104.191 104.352 104.029C104.271 103.868 104.19 103.787 104.069 103.706C103.948 103.625 103.746 103.585 103.423 103.585C103.221 103.585 103.099 103.625 103.059 103.666C103.019 103.706 102.978 103.787 102.978 103.908V105.766Z" fill="url(#paint20_radial_1_42)" />
  <path d="M107.102 103.383H110.172L110.253 104.999H110.091C110.01 104.474 109.93 104.15 109.768 103.948C109.606 103.746 109.404 103.666 109.162 103.666H108.394C108.314 103.666 108.273 103.706 108.273 103.746C108.233 103.787 108.233 103.868 108.233 103.948V105.645H108.556C108.718 105.645 108.879 105.564 109 105.403C109.122 105.241 109.162 104.999 109.162 104.676H109.324V106.898H109.162C109.162 106.534 109.081 106.292 109 106.13C108.879 105.968 108.718 105.888 108.556 105.888H108.273V107.786C108.273 107.867 108.273 107.908 108.314 107.948C108.354 107.988 108.394 107.988 108.516 107.988H109.122C109.768 107.988 110.132 107.463 110.253 106.453H110.455L110.374 108.231H107.182V107.988H107.465C107.586 107.988 107.627 107.948 107.667 107.908C107.708 107.867 107.748 107.786 107.748 107.706V103.948C107.748 103.868 107.748 103.787 107.708 103.746C107.667 103.706 107.627 103.666 107.546 103.666H107.223V103.383H107.102Z" fill="url(#paint21_radial_1_42)" />
  <path d="M116.191 107.908V109.322H115.989C115.989 109.08 115.949 108.878 115.868 108.676C115.827 108.514 115.706 108.352 115.504 108.272C115.302 108.191 115.141 108.11 114.939 108.11H113.403C113.121 108.11 112.878 108.191 112.676 108.352C112.474 108.514 112.393 108.837 112.393 109.282H112.191L112.232 107.827C112.434 107.827 112.636 107.787 112.757 107.666C112.878 107.585 113.04 107.383 113.161 107.06C113.282 106.736 113.403 106.373 113.444 105.969C113.484 105.524 113.525 105.04 113.525 104.474C113.525 104.11 113.484 103.868 113.403 103.747C113.323 103.626 113.201 103.545 113.04 103.545H112.999V103.343H116.231V103.585H115.949C115.868 103.585 115.787 103.626 115.747 103.666C115.706 103.706 115.706 103.828 115.706 104.03V107.464C115.706 107.746 115.827 107.868 116.029 107.868H116.191V107.908ZM115.141 107.868V103.626H114.494C114.292 103.626 114.131 103.666 114.05 103.747C113.969 103.828 113.929 103.908 113.888 104.07C113.848 104.191 113.848 104.514 113.848 104.959C113.807 105.888 113.727 106.575 113.525 107.06C113.363 107.504 113.161 107.787 112.919 107.908H115.141V107.868Z" fill="url(#paint22_radial_1_42)" />
  <path d="M118.292 103.383H122.251V103.625H121.968C121.887 103.625 121.807 103.666 121.766 103.706C121.726 103.746 121.726 103.868 121.726 104.07V107.504C121.726 107.665 121.726 107.746 121.726 107.786C121.726 107.827 121.766 107.867 121.807 107.867C121.847 107.908 121.928 107.908 121.968 107.908H122.211V108.15H120.595V107.908H120.877C120.999 107.908 121.079 107.867 121.079 107.827C121.12 107.786 121.12 107.665 121.12 107.463V103.666H119.342V107.504C119.342 107.665 119.342 107.746 119.342 107.786C119.342 107.827 119.383 107.867 119.423 107.867C119.463 107.908 119.504 107.908 119.585 107.908H119.867V108.15H118.211V107.908H118.534C118.615 107.908 118.655 107.908 118.696 107.867C118.736 107.827 118.736 107.786 118.736 107.786C118.736 107.746 118.736 107.665 118.736 107.504V104.07C118.736 103.908 118.736 103.787 118.696 103.746C118.655 103.706 118.615 103.666 118.494 103.666H118.211V103.383H118.292Z" fill="url(#paint23_radial_1_42)" />
  <path d="M124.312 103.383H126.211C126.655 103.383 126.978 103.504 127.18 103.747C127.423 103.989 127.503 104.312 127.503 104.676C127.503 105.039 127.382 105.363 127.18 105.565C126.897 105.847 126.534 105.969 126.13 105.969H125.443V107.585C125.443 107.665 125.443 107.746 125.483 107.787C125.524 107.827 125.605 107.867 125.685 107.867H126.13V108.11H124.271V107.867H124.675C124.756 107.867 124.797 107.867 124.837 107.827C124.877 107.787 124.877 107.746 124.877 107.665V103.868C124.877 103.787 124.837 103.706 124.797 103.666C124.756 103.625 124.675 103.585 124.554 103.585H124.271V103.383H124.312ZM125.483 105.767H126.009C126.332 105.767 126.574 105.686 126.736 105.524C126.897 105.363 126.938 105.08 126.938 104.676C126.938 104.393 126.897 104.191 126.857 104.029C126.776 103.868 126.695 103.787 126.574 103.706C126.453 103.625 126.251 103.585 125.928 103.585C125.726 103.585 125.605 103.625 125.564 103.666C125.524 103.706 125.483 103.787 125.483 103.908V105.767Z" fill="url(#paint24_radial_1_42)" />
  <path d="M130.614 106.979L132.432 104.03V103.949C132.432 103.828 132.432 103.747 132.392 103.706C132.352 103.666 132.271 103.666 132.19 103.666H131.907V103.424H133.523V103.666H133.24C133.16 103.666 133.119 103.666 133.038 103.706C132.998 103.747 132.958 103.868 132.958 104.11V107.544C132.958 107.666 132.958 107.787 132.958 107.827C132.958 107.868 132.998 107.908 133.038 107.948C133.079 107.989 133.16 107.989 133.2 107.989H133.442V108.231H131.826V107.989H132.109C132.23 107.989 132.311 107.948 132.311 107.908C132.352 107.868 132.352 107.746 132.352 107.544V104.514L130.534 107.504C130.534 107.625 130.534 107.746 130.534 107.787C130.534 107.827 130.574 107.868 130.614 107.908C130.655 107.948 130.736 107.948 130.776 107.948H131.059V108.191H129.402V107.948H129.726C129.806 107.948 129.887 107.908 129.887 107.868C129.928 107.827 129.928 107.706 129.928 107.504V104.07C129.928 103.908 129.928 103.787 129.887 103.747C129.847 103.706 129.806 103.666 129.685 103.666H129.402V103.424H131.059V103.666H130.776C130.655 103.666 130.614 103.706 130.574 103.747C130.534 103.787 130.534 103.908 130.534 104.07V106.979H130.614Z" fill="url(#paint25_radial_1_42)" />
  <path d="M135.623 103.383H137.279V103.626H136.997C136.875 103.626 136.835 103.666 136.795 103.707C136.754 103.747 136.754 103.868 136.754 104.03V105.484H138.532V104.03C138.532 103.828 138.532 103.747 138.491 103.707C138.451 103.666 138.37 103.626 138.289 103.626H138.007V103.383H139.663V103.626H139.38C139.299 103.626 139.259 103.626 139.219 103.666C139.178 103.707 139.178 103.747 139.138 103.787C139.138 103.828 139.138 103.909 139.138 104.07V107.504C139.138 107.666 139.138 107.787 139.178 107.787C139.219 107.868 139.299 107.908 139.421 107.908H139.703V108.151H138.047V107.908H138.33C138.451 107.908 138.532 107.868 138.572 107.787C138.613 107.746 138.613 107.625 138.613 107.464V105.807H136.835V107.504C136.835 107.666 136.835 107.787 136.875 107.787C136.916 107.868 136.997 107.908 137.118 107.908H137.401V108.151H135.744V107.908H136.067C136.108 107.908 136.148 107.908 136.189 107.868C136.229 107.827 136.229 107.787 136.269 107.747C136.269 107.706 136.269 107.625 136.269 107.464V104.03C136.269 103.868 136.269 103.747 136.229 103.707C136.189 103.666 136.108 103.626 136.027 103.626H135.744V103.383H135.623Z" fill="url(#paint26_radial_1_42)" />
  <path d="M142.774 106.979L144.592 104.03V103.949C144.592 103.828 144.592 103.747 144.552 103.707C144.512 103.666 144.431 103.666 144.35 103.666H144.067V103.424H145.683V103.666H145.4C145.32 103.666 145.279 103.666 145.198 103.707C145.158 103.747 145.118 103.868 145.118 104.111V107.545C145.118 107.666 145.118 107.787 145.118 107.827C145.118 107.868 145.158 107.908 145.198 107.949C145.239 107.989 145.32 107.989 145.36 107.989H145.602V108.231H143.986V107.989H144.269C144.391 107.989 144.471 107.949 144.471 107.908C144.512 107.868 144.512 107.747 144.512 107.545V104.515L142.694 107.504C142.694 107.625 142.694 107.747 142.694 107.787C142.694 107.827 142.734 107.868 142.774 107.908C142.815 107.949 142.896 107.949 142.936 107.949H143.219V108.191H141.562V107.949H141.886C141.967 107.949 142.047 107.908 142.047 107.868C142.088 107.827 142.088 107.706 142.088 107.504V104.07C142.088 103.909 142.088 103.787 142.047 103.747C142.007 103.707 141.967 103.666 141.845 103.666H141.562V103.424H143.219V103.666H142.936C142.815 103.666 142.774 103.707 142.734 103.747C142.694 103.787 142.694 103.909 142.694 104.07V106.979H142.774Z" fill="url(#paint27_radial_1_42)" />
  <path d="M147.621 103.383H148.914L150.085 107.141L151.136 103.383H152.469V103.626H152.146C152.025 103.626 151.944 103.666 151.903 103.707C151.863 103.747 151.863 103.828 151.863 103.909V107.666C151.863 107.747 151.903 107.787 151.944 107.827C151.984 107.868 152.065 107.908 152.186 107.908H152.469V108.151H150.691V107.908H151.015C151.095 107.908 151.176 107.868 151.217 107.827C151.257 107.787 151.297 107.747 151.297 107.666V103.626L150.005 108.151H149.843L148.469 103.666V107.141C148.469 107.343 148.51 107.504 148.55 107.585C148.591 107.706 148.671 107.747 148.712 107.827C148.793 107.868 148.914 107.908 149.116 107.949V108.191H147.661V107.949C147.904 107.949 148.066 107.868 148.146 107.747C148.227 107.625 148.267 107.464 148.267 107.181V103.909C148.267 103.828 148.267 103.787 148.227 103.747C148.187 103.706 148.106 103.707 147.985 103.707H147.661V103.383H147.621Z" fill="url(#paint28_radial_1_42)" />
  <path d="M156.066 103.302H156.228L157.601 107.665C157.642 107.827 157.763 107.948 157.925 107.948H158.046V108.191H156.511V107.948H156.632C156.793 107.948 156.915 107.908 156.955 107.867C156.995 107.827 157.036 107.787 157.036 107.746C157.036 107.706 157.036 107.665 157.036 107.625L156.713 106.615H155.177L155.016 107.181C154.975 107.342 154.935 107.463 154.935 107.544C154.935 107.665 154.975 107.746 155.056 107.827C155.137 107.908 155.258 107.948 155.42 107.948H155.541V108.191H154.127V107.948C154.289 107.948 154.41 107.908 154.491 107.827C154.571 107.746 154.652 107.585 154.733 107.383L156.066 103.302ZM155.985 104.191L155.299 106.292H156.672L155.985 104.191Z" fill="url(#paint29_radial_1_42)" />
  <path d="M159.904 103.383H163.055L163.136 105.201H162.974C162.853 104.151 162.53 103.625 162.045 103.625C161.924 103.625 161.884 103.666 161.843 103.706C161.803 103.747 161.803 103.827 161.803 103.908V107.706C161.803 107.787 161.803 107.827 161.843 107.867C161.884 107.908 161.924 107.908 162.005 107.908H162.409V108.15H160.631V107.908H161.076C161.116 107.908 161.197 107.908 161.197 107.867C161.237 107.827 161.237 107.787 161.237 107.706V103.868C161.237 103.787 161.237 103.706 161.197 103.666C161.156 103.625 161.076 103.585 160.995 103.585C160.752 103.585 160.55 103.747 160.348 104.029C160.227 104.272 160.106 104.635 160.066 105.161H159.864L159.904 103.383Z" fill="url(#paint30_radial_1_42)" />
  <path d="M165.154 103.383H168.225L168.306 104.999H168.144C168.063 104.474 167.982 104.15 167.821 103.948C167.659 103.746 167.457 103.666 167.215 103.666H166.447C166.366 103.666 166.326 103.706 166.326 103.746C166.286 103.787 166.286 103.868 166.286 103.948V105.645H166.609C166.77 105.645 166.932 105.564 167.053 105.403C167.174 105.241 167.215 104.999 167.215 104.676H167.376V106.898H167.215C167.215 106.534 167.134 106.292 167.053 106.13C166.932 105.968 166.77 105.888 166.609 105.888H166.326V107.786C166.326 107.867 166.326 107.908 166.366 107.948C166.407 107.988 166.447 107.988 166.568 107.988H167.174C167.821 107.988 168.184 107.463 168.306 106.453H168.508L168.427 108.231H165.235V107.988H165.518C165.639 107.988 165.68 107.948 165.72 107.908C165.76 107.867 165.801 107.786 165.801 107.706V103.948C165.801 103.868 165.801 103.787 165.76 103.746C165.72 103.706 165.679 103.666 165.599 103.666H165.276V103.383H165.154Z" fill="url(#paint31_radial_1_42)" />
  <path d="M171.094 103.383H174.407V103.625H174.165C174.044 103.625 173.963 103.666 173.922 103.706C173.882 103.746 173.882 103.827 173.882 103.989V107.584C173.882 107.746 173.882 107.827 173.922 107.867C173.963 107.908 174.044 107.948 174.124 107.948H174.407V108.19H172.71V107.948H173.034C173.155 107.948 173.236 107.948 173.276 107.908C173.316 107.867 173.316 107.786 173.316 107.625V103.706H172.549C172.347 103.706 172.226 103.746 172.145 103.827C172.064 103.908 172.024 104.07 172.024 104.312L171.983 105.16C171.902 106.494 171.781 107.342 171.579 107.706C171.418 108.069 171.175 108.231 170.892 108.231C170.731 108.231 170.65 108.19 170.529 108.069C170.448 107.948 170.367 107.827 170.367 107.625C170.367 107.463 170.408 107.342 170.448 107.261C170.529 107.18 170.61 107.14 170.731 107.14C170.892 107.14 171.014 107.221 171.054 107.423C171.094 107.504 171.094 107.544 171.094 107.584C171.094 107.625 171.135 107.625 171.175 107.625C171.337 107.625 171.458 107.342 171.539 106.736C171.62 106.13 171.66 105.524 171.66 104.918C171.66 104.352 171.62 103.989 171.579 103.868C171.539 103.746 171.418 103.666 171.216 103.666H171.014V103.383H171.094Z" fill="url(#paint32_radial_1_42)" />
  <path d="M176.59 103.383H179.66L179.741 104.999H179.579C179.499 104.474 179.418 104.15 179.256 103.948C179.095 103.746 178.893 103.666 178.65 103.666H177.883C177.802 103.666 177.761 103.706 177.761 103.746C177.721 103.787 177.721 103.868 177.721 103.948V105.645H178.044C178.206 105.645 178.367 105.564 178.489 105.403C178.61 105.241 178.65 104.999 178.65 104.676H178.812V106.898H178.65C178.65 106.534 178.569 106.292 178.489 106.13C178.367 105.968 178.206 105.888 178.044 105.888H177.761V107.786C177.761 107.867 177.761 107.908 177.802 107.948C177.842 107.988 177.883 107.988 178.004 107.988H178.61C179.256 107.988 179.62 107.463 179.741 106.453H179.943L179.862 108.231H176.671V107.988H176.953C177.075 107.988 177.115 107.948 177.155 107.908C177.196 107.867 177.236 107.786 177.236 107.706V103.948C177.236 103.868 177.236 103.787 177.196 103.746C177.155 103.706 177.115 103.666 177.034 103.666H176.711V103.383H176.59Z" fill="url(#paint33_radial_1_42)" />
  <path d="M183.054 106.979L184.872 104.03V103.949C184.872 103.828 184.872 103.747 184.831 103.706C184.791 103.666 184.71 103.666 184.629 103.666H184.347V103.424H185.963V103.666H185.68C185.599 103.666 185.559 103.666 185.478 103.706C185.437 103.747 185.397 103.868 185.397 104.11V107.544C185.397 107.666 185.397 107.787 185.397 107.827C185.397 107.868 185.437 107.908 185.478 107.948C185.518 107.989 185.599 107.989 185.639 107.989H185.882V108.231H184.266V107.989H184.549C184.67 107.989 184.751 107.948 184.751 107.908C184.791 107.868 184.791 107.746 184.791 107.544V104.514L182.973 107.504C182.973 107.625 182.973 107.746 182.973 107.787C182.973 107.827 183.013 107.868 183.054 107.908C183.094 107.948 183.175 107.948 183.215 107.948H183.498V108.191H181.842V107.948H182.165C182.246 107.948 182.327 107.908 182.327 107.868C182.367 107.827 182.367 107.706 182.367 107.504V104.07C182.367 103.908 182.367 103.787 182.327 103.747C182.286 103.706 182.246 103.666 182.125 103.666H181.842V103.424H183.498V103.666H183.215C183.094 103.666 183.054 103.706 183.013 103.747C182.973 103.787 182.973 103.908 182.973 104.07V106.979H183.054ZM182.892 102.252C182.892 102.131 182.933 102.01 182.973 101.929C183.054 101.848 183.094 101.808 183.215 101.808C183.296 101.808 183.377 101.848 183.417 101.929C183.458 102.01 183.498 102.09 183.498 102.171C183.498 102.292 183.458 102.373 183.377 102.454C183.296 102.535 183.256 102.616 183.256 102.656C183.256 102.858 183.498 102.979 183.943 102.979C184.185 102.979 184.387 102.939 184.468 102.898C184.589 102.818 184.629 102.777 184.629 102.696C184.629 102.656 184.589 102.575 184.508 102.494C184.427 102.414 184.387 102.333 184.387 102.212C184.387 102.09 184.427 102.01 184.468 101.969C184.508 101.929 184.589 101.888 184.67 101.888C184.751 101.888 184.831 101.929 184.912 102.01C184.993 102.09 184.993 102.212 184.993 102.333C184.993 102.616 184.912 102.818 184.751 102.979C184.589 103.141 184.306 103.222 183.902 103.222C183.579 103.222 183.296 103.141 183.135 102.979C182.973 102.737 182.892 102.535 182.892 102.252Z" fill="url(#paint34_radial_1_42)" />
  <path d="M80.4772 83.5069L81.164 81.8505H81.8912L82.1336 88.4357H81.2044C80.9216 86.5369 80.3964 85.1229 79.5884 84.1937C78.7804 83.2645 77.8916 82.8201 76.8816 82.8201C75.7504 82.8201 74.8616 83.4261 74.094 84.5977C73.3668 85.7693 73.0032 87.6681 73.0032 90.2133C73.0032 92.9201 73.4072 94.9401 74.2152 96.2329C74.8616 97.2833 75.7908 97.7681 77.0836 97.7681C78.336 97.7681 79.3864 97.2429 80.2348 96.2329C80.8408 95.4653 81.2852 94.3745 81.5276 92.9201H82.4164C82.2144 94.7785 81.568 96.2733 80.4772 97.3641C79.3864 98.4549 78.0936 99.0205 76.518 99.0205C74.498 99.0205 72.8012 98.2125 71.4276 96.6369C70.054 95.0613 69.3672 93.0009 69.3672 90.5365C69.3672 87.7893 70.1348 85.5673 71.7104 83.9109C73.0436 82.4969 74.6192 81.8101 76.4372 81.8101C77.1644 81.8101 77.8108 81.9313 78.4168 82.1737C79.144 82.4565 79.7904 82.9009 80.4772 83.5069Z" fill="url(#paint35_radial_1_42)" />
  <path d="M89.809 94.4553L90.0514 93.7685L95.5862 84.7189V84.3149C95.5862 83.8705 95.5054 83.5877 95.3438 83.4665C95.1822 83.3453 94.9398 83.2645 94.6166 83.2645H93.7278V82.2141H100.596V83.2645H99.707C99.0606 83.2645 98.7374 83.5877 98.7374 84.1937V96.6369C98.7374 97.3237 99.0202 97.6873 99.5858 97.6873H100.596V98.7377H93.7278V97.6873H94.8186C95.3438 97.6873 95.5862 97.3641 95.5862 96.7581V86.6985L95.3842 87.3045L89.809 96.3137V96.7985C89.809 97.4045 90.0514 97.7277 90.4958 97.7277H91.7078V98.7781H84.8398V97.7277H85.971C86.4558 97.7277 86.6982 97.4045 86.6982 96.7985V84.3957C86.6982 83.7089 86.375 83.3453 85.7286 83.3453H84.8398V82.2949H91.7078V83.3453H90.6978C90.1322 83.3453 89.8494 83.5877 89.8494 84.1129V94.4553H89.809Z" fill="url(#paint36_radial_1_42)" />
  <path d="M102.293 82.2544H108.232L111.585 93.4048L114.938 82.2544H121.038V83.3048H119.705C119.382 83.3048 119.14 83.3856 119.018 83.5068C118.897 83.628 118.816 83.8704 118.816 84.1936V96.758C118.816 97.0812 118.897 97.2832 119.018 97.4044C119.22 97.566 119.503 97.6872 119.826 97.6872H120.998V98.7376H113.484V97.6872H114.898C115.14 97.6872 115.342 97.6064 115.504 97.4448C115.625 97.2832 115.706 97.0408 115.706 96.758V83.2644L111.019 98.6972H110.13L105.444 83.1432V95.1824C105.444 95.8692 105.646 96.4348 106.05 96.8792C106.454 97.3236 107.02 97.6064 107.747 97.6872V98.7376H102.293V97.6872C102.98 97.6064 103.505 97.364 103.909 96.8792C104.272 96.3944 104.474 95.7884 104.474 95.0612V84.3956C104.474 83.9512 104.394 83.628 104.272 83.5068C104.151 83.3452 103.868 83.2644 103.464 83.2644H102.293V82.2544Z" fill="url(#paint37_radial_1_42)" />
  <path d="M128.029 89.5266H129.685C132.352 89.5266 134.21 89.971 135.341 90.8194C136.432 91.6678 136.998 92.799 136.998 94.1322C136.998 95.7886 136.472 96.9602 135.422 97.647C134.372 98.3338 132.958 98.6974 131.18 98.6974H122.736V97.647H124.11C124.352 97.647 124.554 97.5662 124.676 97.3642C124.797 97.1622 124.878 96.9198 124.878 96.637V83.8706C124.878 83.4262 124.554 83.2242 123.908 83.2242H122.777V82.1738H135.664L135.826 87.7086H134.937C134.856 86.9006 134.695 86.0926 134.412 85.325C134.129 84.5574 133.725 83.9918 133.281 83.6686C132.796 83.3454 132.109 83.1838 131.18 83.1838H128.998C128.392 83.1838 128.069 83.4666 128.069 84.0726V89.5266H128.029ZM128.029 90.577V96.7582C128.029 97.4046 128.271 97.7278 128.716 97.7278H130.614C131.422 97.7278 132.15 97.4854 132.715 96.9602C133.321 96.435 133.604 95.5462 133.604 94.2938C133.604 91.8294 132.473 90.6174 130.251 90.6174H128.029V90.577Z" fill="url(#paint38_radial_1_42)" />
  <path d="M143.865 94.4553L144.108 93.7685L149.643 84.7189V84.3149C149.643 83.8705 149.562 83.5877 149.4 83.4665C149.239 83.3453 148.996 83.2645 148.673 83.2645H147.784V82.2141H154.652V83.2645H153.763C153.117 83.2645 152.794 83.5877 152.794 84.1937V96.6369C152.794 97.3237 153.077 97.6873 153.642 97.6873H154.652V98.7377H147.784V97.6873H148.875C149.4 97.6873 149.643 97.3641 149.643 96.7581V86.6985L149.441 87.3045L143.865 96.3137V96.7985C143.865 97.4045 144.108 97.7277 144.552 97.7277H145.764V98.7781H138.896V97.7277H140.027C140.512 97.7277 140.755 97.4045 140.755 96.7985V84.3957C140.755 83.7089 140.431 83.3453 139.785 83.3453H138.896V82.2949H145.764V83.3453H144.754C144.189 83.3453 143.906 83.5877 143.906 84.1129V94.4553H143.865Z" fill="url(#paint39_radial_1_42)" />
  <path d="M164.105 81.8506C165.478 81.8506 166.771 82.2142 167.943 82.9818C169.114 83.7494 170.044 84.7594 170.69 86.0522C171.336 87.345 171.66 88.7994 171.66 90.4154C171.66 92.8798 170.932 94.9402 169.478 96.5966C168.024 98.253 166.246 99.061 164.105 99.061C162.691 99.061 161.398 98.6974 160.267 97.9298C159.136 97.1622 158.247 96.1522 157.6 94.8998C156.954 93.6474 156.631 92.1526 156.631 90.4558C156.631 87.951 157.358 85.8906 158.772 84.2746C160.186 82.6586 162.004 81.8506 164.105 81.8506ZM164.186 82.901C163.378 82.901 162.691 83.1434 162.125 83.6282C161.56 84.113 161.075 84.8806 160.752 85.9714C160.428 87.0622 160.226 88.557 160.226 90.4154C160.226 92.395 160.388 93.8898 160.711 94.8998C161.034 95.9098 161.479 96.6774 162.085 97.1622C162.691 97.647 163.378 97.8894 164.186 97.8894C165.357 97.8894 166.327 97.3238 167.054 96.1926C167.781 95.0614 168.104 93.0818 168.104 90.2538C168.104 88.2742 167.943 86.7794 167.66 85.8098C167.337 84.7998 166.892 84.0726 166.286 83.5878C165.68 83.1434 164.994 82.901 164.186 82.901Z" fill="url(#paint40_radial_1_42)" />
  <path d="M181.88 90.1322C184.587 90.7382 185.92 92.1118 185.92 94.1722C185.92 95.8286 185.314 97.0406 184.102 97.8486C182.89 98.6566 181.396 99.0606 179.618 99.0606C177.598 99.0606 176.063 98.5354 175.053 97.5254C174.043 96.5154 173.518 95.263 173.518 93.7682H174.326C174.326 94.8994 174.73 95.869 175.497 96.677C176.265 97.485 177.315 97.9294 178.689 97.9294C181.274 97.9294 182.608 96.6366 182.608 94.0914C182.608 92.9602 182.284 92.1118 181.638 91.5866C180.992 91.0614 180.224 90.7786 179.335 90.7786H177.396V89.7686H178.77C179.86 89.7686 180.668 89.4858 181.153 88.9606C181.638 88.4354 181.88 87.587 181.88 86.4558C181.88 85.365 181.638 84.4762 181.113 83.7894C180.588 83.1026 179.901 82.7794 179.052 82.7794C178.204 82.7794 177.356 83.1026 176.588 83.7086C175.82 84.3146 175.134 85.6882 174.568 87.789H173.841L174.043 81.8906H174.891L175.538 83.2642C176.588 82.335 177.921 81.8906 179.618 81.8906C181.274 81.8906 182.648 82.2542 183.698 83.0218C184.749 83.7894 185.234 84.8802 185.234 86.2942C185.234 88.1122 184.143 89.405 181.88 90.1322Z" fill="url(#paint41_radial_1_42)" />
  <defs>
    <radialGradient id="paint0_radial_1_42" cx="0" cy="0" r="1" gradientUnits="userSpaceOnUse" gradientTransform="translate(34.5884 82.0186) scale(4.02582)">
      <stop stop-color="#000971" stop-opacity="0.5" />
      <stop offset="1" stop-color="#0000C9" />
    </radialGradient>
    <radialGradient id="paint1_radial_1_42" cx="0" cy="0" r="1" gradientUnits="userSpaceOnUse" gradientTransform="translate(31.1014 96.2798) rotate(1.17463) scale(3.47145 3.47144)">
      <stop stop-color="#000971" stop-opacity="0.5" />
      <stop offset="1" stop-color="#0000C9" />
    </radialGradient>
    <radialGradient id="paint2_radial_1_42" cx="0" cy="0" r="1" gradientUnits="userSpaceOnUse" gradientTransform="translate(40.9444 85.8167) rotate(96.7882) scale(1.80178 1.80178)">
      <stop stop-color="#000971" stop-opacity="0.5" />
      <stop offset="1" stop-color="#0000C9" />
    </radialGradient>
    <radialGradient id="paint3_radial_1_42" cx="0" cy="0" r="1" gradientUnits="userSpaceOnUse" gradientTransform="translate(30.4737 87.562) scale(2.32449 2.32449)">
      <stop stop-color="#000971" stop-opacity="0.5" />
      <stop offset="1" stop-color="#0000C9" />
    </radialGradient>
    <radialGradient id="paint4_radial_1_42" cx="0" cy="0" r="1" gradientUnits="userSpaceOnUse" gradientTransform="translate(39.7664 99.3909) scale(3.51149 3.51149)">
      <stop stop-color="#000971" stop-opacity="0.5" />
      <stop offset="1" stop-color="#0000C9" />
    </radialGradient>
    <radialGradient id="paint5_radial_1_42" cx="0" cy="0" r="1" gradientUnits="userSpaceOnUse" gradientTransform="translate(44.9493 88.483) scale(4.00913 4.00913)">
      <stop stop-color="#000971" stop-opacity="0.5" />
      <stop offset="1" stop-color="#0000C9" />
    </radialGradient>
    <radialGradient id="paint6_radial_1_42" cx="0" cy="0" r="1" gradientUnits="userSpaceOnUse" gradientTransform="translate(42.5369 83.1996) scale(1.58626 1.58627)">
      <stop stop-color="#000971" stop-opacity="0.5" />
      <stop offset="1" stop-color="#000071" />
    </radialGradient>
    <radialGradient id="paint7_radial_1_42" cx="0" cy="0" r="1" gradientUnits="userSpaceOnUse" gradientTransform="translate(26.8685 85.4767) scale(1.79594)">
      <stop stop-color="#000971" stop-opacity="0.5" />
      <stop offset="1" stop-color="#000071" />
    </radialGradient>
    <radialGradient id="paint8_radial_1_42" cx="0" cy="0" r="1" gradientUnits="userSpaceOnUse" gradientTransform="translate(37.3155 90.8979) scale(4.92084 4.92084)">
      <stop stop-color="#000971" stop-opacity="0.5" />
      <stop offset="1" stop-color="#000071" />
    </radialGradient>
    <radialGradient id="paint9_radial_1_42" cx="0" cy="0" r="1" gradientUnits="userSpaceOnUse" gradientTransform="translate(54.969 85.4011) scale(6.15745 6.15745)">
      <stop stop-color="#000971" stop-opacity="0.5" />
      <stop offset="1" stop-color="#000071" />
    </radialGradient>
    <radialGradient id="paint10_radial_1_42" cx="0" cy="0" r="1" gradientUnits="userSpaceOnUse" gradientTransform="translate(31.746 73.4227) scale(5.38782 5.38783)">
      <stop stop-color="#000971" stop-opacity="0.5" />
      <stop offset="1" stop-color="#000071" />
    </radialGradient>
    <radialGradient id="paint11_radial_1_42" cx="0" cy="0" r="1" gradientUnits="userSpaceOnUse" gradientTransform="translate(42.2669 108.476) scale(5.4904 5.4904)">
      <stop stop-color="#000971" stop-opacity="0.5" />
      <stop offset="1" stop-color="#000071" />
    </radialGradient>
    <radialGradient id="paint12_radial_1_42" cx="0" cy="0" r="1" gradientUnits="userSpaceOnUse" gradientTransform="translate(25.9152 100.847) scale(3.62711)">
      <stop stop-color="#000971" stop-opacity="0.5" />
      <stop offset="1" stop-color="#000071" />
    </radialGradient>
    <radialGradient id="paint13_radial_1_42" cx="0" cy="0" r="1" gradientUnits="userSpaceOnUse" gradientTransform="translate(20.5003 84.4749) scale(47.2476 47.2476)">
      <stop stop-color="#000971" stop-opacity="0.5" />
      <stop offset="1" stop-color="#0000C9" />
    </radialGradient>
    <radialGradient id="paint14_radial_1_42" cx="0" cy="0" r="1" gradientUnits="userSpaceOnUse" gradientTransform="translate(37.2321 90.9763) scale(17.8651 17.8651)">
      <stop stop-color="#000971" stop-opacity="0.5" />
      <stop offset="1" stop-color="#0000C9" />
    </radialGradient>
    <radialGradient id="paint15_radial_1_42" cx="0" cy="0" r="1" gradientUnits="userSpaceOnUse" gradientTransform="translate(71.9728 105.757) scale(2.17962)">
      <stop stop-color="#000971" stop-opacity="0.5" />
      <stop offset="1" stop-color="#000071" />
    </radialGradient>
    <radialGradient id="paint16_radial_1_42" cx="0" cy="0" r="1" gradientUnits="userSpaceOnUse" gradientTransform="translate(77.6137 105.806) scale(2.2178)">
      <stop stop-color="#000971" stop-opacity="0.5" />
      <stop offset="1" stop-color="#000071" />
    </radialGradient>
    <radialGradient id="paint17_radial_1_42" cx="0" cy="0" r="1" gradientUnits="userSpaceOnUse" gradientTransform="translate(83.4784 105.806) scale(2.16912 2.16912)">
      <stop stop-color="#000971" stop-opacity="0.5" />
      <stop offset="1" stop-color="#000071" />
    </radialGradient>
    <radialGradient id="paint18_radial_1_42" cx="0" cy="0" r="1" gradientUnits="userSpaceOnUse" gradientTransform="translate(88.9759 105.773) scale(2.07183)">
      <stop stop-color="#000971" stop-opacity="0.5" />
      <stop offset="1" stop-color="#000071" />
    </radialGradient>
    <radialGradient id="paint19_radial_1_42" cx="0" cy="0" r="1" gradientUnits="userSpaceOnUse" gradientTransform="translate(97.7659 105.772) scale(2.18588 2.18589)">
      <stop stop-color="#000971" stop-opacity="0.5" />
      <stop offset="1" stop-color="#000071" />
    </radialGradient>
    <radialGradient id="paint20_radial_1_42" cx="0" cy="0" r="1" gradientUnits="userSpaceOnUse" gradientTransform="translate(103.411 105.772) scale(2.0322 2.0322)">
      <stop stop-color="#000971" stop-opacity="0.5" />
      <stop offset="1" stop-color="#000071" />
    </radialGradient>
    <radialGradient id="paint21_radial_1_42" cx="0" cy="0" r="1" gradientUnits="userSpaceOnUse" gradientTransform="translate(108.732 105.772) scale(2.03583 2.03584)">
      <stop stop-color="#000971" stop-opacity="0.5" />
      <stop offset="1" stop-color="#000071" />
    </radialGradient>
    <radialGradient id="paint22_radial_1_42" cx="0" cy="0" r="1" gradientUnits="userSpaceOnUse" gradientTransform="translate(114.213 106.364) scale(2.5292)">
      <stop stop-color="#000971" stop-opacity="0.5" />
      <stop offset="1" stop-color="#000071" />
    </radialGradient>
    <radialGradient id="paint23_radial_1_42" cx="0" cy="0" r="1" gradientUnits="userSpaceOnUse" gradientTransform="translate(120.285 105.772) scale(2.18588 2.18589)">
      <stop stop-color="#000971" stop-opacity="0.5" />
      <stop offset="1" stop-color="#000071" />
    </radialGradient>
    <radialGradient id="paint24_radial_1_42" cx="0" cy="0" r="1" gradientUnits="userSpaceOnUse" gradientTransform="translate(125.933 105.772) scale(2.03224 2.03224)">
      <stop stop-color="#000971" stop-opacity="0.5" />
      <stop offset="1" stop-color="#000071" />
    </radialGradient>
    <radialGradient id="paint25_radial_1_42" cx="0" cy="0" r="1" gradientUnits="userSpaceOnUse" gradientTransform="translate(131.534 105.773) scale(2.19889 2.19889)">
      <stop stop-color="#000971" stop-opacity="0.5" />
      <stop offset="1" stop-color="#000071" />
    </radialGradient>
    <radialGradient id="paint26_radial_1_42" cx="0" cy="0" r="1" gradientUnits="userSpaceOnUse" gradientTransform="translate(137.615 105.773) scale(2.18592 2.18593)">
      <stop stop-color="#000971" stop-opacity="0.5" />
      <stop offset="1" stop-color="#000071" />
    </radialGradient>
    <radialGradient id="paint27_radial_1_42" cx="0" cy="0" r="1" gradientUnits="userSpaceOnUse" gradientTransform="translate(143.697 105.773) scale(2.19893 2.19893)">
      <stop stop-color="#000971" stop-opacity="0.5" />
      <stop offset="1" stop-color="#000071" />
    </radialGradient>
    <radialGradient id="paint28_radial_1_42" cx="0" cy="0" r="1" gradientUnits="userSpaceOnUse" gradientTransform="translate(150.047 105.773) scale(2.39245 2.39245)">
      <stop stop-color="#000971" stop-opacity="0.5" />
      <stop offset="1" stop-color="#000071" />
    </radialGradient>
    <radialGradient id="paint29_radial_1_42" cx="0" cy="0" r="1" gradientUnits="userSpaceOnUse" gradientTransform="translate(156.123 105.723) scale(2.2079 2.2079)">
      <stop stop-color="#000971" stop-opacity="0.5" />
      <stop offset="1" stop-color="#000071" />
    </radialGradient>
    <radialGradient id="paint30_radial_1_42" cx="0" cy="0" r="1" gradientUnits="userSpaceOnUse" gradientTransform="translate(161.457 105.772) scale(2.04524 2.04525)">
      <stop stop-color="#000971" stop-opacity="0.5" />
      <stop offset="1" stop-color="#000071" />
    </radialGradient>
    <radialGradient id="paint31_radial_1_42" cx="0" cy="0" r="1" gradientUnits="userSpaceOnUse" gradientTransform="translate(166.797 105.772) scale(2.03584 2.03584)">
      <stop stop-color="#000971" stop-opacity="0.5" />
      <stop offset="1" stop-color="#000071" />
    </radialGradient>
    <radialGradient id="paint32_radial_1_42" cx="0" cy="0" r="1" gradientUnits="userSpaceOnUse" gradientTransform="translate(172.385 105.806) scale(2.2178)">
      <stop stop-color="#000971" stop-opacity="0.5" />
      <stop offset="1" stop-color="#000071" />
    </radialGradient>
    <radialGradient id="paint33_radial_1_42" cx="0" cy="0" r="1" gradientUnits="userSpaceOnUse" gradientTransform="translate(178.217 105.772) scale(2.03583 2.03584)">
      <stop stop-color="#000971" stop-opacity="0.5" />
      <stop offset="1" stop-color="#000071" />
    </radialGradient>
    <radialGradient id="paint34_radial_1_42" cx="0" cy="0" r="1" gradientUnits="userSpaceOnUse" gradientTransform="translate(183.959 104.973) scale(2.65621 2.65622)">
      <stop stop-color="#000971" stop-opacity="0.5" />
      <stop offset="1" stop-color="#000071" />
    </radialGradient>
    <radialGradient id="paint35_radial_1_42" cx="0" cy="0" r="1" gradientUnits="userSpaceOnUse" gradientTransform="translate(75.9637 90.4466) scale(7.3984 7.76654)">
      <stop stop-color="#000971" stop-opacity="0.5" />
      <stop offset="1" stop-color="#000071" />
    </radialGradient>
    <radialGradient id="paint36_radial_1_42" cx="0" cy="0" r="1" gradientUnits="userSpaceOnUse" gradientTransform="translate(92.7026 90.4856) scale(7.8668 8.25824)">
      <stop stop-color="#000971" stop-opacity="0.5" />
      <stop offset="1" stop-color="#000071" />
    </radialGradient>
    <radialGradient id="paint37_radial_1_42" cx="0" cy="0" r="1" gradientUnits="userSpaceOnUse" gradientTransform="translate(111.65 90.4855) scale(8.63243 9.06196)">
      <stop stop-color="#000971" stop-opacity="0.5" />
      <stop offset="1" stop-color="#000071" />
    </radialGradient>
    <radialGradient id="paint38_radial_1_42" cx="0" cy="0" r="1" gradientUnits="userSpaceOnUse" gradientTransform="translate(129.876 90.4857) scale(7.49416 7.86705)">
      <stop stop-color="#000971" stop-opacity="0.5" />
      <stop offset="1" stop-color="#000071" />
    </radialGradient>
    <radialGradient id="paint39_radial_1_42" cx="0" cy="0" r="1" gradientUnits="userSpaceOnUse" gradientTransform="translate(146.735 90.4856) scale(7.8668 8.25824)">
      <stop stop-color="#000971" stop-opacity="0.5" />
      <stop offset="1" stop-color="#000071" />
    </radialGradient>
    <radialGradient id="paint40_radial_1_42" cx="0" cy="0" r="1" gradientUnits="userSpaceOnUse" gradientTransform="translate(164.181 90.4467) scale(7.86033 8.25146)">
      <stop stop-color="#000971" stop-opacity="0.5" />
      <stop offset="1" stop-color="#000071" />
    </radialGradient>
    <radialGradient id="paint41_radial_1_42" cx="0" cy="0" r="1" gradientUnits="userSpaceOnUse" gradientTransform="translate(179.729 90.4352) scale(7.27922 7.64142)">
      <stop stop-color="#000971" stop-opacity="0.5" />
      <stop offset="1" stop-color="#000071" />
    </radialGradient>
  </defs>
</svg>