<?xml version="1.0" encoding="utf-8"?>
<!-- Generator: Adobe Illustrator 26.0.3, SVG Export Plug-In . SVG Version: 6.00 Build 0)  -->
<svg version="1.1" id="Слой_1" xmlns="http://www.w3.org/2000/svg" xmlns:xlink="http://www.w3.org/1999/xlink" x="0px" y="0px"
	 viewBox="0 0 980 980" style="enable-background:new 0 0 980 980;" xml:space="preserve">
<style type="text/css">
	.st0{fill:#7B80B4;stroke:#272D63;stroke-width:20;stroke-linecap:round;stroke-linejoin:round;stroke-miterlimit:10;}
	.st1{fill:#FFFFFF;}
	.st2{fill:none;stroke:#272D63;stroke-width:20;stroke-linecap:round;stroke-linejoin:round;stroke-miterlimit:10;}
	.st3{fill:#FFFFFF;stroke:#272D63;stroke-width:20;stroke-linecap:round;stroke-linejoin:round;stroke-miterlimit:10;}
	
		.st4{fill:none;stroke:#272D63;stroke-width:20;stroke-linecap:round;stroke-linejoin:round;stroke-miterlimit:10;stroke-dasharray:23.1594,28.9493;}
	.st5{fill:#272D63;}
	.st6{fill:#7B80B4;}
	.st7{fill:#FFFFFF;stroke:#272D63;stroke-width:20.0121;stroke-linecap:round;stroke-linejoin:round;stroke-miterlimit:10;}
	.st8{fill:#7B80B4;stroke:#272D63;stroke-width:20.0121;stroke-linecap:round;stroke-linejoin:round;stroke-miterlimit:10;}
	.st9{fill:none;stroke:#272D63;stroke-width:20.202;stroke-linecap:round;stroke-linejoin:round;stroke-miterlimit:10;}
	.st10{fill:none;stroke:#272D63;stroke-width:17.5882;stroke-linecap:round;stroke-linejoin:round;stroke-miterlimit:10;}
	.st11{fill:#7B80B4;stroke:#272D63;stroke-width:18.181;stroke-linecap:round;stroke-linejoin:round;stroke-miterlimit:10;}
	
		.st12{fill:none;stroke:#272D63;stroke-width:20;stroke-linecap:round;stroke-linejoin:round;stroke-miterlimit:10;stroke-dasharray:28.0422,35.0527;}
</style>
<g>
	<path class="st3" d="M861.2,675.4H118.8c-15.9,0-28.8-12.9-28.8-28.8V152.5c0-15.9,12.9-28.8,28.8-28.8h742.5
		c15.9,0,28.8,12.9,28.8,28.8v494.1C890,662.5,877.1,675.4,861.2,675.4z"/>
	<rect x="158.1" y="183.8" class="st2" width="663.8" height="404.2"/>
	<polygon class="st11" points="747.3,856.3 232.7,856.3 232.7,777.1 331.2,777.1 391.6,675.4 588.4,675.4 648.8,777.1 747.3,777.1 	
		"/>
	<circle class="st5" cx="490" cy="633.3" r="21.8"/>
	<rect x="232.7" y="777.1" class="st3" width="514.5" height="79.2"/>
	<g>
		<path class="st11" d="M446.7,526.1c0-76.2-54.7-137.9-122.2-137.9s-122.2,61.7-122.2,137.9H446.7z"/>
		<circle class="st11" cx="324.5" cy="317" r="71.2"/>
	</g>
	<g>
		<path class="st11" d="M774.7,526.1c0-76.2-54.7-137.9-122.2-137.9s-122.2,61.7-122.2,137.9H774.7z"/>
		<circle class="st11" cx="652.5" cy="317" r="71.2"/>
	</g>
	<line class="st2" x1="490" y1="183.8" x2="490" y2="588.1"/>
</g>
</svg>
