<?xml version="1.0" encoding="utf-8"?>
<!-- Generator: Adobe Illustrator 26.0.3, SVG Export Plug-In . SVG Version: 6.00 Build 0)  -->
<svg version="1.1" id="Слой_1" xmlns="http://www.w3.org/2000/svg" xmlns:xlink="http://www.w3.org/1999/xlink" x="0px" y="0px"
	 viewBox="0 0 980 980" style="enable-background:new 0 0 980 980;" xml:space="preserve">
<style type="text/css">
	.st0{fill:#7B80B4;stroke:#272D63;stroke-width:20;stroke-linecap:round;stroke-linejoin:round;stroke-miterlimit:10;}
	.st1{fill:#FFFFFF;}
	.st2{fill:none;stroke:#272D63;stroke-width:20;stroke-linecap:round;stroke-linejoin:round;stroke-miterlimit:10;}
	.st3{fill:#FFFFFF;stroke:#272D63;stroke-width:20;stroke-linecap:round;stroke-linejoin:round;stroke-miterlimit:10;}
	
		.st4{fill:none;stroke:#272D63;stroke-width:20;stroke-linecap:round;stroke-linejoin:round;stroke-miterlimit:10;stroke-dasharray:23.1594,28.9493;}
	.st5{fill:#272D63;}
	.st6{fill:#7B80B4;}
	.st7{fill:#FFFFFF;stroke:#272D63;stroke-width:20.0121;stroke-linecap:round;stroke-linejoin:round;stroke-miterlimit:10;}
	.st8{fill:#7B80B4;stroke:#272D63;stroke-width:20.0121;stroke-linecap:round;stroke-linejoin:round;stroke-miterlimit:10;}
	.st9{fill:none;stroke:#272D63;stroke-width:20.202;stroke-linecap:round;stroke-linejoin:round;stroke-miterlimit:10;}
	.st10{fill:none;stroke:#272D63;stroke-width:17.5882;stroke-linecap:round;stroke-linejoin:round;stroke-miterlimit:10;}
	.st11{fill:#7B80B4;stroke:#272D63;stroke-width:18.181;stroke-linecap:round;stroke-linejoin:round;stroke-miterlimit:10;}
	
		.st12{fill:none;stroke:#272D63;stroke-width:20;stroke-linecap:round;stroke-linejoin:round;stroke-miterlimit:10;stroke-dasharray:28.0422,35.0527;}
</style>
<g>
	<path class="st3" d="M374.8,705.7l330.1-332.6c48.6,13.5,102.8,1.1,140.8-37.2c38-38.3,50-92.6,36.2-141.1L793.3,284l-76.1-22.9
		l-23.5-75.9L782.2,96c-48.6-13.5-102.8-1.1-140.8,37.2c-38,38.3-50,92.6-36.2,141.1L275.2,606.9c-48.6-13.5-102.8-1.1-140.8,37.2
		c-56,56.4-55.6,147.5,0.8,203.5c56.4,56,147.5,55.6,203.5-0.8C376.6,808.5,388.6,754.1,374.8,705.7z M215.9,823.3l-57.2-56.7
		l20.5-77.9l77.7-21.1l57.2,56.7l-20.5,77.9L215.9,823.3z"/>
	<g>
		<polygon class="st3" points="599.1,542 544.3,597.5 187.8,245.6 135.6,224.2 90,135.2 131,93.7 219.7,139 242.6,190.1 		"/>
		<path class="st0" d="M589.1,431.5L433.1,589.6l267.8,264.6c43.7,43.1,114,42.6,157.1-1l0,0c43.1-43.7,42.6-114-1-157.1
			L589.1,431.5z"/>
		
			<rect x="409.7" y="466.7" transform="matrix(0.7025 -0.7116 0.7116 0.7025 -203.8865 497.1724)" class="st0" width="166.3" height="51.5"/>
		<line class="st3" x1="503.4" y1="566.3" x2="770.9" y2="830.3"/>
		<line class="st3" x1="566.5" y1="502.4" x2="833.9" y2="766.4"/>
	</g>
</g>
</svg>
