<?xml version="1.0" encoding="utf-8"?>
<!-- Generator: Adobe Illustrator 26.0.3, SVG Export Plug-In . SVG Version: 6.00 Build 0)  -->
<svg version="1.1" id="Слой_1" xmlns="http://www.w3.org/2000/svg" xmlns:xlink="http://www.w3.org/1999/xlink" x="0px" y="0px"
	 viewBox="0 0 980 980" style="enable-background:new 0 0 980 980;" xml:space="preserve">
<style type="text/css">
	.st0{fill:#7B80B4;stroke:#272D63;stroke-width:20;stroke-linecap:round;stroke-linejoin:round;stroke-miterlimit:10;}
	.st1{fill:#FFFFFF;}
	.st2{fill:none;stroke:#272D63;stroke-width:20;stroke-linecap:round;stroke-linejoin:round;stroke-miterlimit:10;}
	.st3{fill:#FFFFFF;stroke:#272D63;stroke-width:20;stroke-linecap:round;stroke-linejoin:round;stroke-miterlimit:10;}
	
		.st4{fill:none;stroke:#272D63;stroke-width:20;stroke-linecap:round;stroke-linejoin:round;stroke-miterlimit:10;stroke-dasharray:23.1594,28.9493;}
	.st5{fill:#272D63;}
	.st6{fill:#7B80B4;}
	.st7{fill:#FFFFFF;stroke:#272D63;stroke-width:20.0121;stroke-linecap:round;stroke-linejoin:round;stroke-miterlimit:10;}
	.st8{fill:#7B80B4;stroke:#272D63;stroke-width:20.0121;stroke-linecap:round;stroke-linejoin:round;stroke-miterlimit:10;}
	.st9{fill:none;stroke:#272D63;stroke-width:20.202;stroke-linecap:round;stroke-linejoin:round;stroke-miterlimit:10;}
	.st10{fill:none;stroke:#272D63;stroke-width:17.5882;stroke-linecap:round;stroke-linejoin:round;stroke-miterlimit:10;}
	.st11{fill:#7B80B4;stroke:#272D63;stroke-width:18.181;stroke-linecap:round;stroke-linejoin:round;stroke-miterlimit:10;}
	
		.st12{fill:none;stroke:#272D63;stroke-width:20;stroke-linecap:round;stroke-linejoin:round;stroke-miterlimit:10;stroke-dasharray:28.0422,35.0527;}
</style>
<g>
	<path class="st0" d="M161.4,174.9h319.6c39.7,0,71.8,32.2,71.8,71.8v191.2c0,39.7-32.2,71.8-71.8,71.8H363.1L195.2,646.3
		l-0.3-136.6h-33.5c-39.7,0-71.8-32.2-71.8-71.8V246.7C89.6,207,121.8,174.9,161.4,174.9z"/>
	<line class="st2" x1="167.7" y1="256.7" x2="474.8" y2="256.7"/>
	<line class="st2" x1="167.7" y1="333.7" x2="474.8" y2="333.7"/>
	<line class="st2" x1="167.7" y1="410.6" x2="474.8" y2="410.6"/>
	<path class="st3" d="M818.6,333.7H498.9c-39.7,0-71.8,32.2-71.8,71.8v191.2c0,39.7,32.2,71.8,71.8,71.8h117.9l167.9,136.6
		l0.3-136.6h33.5c39.7,0,71.8-32.2,71.8-71.8V405.5C890.4,365.8,858.2,333.7,818.6,333.7z"/>
	<line class="st2" x1="505.2" y1="417.9" x2="812.3" y2="417.9"/>
	<line class="st2" x1="505.2" y1="494.8" x2="812.3" y2="494.8"/>
	<line class="st2" x1="505.2" y1="571.7" x2="812.3" y2="571.7"/>
</g>
</svg>
