<?xml version="1.0" encoding="utf-8"?>
<!-- Generator: Adobe Illustrator 26.0.3, SVG Export Plug-In . SVG Version: 6.00 Build 0)  -->
<svg version="1.1" id="Слой_1" xmlns="http://www.w3.org/2000/svg" xmlns:xlink="http://www.w3.org/1999/xlink" x="0px" y="0px"
	 viewBox="0 0 980 980" style="enable-background:new 0 0 980 980;" xml:space="preserve">
<style type="text/css">
	.st0{fill:#7B80B4;stroke:#272D63;stroke-width:20;stroke-linecap:round;stroke-linejoin:round;stroke-miterlimit:10;}
	.st1{fill:#FFFFFF;}
	.st2{fill:none;stroke:#272D63;stroke-width:20;stroke-linecap:round;stroke-linejoin:round;stroke-miterlimit:10;}
	.st3{fill:#FFFFFF;stroke:#272D63;stroke-width:20;stroke-linecap:round;stroke-linejoin:round;stroke-miterlimit:10;}
	
		.st4{fill:none;stroke:#272D63;stroke-width:20;stroke-linecap:round;stroke-linejoin:round;stroke-miterlimit:10;stroke-dasharray:23.1594,28.9493;}
	.st5{fill:#272D63;}
	.st6{fill:#7B80B4;}
	.st7{fill:#FFFFFF;stroke:#272D63;stroke-width:20.0121;stroke-linecap:round;stroke-linejoin:round;stroke-miterlimit:10;}
	.st8{fill:#7B80B4;stroke:#272D63;stroke-width:20.0121;stroke-linecap:round;stroke-linejoin:round;stroke-miterlimit:10;}
	.st9{fill:none;stroke:#272D63;stroke-width:20.202;stroke-linecap:round;stroke-linejoin:round;stroke-miterlimit:10;}
	.st10{fill:none;stroke:#272D63;stroke-width:17.5882;stroke-linecap:round;stroke-linejoin:round;stroke-miterlimit:10;}
	.st11{fill:#7B80B4;stroke:#272D63;stroke-width:18.181;stroke-linecap:round;stroke-linejoin:round;stroke-miterlimit:10;}
	
		.st12{fill:none;stroke:#272D63;stroke-width:20;stroke-linecap:round;stroke-linejoin:round;stroke-miterlimit:10;stroke-dasharray:28.0422,35.0527;}
</style>
<g>
	<g id="XMLID_00000155839237326633821600000014192323070013678226_">
		<g>
			<path class="st1" d="M233.6,481.2c-22.1,0-36.8-18.6-36.8-18.6v-49l0.3-0.7c11,5.3,23.4,8.3,36.4,8.3s25.4-3,36.4-8.3l0.3,0.7v49
				C270.4,462.7,255.4,481.2,233.6,481.2z"/>
			<path class="st1" d="M187.9,259.7c0,0,63.7,50.4,128.9,36.1c0,0,0.1,0,0.3,0l0,0.4v41.6c0,4.2-0.3,8.3-0.9,12.4
				c-4.1,27.7-21.8,51-46.2,62.8c-11,5.3-23.4,8.3-36.4,8.3s-25.4-3-36.4-8.3c-24.3-11.8-42.1-35.1-46.2-62.8
				c-0.6-4-0.9-8.2-0.9-12.4v-41.5c0.2,0,0.3,0,0.3,0C153.4,295.4,175.1,276.1,187.9,259.7z"/>
			<path class="st1" d="M196.8,462.7c0,0,14.7,18.6,36.8,18.6c21.8,0,36.8-18.6,36.8-18.6s53.3,21.6,70,27.7
				c22,8.1,37.6,27.7,37.6,51.1c0,11.6,0,129.2,0,129.2H90c0,0,0-117.7,0-129.3c0-23.4,15.5-43,37.5-51.1
				C144.1,484.2,196.8,462.7,196.8,462.7z"/>
			<path class="st1" d="M317.1,337.8v-41.6l0-0.4c2.2,0.1,14.2,0.6,14.2,0.6h1.1c8.1,0,14.6,6.7,14.3,14.8l-1,25.4
				c-0.3,7.7-6.6,13.7-14.3,13.7h-13.4l-1.9-0.3C316.8,346.1,317.1,342,317.1,337.8z"/>
			<path class="st1" d="M150.1,296.4v41.5c0,4.2,0.3,8.3,0.9,12.4l-1.6,0.2h-14.1c-7.7,0-14-6-14.3-13.7l-1-25.4
				c-0.3-8.1,6.2-14.8,14.3-14.8h12.5v-0.1C148.2,296.4,149.5,296.4,150.1,296.4z"/>
			<path class="st6" d="M150.1,296.4c-0.6,0-1.8,0-3.3,0c-4.1,0-10.1,0-10.1,0v-44.9c0-43.5,35.3-78.8,78.9-78.8h37
				c43.5,0,78.8,49.4,78.8,93v30.8c0,0-12-0.6-14.2-0.6c-0.2,0-0.3,0-0.3,0c-65.1,14.3-128.9-36.1-128.9-36.1
				c-12.8,16.4-34.6,35.7-37.5,36.6C150.4,296.3,150.3,296.3,150.1,296.4z"/>
		</g>
		<g>
			<path class="st9" d="M317.1,296.2v41.6c0,4.2-0.3,8.3-0.9,12.4c-4.1,27.7-21.8,51-46.2,62.8c-11,5.3-23.4,8.3-36.4,8.3
				s-25.4-3-36.4-8.3c-24.3-11.8-42.1-35.1-46.2-62.8c-0.6-4-0.9-8.2-0.9-12.4v-41.5"/>
			<path class="st9" d="M149.3,296.4h-2.6h-12.5c-8.1,0-14.6,6.7-14.3,14.8l1,25.4c0.3,7.7,6.6,13.7,14.3,13.7h14.1"/>
			<path class="st9" d="M318.1,296.4h13.3h1.1c8.1,0,14.6,6.7,14.3,14.8l-1,25.4c-0.3,7.7-6.6,13.7-14.3,13.7h-13.4"/>
			<path class="st9" d="M146.7,296.4c-4.1,0-10.1,0-10.1,0v-44.9c0-43.5,35.3-78.8,78.9-78.8h37c43.5,0,78.8,35.3,78.8,78.8v45
				c0,0-12-0.6-14.2-0.6c-0.2,0-0.3,0-0.3,0c-65.1,14.3-128.9-36.1-128.9-36.1c-12.8,16.4-34.6,35.7-37.5,36.6c0,0-0.1,0-0.3,0
				C149.5,296.4,148.2,296.4,146.7,296.4z"/>
			<path class="st9" d="M270.4,413.7v49c0,0-15,18.6-36.8,18.6c-22.1,0-36.8-18.6-36.8-18.6v-49"/>
			<path class="st9" d="M196.8,462.7c0,0-37,14.3-69.3,27.6C105.9,499.2,90,518,90,541.4c0,11.6,0,129.3,0,129.3h288
				c0,0,0-117.6,0-129.2c0-23.4-15.9-42.3-37.6-51.1c-33.7-13.8-70-27.7-70-27.7"/>
		</g>
		<line class="st10" x1="142.4" y1="599.6" x2="142.4" y2="668.8"/>
		<line class="st10" x1="324.8" y1="599.6" x2="324.8" y2="668.8"/>
	</g>
	<g id="XMLID_00000113349973665433764370000016170638841989521074_">
		<g>
			<path class="st1" d="M745.6,481.2c-22.1,0-36.8-18.6-36.8-18.6v-49l0.3-0.7c11,5.3,23.4,8.3,36.4,8.3s25.4-3,36.4-8.3l0.3,0.7v49
				C782.4,462.7,767.4,481.2,745.6,481.2z"/>
			<path class="st1" d="M699.9,259.7c0,0,63.7,50.4,128.9,36.1c0,0,0.1,0,0.3,0l0,0.4v41.6c0,4.2-0.3,8.3-0.9,12.4
				c-4.1,27.7-21.8,51-46.2,62.8c-11,5.3-23.4,8.3-36.4,8.3s-25.4-3-36.4-8.3c-24.3-11.8-42.1-35.1-46.2-62.8
				c-0.6-4-0.9-8.2-0.9-12.4v-41.5c0.2,0,0.3,0,0.3,0C665.4,295.4,687.1,276.1,699.9,259.7z"/>
			<path class="st1" d="M708.8,462.7c0,0,14.7,18.6,36.8,18.6c21.8,0,36.8-18.6,36.8-18.6s53.3,21.6,70,27.7
				c22,8.1,37.6,27.7,37.6,51.1c0,11.6-0.4,129.2-0.4,129.2h-288c0,0,0.4-117.7,0.4-129.3c0-23.4,15.5-43,37.5-51.1
				C656.1,484.2,708.8,462.7,708.8,462.7z"/>
			<path class="st1" d="M829.1,337.8v-41.6l0-0.4c2.2,0.1,14.2,0.6,14.2,0.6h1.1c8.1,0,14.6,6.7,14.3,14.8l-1,25.4
				c-0.3,7.7-6.6,13.7-14.3,13.7h-13.4l-1.9-0.3C828.8,346.1,829.1,342,829.1,337.8z"/>
			<path class="st1" d="M662.1,296.4v41.5c0,4.2,0.3,8.3,0.9,12.4l-1.6,0.2h-14.1c-7.7,0-14-6-14.3-13.7l-1-25.4
				c-0.3-8.1,6.2-14.8,14.3-14.8h12.5v-0.1C660.3,296.4,661.5,296.4,662.1,296.4z"/>
			<path class="st6" d="M662.1,296.4c-0.6,0-1.8,0-3.3,0c-4.1,0-10.1,0-10.1,0v-44.9c0-43.5,35.3-78.8,78.9-78.8h37
				c43.5,0,78.8,49.4,78.8,93v30.8c0,0-12-0.6-14.2-0.6c-0.2,0-0.3,0-0.3,0c-65.1,14.3-128.9-36.1-128.9-36.1
				c-12.8,16.4-34.6,35.7-37.5,36.6C662.4,296.3,662.3,296.3,662.1,296.4z"/>
		</g>
		<g>
			<path class="st9" d="M829.1,296.2v41.6c0,4.2-0.3,8.3-0.9,12.4c-4.1,27.7-21.8,51-46.2,62.8c-11,5.3-23.4,8.3-36.4,8.3
				s-25.4-3-36.4-8.3c-24.3-11.8-42.1-35.1-46.2-62.8c-0.6-4-0.9-8.2-0.9-12.4v-41.5"/>
			<path class="st9" d="M661.3,296.4h-2.6h-12.5c-8.1,0-14.6,6.7-14.3,14.8l1,25.4c0.3,7.7,6.6,13.7,14.3,13.7h14.1"/>
			<path class="st9" d="M830.1,296.4h13.3h1.1c8.1,0,14.6,6.7,14.3,14.8l-1,25.4c-0.3,7.7-6.6,13.7-14.3,13.7h-13.4"/>
			<path class="st9" d="M658.7,296.4c-4.1,0-10.1,0-10.1,0v-44.9c0-43.5,35.3-78.8,78.9-78.8h37c43.5,0,78.8,35.3,78.8,78.8v45
				c0,0-12-0.6-14.2-0.6c-0.2,0-0.3,0-0.3,0c-65.1,14.3-128.9-36.1-128.9-36.1c-12.8,16.4-34.6,35.7-37.5,36.6c0,0-0.1,0-0.3,0
				C661.5,296.4,660.3,296.4,658.7,296.4z"/>
			<path class="st9" d="M782.4,413.7v49c0,0-15,18.6-36.8,18.6c-22.1,0-36.8-18.6-36.8-18.6v-49"/>
			<path class="st9" d="M708.8,462.7c0,0-37,14.3-69.3,27.6c-21.6,8.9-37.5,27.7-37.5,51.1c0,11.6,0,129.3,0,129.3h288
				c0,0,0-117.6,0-129.2c0-23.4-15.9-42.3-37.6-51.1c-33.7-13.8-70-27.7-70-27.7"/>
		</g>
		<line class="st10" x1="654.4" y1="597.4" x2="654.4" y2="666.7"/>
		<line class="st10" x1="836.8" y1="597.4" x2="836.8" y2="666.7"/>
	</g>
	<g id="XMLID_00000166640902727282721090000007706815810686420658_">
		<g>
			<path class="st1" d="M490,597.4c-26.4,0-43.8-22.2-43.8-22.2v-58.4l0.4-0.8c13.1,6.4,27.9,9.9,43.4,9.9s30.3-3.6,43.4-9.9
				l0.4,0.8v58.4C533.8,575.3,516,597.4,490,597.4z"/>
			<path class="st1" d="M435.6,333.3c0,0,76,60.1,153.6,43c0,0,0.2,0,0.4,0l0,0.4v49.6c0,5-0.4,9.9-1.1,14.7
				c-4.9,33.1-26,60.8-55.1,74.9c-13.1,6.4-27.9,9.9-43.4,9.9s-30.3-3.6-43.4-9.9c-29-14.1-50.2-41.8-55.1-74.9
				c-0.7-4.8-1.1-9.7-1.1-14.8V377c0.2,0,0.4,0,0.4,0C394.3,375.9,420.3,352.9,435.6,333.3z"/>
			<path class="st1" d="M446.2,575.3c0,0,17.5,22.2,43.8,22.2c26,0,43.8-22.2,43.8-22.2s63.5,25.7,83.5,33c26.2,9.6,44.8,33,44.8,61
				c0,13.8,0,133.1,0,133.1H318.8c0,0,0-119.4,0-133.2c0-27.9,18.5-51.3,44.7-60.9C383.3,600.9,446.2,575.3,446.2,575.3z"/>
			<path class="st1" d="M589.6,426.4v-49.6l0-0.4c2.6,0.1,16.9,0.8,16.9,0.8h1.4c9.7,0,17.4,8,17,17.7l-1.2,30.3
				c-0.4,9.1-7.9,16.3-17,16.3h-16l-2.2-0.3C589.2,436.4,589.6,431.4,589.6,426.4z"/>
			<path class="st1" d="M390.4,377v49.4c0,5,0.4,10,1.1,14.8l-2,0.3h-16.8c-9.1,0-16.6-7.2-17-16.3l-1.2-30.3
				c-0.4-9.7,7.3-17.7,17-17.7h14.9V377C388.2,377,389.7,377,390.4,377z"/>
			<path class="st6" d="M390.4,377c-0.7,0-2.2,0-4,0c-4.9,0-12,0-12,0v-36.6c0-51.9,42.1-108.1,94-108.1h44.1
				c51.9,0,94,56.2,94,108.1v36.7c0,0-14.3-0.7-16.9-0.8c-0.2,0-0.4,0-0.4,0c-77.6,17.1-153.6-43-153.6-43
				c-15.3,19.5-41.2,42.6-44.8,43.6C390.8,377,390.7,377,390.4,377z"/>
		</g>
		<g>
			<path class="st9" d="M589.6,376.8v49.6c0,5-0.4,9.9-1.1,14.7c-4.9,33.1-26,60.8-55.1,74.9c-13.1,6.4-27.9,9.9-43.4,9.9
				s-30.3-3.6-43.4-9.9c-29-14.1-50.2-41.8-55.1-74.9c-0.7-4.8-1.1-9.7-1.1-14.8V377"/>
			<path class="st9" d="M389.6,377.1h-3.1h-14.9c-9.7,0-17.4,8-17,17.7l1.2,30.3c0.4,9.1,7.9,16.3,17,16.3h16.8"/>
			<path class="st9" d="M590.7,377.1h15.8h1.4c9.7,0,17.4,8,17,17.7l-1.2,30.3c-0.4,9.1-7.9,16.3-17,16.3h-16"/>
			<path class="st9" d="M386.5,377c-4.9,0-12,0-12,0v-50.8c0-51.9,42.1-94,94-94h44.1c51.9,0,94,42.1,94,94v50.9
				c0,0-14.3-0.7-16.9-0.8c-0.2,0-0.4,0-0.4,0c-77.6,17.1-153.6-43-153.6-43c-15.3,19.5-41.2,42.6-44.8,43.6c0,0-0.2,0-0.4,0
				C389.7,377,388.2,377,386.5,377z"/>
			<path class="st9" d="M533.8,516.9v58.4c0,0-17.8,22.2-43.8,22.2c-26.4,0-43.8-22.2-43.8-22.2v-58.4"/>
			<path class="st9" d="M446.2,575.3c0,0-44.1,17-82.7,33c-25.8,10.6-44.7,33-44.7,60.9c0,13.8,0,138.2,0,138.2h343.3
				c0,0,0-124.3,0-138.1c0-27.9-19-50.4-44.8-61c-40.2-16.5-83.5-33-83.5-33"/>
		</g>
		<line class="st9" x1="385.8" y1="727.8" x2="385.8" y2="807.4"/>
		<line class="st9" x1="595.2" y1="727.8" x2="595.2" y2="807.4"/>
	</g>
</g>
</svg>
