<?xml version="1.0" encoding="utf-8"?>
<!-- Generator: Adobe Illustrator 26.0.3, SVG Export Plug-In . SVG Version: 6.00 Build 0)  -->
<svg version="1.1" id="Слой_1" xmlns="http://www.w3.org/2000/svg" xmlns:xlink="http://www.w3.org/1999/xlink" x="0px" y="0px"
	 viewBox="0 0 980 980" style="enable-background:new 0 0 980 980;" xml:space="preserve">
<style type="text/css">
	.st0{fill:#7B80B4;stroke:#272D63;stroke-width:20;stroke-linecap:round;stroke-linejoin:round;stroke-miterlimit:10;}
	.st1{fill:#FFFFFF;}
	.st2{fill:none;stroke:#272D63;stroke-width:20;stroke-linecap:round;stroke-linejoin:round;stroke-miterlimit:10;}
	.st3{fill:#FFFFFF;stroke:#272D63;stroke-width:20;stroke-linecap:round;stroke-linejoin:round;stroke-miterlimit:10;}
	
		.st4{fill:none;stroke:#272D63;stroke-width:20;stroke-linecap:round;stroke-linejoin:round;stroke-miterlimit:10;stroke-dasharray:23.1594,28.9493;}
	.st5{fill:#272D63;}
	.st6{fill:#7B80B4;}
	.st7{fill:#FFFFFF;stroke:#272D63;stroke-width:20.0121;stroke-linecap:round;stroke-linejoin:round;stroke-miterlimit:10;}
	.st8{fill:#7B80B4;stroke:#272D63;stroke-width:20.0121;stroke-linecap:round;stroke-linejoin:round;stroke-miterlimit:10;}
	.st9{fill:none;stroke:#272D63;stroke-width:20.202;stroke-linecap:round;stroke-linejoin:round;stroke-miterlimit:10;}
	.st10{fill:none;stroke:#272D63;stroke-width:17.5882;stroke-linecap:round;stroke-linejoin:round;stroke-miterlimit:10;}
	.st11{fill:#7B80B4;stroke:#272D63;stroke-width:18.181;stroke-linecap:round;stroke-linejoin:round;stroke-miterlimit:10;}
	
		.st12{fill:none;stroke:#272D63;stroke-width:20;stroke-linecap:round;stroke-linejoin:round;stroke-miterlimit:10;stroke-dasharray:28.0422,35.0527;}
</style>
<g>
	<path class="st3" d="M833.2,860.9H284.8c-29.1,0-52.7-23.6-52.7-52.7V150.1c0-29.1,23.6-52.7,52.7-52.7h548.4
		c29.1,0,52.7,23.6,52.7,52.7v658.1C885.9,837.3,862.3,860.9,833.2,860.9z"/>
	<path class="st3" d="M791.6,897.4H243.2c-29.1,0-52.7-23.6-52.7-52.7V186.6c0-29.1,23.6-52.7,52.7-52.7h548.4
		c29.1,0,52.7,23.6,52.7,52.7v658.1C844.3,873.8,820.7,897.4,791.6,897.4z"/>
	<g>
		<path class="st0" d="M712,715.7c0-108.7-78.1-196.8-174.4-196.8S363.2,607,363.2,715.7H712z"/>
		<circle class="st0" cx="537.6" cy="417.3" r="101.6"/>
	</g>
	<path class="st0" d="M267.2,251.5h-113c-10.7,0-19.4-8.7-19.4-19.4v-7.7c0-10.7,8.7-19.4,19.4-19.4h113c10.7,0,19.4,8.7,19.4,19.4
		v7.7C286.5,242.8,277.9,251.5,267.2,251.5z"/>
	<path class="st0" d="M267.2,832.1h-113c-10.7,0-19.4-8.7-19.4-19.4V805c0-10.7,8.7-19.4,19.4-19.4h113c10.7,0,19.4,8.7,19.4,19.4
		v7.7C286.5,823.4,277.9,832.1,267.2,832.1z"/>
	<path class="st0" d="M267.2,686.9h-113c-10.7,0-19.4-8.7-19.4-19.4v-7.7c0-10.7,8.7-19.4,19.4-19.4h113c10.7,0,19.4,8.7,19.4,19.4
		v7.7C286.5,678.2,277.9,686.9,267.2,686.9z"/>
	<path class="st0" d="M267.2,396.6h-113c-10.7,0-19.4-8.7-19.4-19.4v-7.7c0-10.7,8.7-19.4,19.4-19.4h113c10.7,0,19.4,8.7,19.4,19.4
		v7.7C286.5,387.9,277.9,396.6,267.2,396.6z"/>
	<path class="st0" d="M267.2,541.8h-113c-10.7,0-19.4-8.7-19.4-19.4v-7.7c0-10.7,8.7-19.4,19.4-19.4h113c10.7,0,19.4,8.7,19.4,19.4
		v7.7C286.5,533.1,277.9,541.8,267.2,541.8z"/>
</g>
</svg>
