<?xml version="1.0" encoding="utf-8"?>
<!-- Generator: Adobe Illustrator 26.0.3, SVG Export Plug-In . SVG Version: 6.00 Build 0)  -->
<svg version="1.1" id="Слой_1" xmlns="http://www.w3.org/2000/svg" xmlns:xlink="http://www.w3.org/1999/xlink" x="0px" y="0px"
	 viewBox="0 0 980 980" style="enable-background:new 0 0 980 980;" xml:space="preserve">
<style type="text/css">
	.st0{fill:none;stroke:#1D1D1B;stroke-width:7;stroke-linecap:round;stroke-linejoin:round;stroke-miterlimit:10;}
	.st1{fill:none;stroke:#272D63;stroke-width:15;stroke-linecap:round;stroke-linejoin:round;stroke-miterlimit:10;}
	.st2{fill:#7B80B4;stroke:#272D63;stroke-width:5.3954;stroke-linecap:round;stroke-linejoin:round;stroke-miterlimit:10;}
	.st3{fill:#FFFFFF;}
	.st4{fill:none;stroke:#272D63;stroke-width:5.3954;stroke-linecap:round;stroke-linejoin:round;stroke-miterlimit:10;}
	.st5{fill:#7B80B4;stroke:#272D63;stroke-width:12;stroke-linecap:round;stroke-linejoin:round;stroke-miterlimit:10;}
	.st6{fill:none;stroke:#272D63;stroke-width:12;stroke-linecap:round;stroke-linejoin:round;stroke-miterlimit:10;}
	.st7{fill:#FFFFFF;stroke:#272D63;stroke-width:12;stroke-linecap:round;stroke-linejoin:round;stroke-miterlimit:10;}
	
		.st8{fill:none;stroke:#272D63;stroke-width:12;stroke-linecap:round;stroke-linejoin:round;stroke-miterlimit:10;stroke-dasharray:23.1594,28.9493;}
	.st9{fill:#272D63;}
	.st10{fill:#7B80B4;}
	.st11{fill:#7B80B4;stroke:#272D63;stroke-width:20;stroke-linecap:round;stroke-linejoin:round;stroke-miterlimit:10;}
	.st12{fill:none;stroke:#272D63;stroke-width:20;stroke-linecap:round;stroke-linejoin:round;stroke-miterlimit:10;}
	.st13{fill:#FFFFFF;stroke:#272D63;stroke-width:20;stroke-linecap:round;stroke-linejoin:round;stroke-miterlimit:10;}
	
		.st14{fill:none;stroke:#272D63;stroke-width:20;stroke-linecap:round;stroke-linejoin:round;stroke-miterlimit:10;stroke-dasharray:23.1594,28.9493;}
	.st15{fill:#FFFFFF;stroke:#272D63;stroke-width:20.0121;stroke-linecap:round;stroke-linejoin:round;stroke-miterlimit:10;}
	.st16{fill:#7B80B4;stroke:#272D63;stroke-width:20.0121;stroke-linecap:round;stroke-linejoin:round;stroke-miterlimit:10;}
</style>
<g>
	<g>
		<path class="st11" d="M725.5,652h-471c-13.3,0-24.1-10.8-24.1-24.1V352.2c0-13.3,10.8-24.1,24.1-24.1h471
			c13.3,0,24.1,10.8,24.1,24.1v275.6C749.6,641.1,738.8,652,725.5,652z"/>
		<path class="st12" d="M238.7,335.4l232.5,205.7c10.1,8.9,25.2,9,35.3,0.1l234.7-205.8"/>
		<line class="st13" x1="238.7" y1="644.6" x2="413.2" y2="489.7"/>
		<line class="st13" x1="566" y1="489.7" x2="741.3" y2="644.6"/>
	</g>
	<g>
		<path class="st12" d="M90,490C90,269.1,269.1,90,490,90c149.7,0,278.2,80.3,346.8,202.1"/>
		<path class="st12" d="M890,490c0,220.9-179.1,400-400,400c-145.7,0-273-75.2-343-191.6"/>
		<polyline class="st12" points="691.7,275.3 836.8,292.1 861.5,148.1 		"/>
		<polyline class="st12" points="124.5,842.7 147,698.4 292.4,713 		"/>
	</g>
</g>
</svg>
