<?xml version="1.0" encoding="utf-8"?>
<!-- Generator: Adobe Illustrator 26.0.3, SVG Export Plug-In . SVG Version: 6.00 Build 0)  -->
<svg version="1.1" id="Слой_1" xmlns="http://www.w3.org/2000/svg" xmlns:xlink="http://www.w3.org/1999/xlink" x="0px" y="0px"
	 viewBox="0 0 980 980" style="enable-background:new 0 0 980 980;" xml:space="preserve">
<style type="text/css">
	.st0{fill:none;stroke:#1D1D1B;stroke-width:7;stroke-linecap:round;stroke-linejoin:round;stroke-miterlimit:10;}
	.st1{fill:none;stroke:#272D63;stroke-width:15;stroke-linecap:round;stroke-linejoin:round;stroke-miterlimit:10;}
	.st2{fill:#7B80B4;stroke:#272D63;stroke-width:5.3954;stroke-linecap:round;stroke-linejoin:round;stroke-miterlimit:10;}
	.st3{fill:#FFFFFF;}
	.st4{fill:none;stroke:#272D63;stroke-width:5.3954;stroke-linecap:round;stroke-linejoin:round;stroke-miterlimit:10;}
	.st5{fill:#7B80B4;stroke:#272D63;stroke-width:12;stroke-linecap:round;stroke-linejoin:round;stroke-miterlimit:10;}
	.st6{fill:none;stroke:#272D63;stroke-width:12;stroke-linecap:round;stroke-linejoin:round;stroke-miterlimit:10;}
	.st7{fill:#FFFFFF;stroke:#272D63;stroke-width:12;stroke-linecap:round;stroke-linejoin:round;stroke-miterlimit:10;}
	
		.st8{fill:none;stroke:#272D63;stroke-width:12;stroke-linecap:round;stroke-linejoin:round;stroke-miterlimit:10;stroke-dasharray:23.1594,28.9493;}
	.st9{fill:#272D63;}
	.st10{fill:#7B80B4;}
	.st11{fill:#7B80B4;stroke:#272D63;stroke-width:20;stroke-linecap:round;stroke-linejoin:round;stroke-miterlimit:10;}
	.st12{fill:none;stroke:#272D63;stroke-width:20;stroke-linecap:round;stroke-linejoin:round;stroke-miterlimit:10;}
	.st13{fill:#FFFFFF;stroke:#272D63;stroke-width:20;stroke-linecap:round;stroke-linejoin:round;stroke-miterlimit:10;}
	
		.st14{fill:none;stroke:#272D63;stroke-width:20;stroke-linecap:round;stroke-linejoin:round;stroke-miterlimit:10;stroke-dasharray:23.1594,28.9493;}
	.st15{fill:#FFFFFF;stroke:#272D63;stroke-width:20.0121;stroke-linecap:round;stroke-linejoin:round;stroke-miterlimit:10;}
	.st16{fill:#7B80B4;stroke:#272D63;stroke-width:20.0121;stroke-linecap:round;stroke-linejoin:round;stroke-miterlimit:10;}
</style>
<g>
	<g id="XMLID_00000120519800431372580330000008271278184642814616_">
		<g>
			<path class="st3" d="M339.9,518.3c-30.9,0-51.5-26-51.5-26v-68.5l0.5-0.9c15.4,7.5,32.7,11.7,51,11.7s35.6-4.2,51-11.7l0.5,0.9
				v68.5C391.3,492.3,370.4,518.3,339.9,518.3z"/>
			<path class="st3" d="M276,208.4c0,0,89.2,70.5,180.3,50.5c0,0,0.2,0,0.5,0l0,0.5v58.3c0,5.9-0.4,11.7-1.3,17.3
				c-5.7,38.8-30.6,71.4-64.6,87.9c-15.4,7.5-32.7,11.7-51,11.7s-35.6-4.2-51-11.7c-34-16.5-58.9-49.1-64.6-87.9
				c-0.8-5.6-1.3-11.4-1.3-17.3v-58c0.3,0,0.4,0,0.5,0C227.6,258.3,258.1,231.3,276,208.4z"/>
			<path class="st3" d="M288.4,492.3c0,0,20.5,26,51.5,26c30.5,0,51.4-26,51.4-26l92,28.8c31.3,9.8,52.6,38.8,52.6,71.5v74.9H145
				v-75c0-32.7,21.2-61.7,52.4-71.5L288.4,492.3z"/>
			<path class="st3" d="M456.8,317.6v-58.3l0-0.5c3,0.1,19.9,0.9,19.9,0.9h4.6c11.3,0,20.4,9.4,19.9,20.8l-1.4,35.6
				c-0.4,10.7-9.2,19.2-19.9,19.2h-21.8l-2.6-0.4C456.3,329.3,456.8,323.5,456.8,317.6z"/>
			<path class="st3" d="M223,259.6v58c0,5.9,0.4,11.7,1.3,17.3l-2.3,0.3h-21.8c-10.7,0-19.5-8.5-20-19.2l-1.4-35.6
				c-0.5-11.3,8.6-20.8,19.9-20.8h19.5v-0.1C220.5,259.7,222.2,259.6,223,259.6z"/>
			<path class="st10" d="M223,259.6c-0.8,0-2.5,0-4.6,0c-5.7,0-14.1,0-14.1,0v-43c0-60.9,49.4-110.3,110.3-110.3h51.7
				c60.9,0,110.3,49.4,110.3,110.3v43.1c0,0-16.8-0.8-19.9-0.9c-0.3,0-0.5,0-0.5,0C365.2,278.9,276,208.4,276,208.4
				c-17.9,22.9-48.4,49.9-52.5,51.2C223.5,259.6,223.3,259.6,223,259.6z"/>
		</g>
		<g>
			<path class="st12" d="M456.8,259.4v58.3c0,5.9-0.4,11.7-1.3,17.3c-5.7,38.8-30.6,71.4-64.6,87.9c-15.4,7.5-32.7,11.7-51,11.7
				s-35.6-4.2-51-11.7c-34-16.5-58.9-49.1-64.6-87.9c-0.8-5.6-1.3-11.4-1.3-17.3v-58"/>
			<path class="st12" d="M222,259.8h-3.6h-19.5c-11.3,0-20.4,9.4-19.9,20.8l1.4,35.6c0.4,10.7,9.2,19.2,20,19.2H222"/>
			<path class="st12" d="M458.1,259.8h18.6h4.6c11.3,0,20.4,9.4,19.9,20.8l-1.4,35.6c-0.4,10.7-9.2,19.2-19.9,19.2h-21.8"/>
			<path class="st12" d="M218.4,259.7c-5.7,0-14.1,0-14.1,0v-43c0-60.9,49.4-110.3,110.3-110.3h51.7c60.9,0,110.3,49.4,110.3,110.3
				v43.1c0,0-16.8-0.8-19.9-0.9c-0.3,0-0.5,0-0.5,0C365.2,278.9,276,208.4,276,208.4c-17.9,22.9-48.4,49.9-52.5,51.2
				c0,0-0.2,0-0.5,0C222.2,259.6,220.5,259.7,218.4,259.7z"/>
			<path class="st12" d="M391.3,423.8v68.5c0,0-20.9,26-51.4,26c-30.9,0-51.5-26-51.5-26v-68.5"/>
			<path class="st12" d="M288.4,492.3l-91,28.7c-31.2,9.8-52.4,38.8-52.4,71.5v75h391v-74.9c0-32.8-21.3-61.8-52.6-71.5l-92-28.8"/>
		</g>
	</g>
	<path class="st12" d="M339.9,518.3l-34,48.9c0,0-41.6-22.4-62.1-60.8"/>
	<path class="st12" d="M339.9,518.3l34,48.9c0,0,40.3-18.6,62.1-60.8"/>
	<rect x="62.5" y="667.5" class="st11" width="555.9" height="68"/>
	<rect x="91.4" y="735.5" class="st11" width="498.1" height="138.2"/>
	<path class="st13" d="M611.1,217.6v34.1L510.9,366.9l100.1-17.1v0c0,28.4,23,51.5,51.5,51.5H866c28.4,0,51.5-23,51.5-51.5V217.6
		c0-28.4-23-51.5-51.5-51.5H662.5C634.1,166.1,611.1,189.2,611.1,217.6z"/>
	<circle class="st9" cx="680.1" cy="285.9" r="21.7"/>
	<circle class="st9" cx="758.6" cy="285.9" r="21.7"/>
	<circle class="st9" cx="837.2" cy="285.9" r="21.7"/>
</g>
</svg>
