<?xml version="1.0" encoding="utf-8"?>
<!-- Generator: Adobe Illustrator 26.0.3, SVG Export Plug-In . SVG Version: 6.00 Build 0)  -->
<svg version="1.1" id="Слой_1" xmlns="http://www.w3.org/2000/svg" xmlns:xlink="http://www.w3.org/1999/xlink" x="0px" y="0px"
	 viewBox="0 0 980 980" style="enable-background:new 0 0 980 980;" xml:space="preserve">
<style type="text/css">
	.st0{fill:none;stroke:#1D1D1B;stroke-width:7;stroke-linecap:round;stroke-linejoin:round;stroke-miterlimit:10;}
	.st1{fill:none;stroke:#272D63;stroke-width:15;stroke-linecap:round;stroke-linejoin:round;stroke-miterlimit:10;}
	.st2{fill:#7B80B4;stroke:#272D63;stroke-width:5.3954;stroke-linecap:round;stroke-linejoin:round;stroke-miterlimit:10;}
	.st3{fill:#FFFFFF;}
	.st4{fill:none;stroke:#272D63;stroke-width:5.3954;stroke-linecap:round;stroke-linejoin:round;stroke-miterlimit:10;}
	.st5{fill:#7B80B4;stroke:#272D63;stroke-width:12;stroke-linecap:round;stroke-linejoin:round;stroke-miterlimit:10;}
	.st6{fill:none;stroke:#272D63;stroke-width:12;stroke-linecap:round;stroke-linejoin:round;stroke-miterlimit:10;}
	.st7{fill:#FFFFFF;stroke:#272D63;stroke-width:12;stroke-linecap:round;stroke-linejoin:round;stroke-miterlimit:10;}
	
		.st8{fill:none;stroke:#272D63;stroke-width:12;stroke-linecap:round;stroke-linejoin:round;stroke-miterlimit:10;stroke-dasharray:23.1594,28.9493;}
	.st9{fill:#272D63;}
	.st10{fill:#7B80B4;}
</style>
<g>
	<g>
		<path class="st5" d="M813.7,94.5c0,0,30.9,21.6,73.5,94.6c40.4,69.1,46.3,110.5,46.3,110.5L870,336.8c-6.1,3.5-13.7,2.9-19-1.7
			c-13.2-11.3-38.7-37-67.1-85.5c-28.7-49.2-38.4-83.6-41.7-100.4c-1.3-6.9,1.8-13.9,7.9-17.4L813.7,94.5z"/>
		<path class="st3" d="M485.9,464.8l-35.1,18c-3.8,2-7.9,2.9-12,2.9c-9.1,0-17.9-4.7-22.7-13.1c-7.1-12.4-3.1-28.2,9.2-35.5
			l33.4-20.1l-23.1,11.4c-3.5,1.7-7.2,2.5-10.9,2.5c-8.5,0-16.8-4.5-21.4-12.3c-6.6-11.4-3-26,8.1-33.1l53-33.9l-24.9,12.1
			c-3.1,1.5-6.4,2.2-9.6,2.2c-7.7,0-15.1-4-19.2-11c-5.6-9.8-3-22.2,6.1-28.9c38.7-28.4,137.2-98.3,166.3-111.6
			c32.6-14.9,64.1-13.4,81.8-10.6c10.1,1.6,20.4-0.4,29.1-5.8l69.9-42.8c0,0,25.1,6.6,63.3,72.8c36.9,63.9,31.4,91.2,31.4,91.2
			s-50.1,28.7-70.1,40.3c-15,8.7-17.1,12.7-17.5,30.6c-1,38.9-21.5,73.5-42.4,92c-24.3,21.6-57.6,63-61.2,63.8
			c-9.7,2-28-9.3-30-24.8c-2-15.5,7.9-32.5,28-60.9c4.2-5.9,6.4-11.1,7.7-15.2c2-6.4-4.8-12-10.8-9L494.1,519
			c-3.5,1.7-7.2,2.5-10.9,2.5c-8.6,0-16.8-4.5-21.4-12.4c-6.5-11.3-3.1-25.7,7.7-32.9l16.6-11.1L485.9,464.8z"/>
		<path class="st6" d="M537.5,304.9l-72.9,46.7l-53,33.9c-11.1,7.1-14.7,21.7-8.1,33.1c4.5,7.9,12.8,12.3,21.4,12.3
			c3.7,0,7.4-0.8,10.9-2.5l23.1-11.4l1.1-0.5"/>
		<path class="st6" d="M557,357.9L458.8,417l-33.4,20.1c-12.2,7.4-16.3,23.2-9.2,35.5c4.8,8.4,13.6,13.1,22.7,13.1
			c4,0,8.1-0.9,12-2.9l35.1-18l102.4-52.6"/>
		<path class="st6" d="M486.1,465.2l-16.6,11.1c-10.9,7.2-14.2,21.6-7.7,32.9c4.6,7.9,12.8,12.4,21.4,12.4c3.7,0,7.4-0.8,10.9-2.5
			L662.5,436c6-3,12.7,2.6,10.8,9c-1.3,4.1-3.5,9.2-7.7,15.2c-20,28.4-30,45.5-28,60.9c2,15.5,20.3,26.8,30,24.8
			c3.6-0.8,36.9-42.2,61.2-63.8c20.9-18.6,41.4-53.1,42.4-92c0.4-17.9,2.5-21.9,17.5-30.6c20-11.6,70.1-40.3,70.1-40.3
			s5.5-27.4-31.4-91.2c-38.2-66.2-63.3-72.8-63.3-72.8l-69.9,42.8c-8.7,5.3-19,7.3-29.1,5.8c-17.7-2.8-49.2-4.4-81.8,10.6
			c-29.2,13.4-127.6,83.2-166.3,111.6c-9.1,6.7-11.7,19.1-6.1,28.9c4.1,7.1,11.5,11,19.2,11c3.2,0,6.5-0.7,9.6-2.2l24.9-12.1
			l1.5-0.7"/>
	</g>
	<g>
		<path class="st5" d="M165.4,94.5c0,0-30.8,21.7-73.1,94.9c-40.1,69.3-45.8,110.7-45.8,110.7l63.8,36.9c6.1,3.5,13.7,2.8,19-1.8
			c13.1-11.4,38.6-37.1,66.7-85.8c28.5-49.3,38-83.7,41.2-100.6c1.3-6.9-1.9-13.9-8-17.4L165.4,94.5z"/>
		<path class="st3" d="M528.8,402l33.2,21.4c7.8,5,12,13.4,12,22c0,4.5-1.1,9-3.5,13.1c-7.1,12.4-22.9,16.7-35.4,9.8l-34.1-18.9
			l21.4,14.3c7.1,4.7,11,12.5,11,20.5c0,4.2-1.1,8.4-3.3,12.3c-6.6,11.4-21,15.6-32.7,9.6l-55.9-29l22.9,15.5
			c6.3,4.3,9.7,11.2,9.7,18.3c0,3.8-1,7.6-3,11c-5.6,9.8-17.7,13.7-28,9.2c-44-19.3-153.7-69.7-179.9-88.2
			c-29.2-20.8-43.6-48.9-50.1-65.5c-3.7-9.5-10.6-17.5-19.5-22.3l-72-39.1c0,0-6.8-25,31.4-91.3c36.9-63.9,63.3-72.8,63.3-72.8
			s49.9,29,69.9,40.5c15,8.6,19.5,8.4,35.3-0.1c34.1-18.6,74.4-18.1,100.9-9.3c30.8,10.3,83.4,18.4,85.8,21.1
			c6.6,7.4,5.9,28.9-6.4,38.4c-12.4,9.5-32.1,9.4-66.8,6.3c-7.3-0.7-12.8,0-17,1c-6.5,1.5-8,10.1-2.4,13.8l156,104.4
			c7.1,4.7,11,12.6,11,20.5c0,4.2-1.1,8.4-3.3,12.3c-6.5,11.3-20.7,15.6-32.4,9.8l-17.9-8.9L528.8,402z"/>
		<path class="st6" d="M364.5,437.3l76.9,39.8l55.9,29c11.7,6.1,26.1,1.8,32.7-9.6c2.2-3.9,3.3-8.1,3.3-12.3c0-8-3.9-15.8-11-20.5
			l-21.4-14.3l-1-0.7"/>
		<path class="st6" d="M400.7,393.9l100.3,55.5l34.1,18.9c12.5,6.9,28.2,2.5,35.4-9.8c2.4-4.1,3.5-8.6,3.5-13.1c0-8.6-4.3-17-12-22
			L528.8,402L432,339.7"/>
		<path class="st6" d="M529,401.7l17.9,8.9c11.7,5.8,25.8,1.5,32.4-9.8c2.2-3.9,3.3-8.1,3.3-12.3c0-8-3.9-15.8-11-20.5l-156-104.4
			c-5.6-3.7-4.1-12.3,2.4-13.8c4.2-1,9.7-1.6,17-1c34.6,3.2,54.4,3.2,66.8-6.3c12.4-9.5,13.1-31,6.4-38.4
			c-2.4-2.7-55-10.8-85.8-21.1c-26.5-8.8-66.8-9.3-100.9,9.3c-15.7,8.6-20.2,8.8-35.3,0.1c-20.1-11.5-69.9-40.5-69.9-40.5
			s-26.4,8.9-63.3,72.8c-38.2,66.2-31.4,91.3-31.4,91.3l72,39.1c9,4.9,15.9,12.8,19.5,22.3c6.4,16.7,20.8,44.8,50.1,65.5
			c26.2,18.6,135.9,68.9,179.9,88.2c10.3,4.5,22.4,0.6,28-9.2c2-3.5,3-7.3,3-11c0-7.1-3.4-14-9.7-18.3l-22.9-15.5l-1.4-0.9"/>
	</g>
	<g>
		<path class="st5" d="M605.3,869.8c0,0-34.2,15.7-118.8,15.7c-80,0-118.8-15.7-118.8-15.7v-73.6c0-7,4.4-13.3,11.1-15.6
			c16.4-5.7,51.5-14.8,107.7-14.8c57,0,91.5,9,107.7,14.7c6.6,2.3,11.1,8.6,11.1,15.6V869.8z"/>
		<path class="st3" d="M561.4,440.7l2-27.6c0.4-5.8,3-10.9,7-14.6c4-3.7,9.3-5.9,15-5.9c11.3,0,20.7,8.5,22,19.7
			c5.3,47.7,16.5,167.9,13.5,199.9c-3.4,35.7-20.5,62.2-31.7,76.1c-6.4,7.9-9.8,17.9-9.6,28.1l2.1,81.9c0,0-18.3,15.8-94.7,15.8
			c-73.7,0-94.7-15.8-94.7-15.8s0.2-57.7,0.1-80.8c-0.1-17.3-2.5-21.1-17.8-30.5c-33.2-20.3-52.9-55.3-58.5-82.7
			c-6.5-31.8-25.8-81.4-24.6-84.9c3.1-9.4,22-19.6,36.5-13.6c14.4,6,24.2,23.1,38.8,54.7c3.1,6.6,6.4,11.1,9.3,14.2
			c4.6,4.9,12.8,1.9,13.2-4.8l12.4-187.3c0.4-6.5,3.3-12.3,7.8-16.4c4.4-4.1,10.4-6.7,16.9-6.7c13,0,23.8,10.1,24.6,23.1l1.3,19.9
			l0.4,0l1.9-39.4c0.3-7,3.4-13.2,8.1-17.7c4.7-4.5,11.1-7.2,18.1-7.2c14.3,0,25.9,11.4,26.2,25.7l0.7,39l1.7-25.7
			c0.4-6.5,3.3-12.2,7.8-16.4c4.4-4.1,10.4-6.7,16.9-6.7c13.2,0,24,10.4,24.6,23.5L561.4,440.7z"/>
		<path class="st6" d="M565.3,527.1l-3.9-86.4l-2.9-62.9c-0.6-13.2-11.5-23.5-24.6-23.5c-6.5,0-12.4,2.5-16.9,6.7
			c-4.4,4.1-7.3,9.9-7.8,16.4l-1.7,25.7l-0.1,1.2"/>
		<path class="st6" d="M509.6,517.6L507.6,403l-0.7-39c-0.3-14.3-11.9-25.7-26.2-25.7c-7,0-13.4,2.7-18.1,7.2
			c-4.7,4.5-7.8,10.7-8.1,17.7l-1.9,39.4l-5.6,115"/>
		<path class="st6" d="M452.2,402.5l-1.3-19.9c-0.8-13-11.6-23.1-24.6-23.1c-6.5,0-12.4,2.5-16.9,6.7c-4.4,4.1-7.3,9.9-7.8,16.4
			l-12.4,187.3c-0.4,6.7-8.6,9.7-13.2,4.8c-2.9-3.1-6.3-7.6-9.3-14.2c-14.6-31.6-24.4-48.7-38.8-54.7c-14.4-6-33.4,4.2-36.5,13.6
			c-1.1,3.5,18.1,53.1,24.6,84.9c5.6,27.4,25.3,62.5,58.5,82.7c15.3,9.3,17.7,13.1,17.8,30.5c0.1,23.1-0.1,80.8-0.1,80.8
			s20.9,15.8,94.7,15.8c76.5,0,94.7-15.8,94.7-15.8l-2.1-81.9c-0.3-10.2,3.1-20.2,9.6-28.1c11.2-13.9,28.4-40.4,31.7-76.1
			c3-32-8.3-152.2-13.5-199.9c-1.2-11.2-10.7-19.7-22-19.7c-5.8,0-11.1,2.2-15,5.9c-4,3.7-6.6,8.8-7,14.6l-2,27.6l-0.1,1.6"/>
	</g>
</g>
</svg>
