<?xml version="1.0" encoding="utf-8"?>
<!-- Generator: Adobe Illustrator 26.0.3, SVG Export Plug-In . SVG Version: 6.00 Build 0)  -->
<svg version="1.1" id="Слой_1" xmlns="http://www.w3.org/2000/svg" xmlns:xlink="http://www.w3.org/1999/xlink" x="0px" y="0px"
	 viewBox="0 0 980 980" style="enable-background:new 0 0 980 980;" xml:space="preserve">
<style type="text/css">
	.st0{fill:none;stroke:#1D1D1B;stroke-width:7;stroke-linecap:round;stroke-linejoin:round;stroke-miterlimit:10;}
	.st1{fill:none;stroke:#272D63;stroke-width:15;stroke-linecap:round;stroke-linejoin:round;stroke-miterlimit:10;}
	.st2{fill:#7B80B4;stroke:#272D63;stroke-width:5.3954;stroke-linecap:round;stroke-linejoin:round;stroke-miterlimit:10;}
	.st3{fill:#FFFFFF;}
	.st4{fill:none;stroke:#272D63;stroke-width:5.3954;stroke-linecap:round;stroke-linejoin:round;stroke-miterlimit:10;}
	.st5{fill:#7B80B4;stroke:#272D63;stroke-width:12;stroke-linecap:round;stroke-linejoin:round;stroke-miterlimit:10;}
	.st6{fill:none;stroke:#272D63;stroke-width:12;stroke-linecap:round;stroke-linejoin:round;stroke-miterlimit:10;}
	.st7{fill:#FFFFFF;stroke:#272D63;stroke-width:12;stroke-linecap:round;stroke-linejoin:round;stroke-miterlimit:10;}
	
		.st8{fill:none;stroke:#272D63;stroke-width:12;stroke-linecap:round;stroke-linejoin:round;stroke-miterlimit:10;stroke-dasharray:23.1594,28.9493;}
	.st9{fill:#272D63;}
	.st10{fill:#7B80B4;}
	.st11{fill:#7B80B4;stroke:#272D63;stroke-width:20;stroke-linecap:round;stroke-linejoin:round;stroke-miterlimit:10;}
	.st12{fill:none;stroke:#272D63;stroke-width:20;stroke-linecap:round;stroke-linejoin:round;stroke-miterlimit:10;}
	.st13{fill:#FFFFFF;stroke:#272D63;stroke-width:20;stroke-linecap:round;stroke-linejoin:round;stroke-miterlimit:10;}
	
		.st14{fill:none;stroke:#272D63;stroke-width:20;stroke-linecap:round;stroke-linejoin:round;stroke-miterlimit:10;stroke-dasharray:23.1594,28.9493;}
	.st15{fill:#FFFFFF;stroke:#272D63;stroke-width:20.0121;stroke-linecap:round;stroke-linejoin:round;stroke-miterlimit:10;}
	.st16{fill:#7B80B4;stroke:#272D63;stroke-width:20.0121;stroke-linecap:round;stroke-linejoin:round;stroke-miterlimit:10;}
</style>
<g>
	<rect x="120" y="107.8" class="st13" width="648.7" height="764.3"/>
	<rect x="181.8" y="169.1" class="st13" width="525.1" height="641.8"/>
	<g>
		<polygon class="st11" points="860,733.3 799.8,713.6 773,771.1 676.8,549.6 763.8,511.8 		"/>
		<polygon class="st11" points="534.1,733.3 594.3,713.6 621.1,771.1 717.3,549.6 630.3,511.8 		"/>
		<path class="st11" d="M711.2,326.2l8.7,9.2c5,5.4,12.7,7.4,19.7,5.3l12.2-3.7c10.7-3.2,21.9,3.2,24.5,14.1l2.9,12.4
			c1.7,7.2,7.3,12.7,14.4,14.4l12.4,2.9c10.9,2.6,17.3,13.8,14.1,24.5l-3.7,12.2c-2.1,7-0.1,14.7,5.3,19.7l9.2,8.7
			c8.1,7.7,8.1,20.6,0,28.2l-9.2,8.7c-5.4,5-7.4,12.7-5.3,19.7l3.7,12.2c3.2,10.7-3.2,21.9-14.1,24.5l-12.4,2.9
			c-7.2,1.7-12.7,7.3-14.4,14.4l-2.9,12.4c-2.6,10.9-13.8,17.3-24.5,14.1l-12.2-3.7c-7-2.1-14.7-0.1-19.7,5.3l-8.7,9.2
			c-7.7,8.1-20.6,8.1-28.2,0l-8.7-9.2c-5-5.4-12.7-7.4-19.7-5.3l-12.2,3.7c-10.7,3.2-21.9-3.2-24.5-14.1l-2.9-12.4
			c-1.7-7.2-7.3-12.7-14.4-14.4l-12.4-2.9c-10.9-2.6-17.3-13.8-14.1-24.5l3.7-12.2c2.1-7,0.1-14.7-5.3-19.7l-9.2-8.7
			c-8.1-7.7-8.1-20.6,0-28.2l9.2-8.7c5.4-5,7.4-12.7,5.3-19.7l-3.7-12.2c-3.2-10.7,3.2-21.9,14.1-24.5l12.4-2.9
			c7.2-1.7,12.7-7.3,14.4-14.4l2.9-12.4c2.6-10.9,13.8-17.3,24.5-14.1l12.2,3.7c7,2.1,14.7,0.1,19.7-5.3l8.7-9.2
			C690.6,318.1,703.5,318.1,711.2,326.2z"/>
		<circle class="st11" cx="697.1" cy="460" r="77.7"/>
	</g>
	<line class="st12" x1="269.5" y1="259.1" x2="619.3" y2="256.7"/>
	<line class="st12" x1="269.5" y1="367.1" x2="541.5" y2="364.8"/>
	<line class="st12" x1="269.5" y1="475.2" x2="509" y2="472.9"/>
	<line class="st12" x1="269.5" y1="583.3" x2="551" y2="581"/>
	<line class="st12" x1="269.5" y1="691.4" x2="509" y2="689"/>
</g>
</svg>
