<?xml version="1.0" encoding="utf-8"?>
<!-- Generator: Adobe Illustrator 26.0.3, SVG Export Plug-In . SVG Version: 6.00 Build 0)  -->
<svg version="1.1" id="Слой_1" xmlns="http://www.w3.org/2000/svg" xmlns:xlink="http://www.w3.org/1999/xlink" x="0px" y="0px"
	 viewBox="0 0 980 980" style="enable-background:new 0 0 980 980;" xml:space="preserve">
<style type="text/css">
	.st0{fill:#7B80B4;stroke:#272D63;stroke-width:20;stroke-linecap:round;stroke-linejoin:round;stroke-miterlimit:10;}
	.st1{fill:#FFFFFF;}
	.st2{fill:none;stroke:#272D63;stroke-width:20;stroke-linecap:round;stroke-linejoin:round;stroke-miterlimit:10;}
	.st3{fill:#FFFFFF;stroke:#272D63;stroke-width:20;stroke-linecap:round;stroke-linejoin:round;stroke-miterlimit:10;}
	
		.st4{fill:none;stroke:#272D63;stroke-width:20;stroke-linecap:round;stroke-linejoin:round;stroke-miterlimit:10;stroke-dasharray:23.1594,28.9493;}
	.st5{fill:#272D63;}
	.st6{fill:#7B80B4;}
	.st7{fill:#FFFFFF;stroke:#272D63;stroke-width:20.0121;stroke-linecap:round;stroke-linejoin:round;stroke-miterlimit:10;}
	.st8{fill:#7B80B4;stroke:#272D63;stroke-width:20.0121;stroke-linecap:round;stroke-linejoin:round;stroke-miterlimit:10;}
	.st9{fill:none;stroke:#272D63;stroke-width:20.202;stroke-linecap:round;stroke-linejoin:round;stroke-miterlimit:10;}
	.st10{fill:none;stroke:#272D63;stroke-width:17.5882;stroke-linecap:round;stroke-linejoin:round;stroke-miterlimit:10;}
	.st11{fill:#7B80B4;stroke:#272D63;stroke-width:18.181;stroke-linecap:round;stroke-linejoin:round;stroke-miterlimit:10;}
	
		.st12{fill:none;stroke:#272D63;stroke-width:20;stroke-linecap:round;stroke-linejoin:round;stroke-miterlimit:10;stroke-dasharray:28.0422,35.0527;}
</style>
<g>
	<path class="st3" d="M440.7,408.7c-1.1,4-2.2,8.1-3.3,12C402,542.2,326.5,626.3,265.6,610.3c-50.9-13.4-76.1-92.5-66.1-189.8
		c2.4-23.1,6.7-47.3,13.2-71.9c12.1-45.9,29.9-86.9,50.8-119.9l192.2,50.7C457.5,318.3,452.8,362.8,440.7,408.7z"/>
	<line class="st2" x1="265.6" y1="610.3" x2="212.2" y2="812.4"/>
	<path class="st0" d="M315,879L90,819.6l0.1-0.3c5.3-20.2,26-32.3,46.3-26.9l151.8,40.1c20.2,5.3,32.3,26,26.9,46.3L315,879z"/>
	<path class="st3" d="M780.5,499.5c-6.9,58.7-30,101.2-66.1,110.8c-47.8,12.6-104.4-36.3-143.7-116.6c-12.5-25.5-23.2-54.1-31.4-85
		c-12.1-45.9-16.8-90.4-15-129.4l192.2-50.7c20.8,33,38.7,74,50.8,119.9C781.7,403.1,785.7,455.8,780.5,499.5z"/>
	<line class="st2" x1="714.4" y1="610.3" x2="767.8" y2="812.4"/>
	<path class="st0" d="M665,879l225-59.4l-0.1-0.3c-5.3-20.2-26-32.3-46.3-26.9l-151.8,40.1c-20.2,5.3-32.3,26-26.9,46.3L665,879z"/>
	<line class="st2" x1="486.6" y1="101" x2="486.6" y2="178.9"/>
	<line class="st2" x1="588.4" y1="133.6" x2="539.8" y2="194.4"/>
	<line class="st2" x1="384.8" y1="133.6" x2="433.4" y2="194.4"/>
	<path class="st0" d="M437.3,420.7C402,542.2,326.5,626.3,265.6,610.3c-50.9-13.4-76.1-92.5-66.1-189.8h236.9L437.3,420.7z"/>
	<path class="st0" d="M780.5,499.5c-6.9,58.7-30,101.2-66.1,110.8c-47.8,12.6-104.4-36.3-143.7-116.6h206.9L780.5,499.5z"/>
</g>
</svg>
