<?xml version="1.0" encoding="utf-8"?>
<!-- Generator: Adobe Illustrator 26.0.3, SVG Export Plug-In . SVG Version: 6.00 Build 0)  -->
<svg version="1.1" id="Слой_1" xmlns="http://www.w3.org/2000/svg" xmlns:xlink="http://www.w3.org/1999/xlink" x="0px" y="0px"
	 viewBox="0 0 980 980" style="enable-background:new 0 0 980 980;" xml:space="preserve">
<style type="text/css">
	.st0{fill:#7B80B4;stroke:#272D63;stroke-width:20;stroke-linecap:round;stroke-linejoin:round;stroke-miterlimit:10;}
	.st1{fill:#FFFFFF;}
	.st2{fill:none;stroke:#272D63;stroke-width:20;stroke-linecap:round;stroke-linejoin:round;stroke-miterlimit:10;}
	.st3{fill:#FFFFFF;stroke:#272D63;stroke-width:20;stroke-linecap:round;stroke-linejoin:round;stroke-miterlimit:10;}
	
		.st4{fill:none;stroke:#272D63;stroke-width:20;stroke-linecap:round;stroke-linejoin:round;stroke-miterlimit:10;stroke-dasharray:23.1594,28.9493;}
	.st5{fill:#272D63;}
	.st6{fill:#7B80B4;}
	.st7{fill:#FFFFFF;stroke:#272D63;stroke-width:20.0121;stroke-linecap:round;stroke-linejoin:round;stroke-miterlimit:10;}
	.st8{fill:#7B80B4;stroke:#272D63;stroke-width:20.0121;stroke-linecap:round;stroke-linejoin:round;stroke-miterlimit:10;}
	.st9{fill:none;stroke:#272D63;stroke-width:20.202;stroke-linecap:round;stroke-linejoin:round;stroke-miterlimit:10;}
	.st10{fill:none;stroke:#272D63;stroke-width:17.5882;stroke-linecap:round;stroke-linejoin:round;stroke-miterlimit:10;}
	.st11{fill:#7B80B4;stroke:#272D63;stroke-width:18.181;stroke-linecap:round;stroke-linejoin:round;stroke-miterlimit:10;}
	
		.st12{fill:none;stroke:#272D63;stroke-width:20;stroke-linecap:round;stroke-linejoin:round;stroke-miterlimit:10;stroke-dasharray:28.0422,35.0527;}
</style>
<g>
	<g id="XMLID_00000129905355777152874120000002806702790792134064_">
		<g>
			<path class="st1" d="M490,471c-26,0-43.2-21.9-43.2-21.9v-57.6l0.4-0.8c12.9,6.3,27.5,9.8,42.8,9.8c15.4,0,29.9-3.5,42.8-9.8
				l0.4,0.8v57.6C533.2,449.2,515.6,471,490,471z"/>
			<path class="st1" d="M436.3,210.6c0,0,74.9,59.3,151.5,42.4c0,0,0.2,0,0.4,0l0,0.4v49c0,4.9-0.4,9.8-1.1,14.5
				c-4.8,32.6-25.7,60-54.3,73.9c-12.9,6.3-27.5,9.8-42.8,9.8c-15.4,0-29.9-3.5-42.8-9.8c-28.6-13.9-49.5-41.3-54.3-73.8
				c-0.7-4.7-1.1-9.6-1.1-14.6v-48.7c0.2,0,0.4,0,0.4,0C395.7,252.6,421.3,229.8,436.3,210.6z"/>
			<path class="st1" d="M446.8,449.2c0,0,17.2,21.9,43.2,21.9c25.6,0,43.2-21.9,43.2-21.9s62.6,25.4,82.3,32.6
				c25.9,9.5,44.2,32.6,44.2,60.1c0,13.6,0,30.8,0,30.8s-77.6,41.4-169.8,41.4c-91.2,0-168.8-41.4-168.8-41.4s0-17.3,0-30.9
				c0-27.5,18.3-50.6,44.1-60.1C384.7,474.5,446.8,449.2,446.8,449.2z"/>
			<path class="st1" d="M588.2,302.4v-49l0-0.4c2.6,0.1,16.7,0.8,16.7,0.8h1.3c9.5,0,17.1,7.9,16.8,17.4l-1.2,29.9
				c-0.4,9-7.8,16.1-16.8,16.1h-15.8l-2.2-0.3C587.9,312.2,588.2,307.3,588.2,302.4z"/>
			<path class="st1" d="M391.8,253.6v48.7c0,4.9,0.4,9.8,1.1,14.6l-1.9,0.3h-16.6c-9,0-16.4-7.1-16.8-16.1l-1.2-29.9
				c-0.4-9.5,7.2-17.4,16.8-17.4h14.7v-0.1C389.7,253.7,391.1,253.7,391.8,253.6z"/>
			<path class="st6" d="M391.8,253.6c-0.7,0-2.1,0-3.9,0c-4.8,0-11.9,0-11.9,0v-52.7c0-51.2,41.5-92.7,92.7-92.7h43.5
				c51.2,0,92.7,58.1,92.7,109.3v36.2c0,0-14.1-0.6-16.7-0.8c-0.2,0-0.4,0-0.4,0c-76.6,16.9-151.5-42.4-151.5-42.4
				c-15.1,19.3-40.7,42-44.1,43C392.2,253.6,392,253.6,391.8,253.6z"/>
		</g>
		<g>
			<path class="st2" d="M588.2,253.4v49c0,4.9-0.4,9.8-1.1,14.5c-4.8,32.6-25.7,60-54.3,73.9c-12.9,6.3-27.5,9.8-42.8,9.8
				c-15.4,0-29.9-3.5-42.8-9.8c-28.6-13.9-49.5-41.3-54.3-73.8c-0.7-4.7-1.1-9.6-1.1-14.6v-48.7"/>
			<path class="st2" d="M390.9,253.7h-3.1h-14.7c-9.5,0-17.1,7.9-16.8,17.4l1.2,29.9c0.4,9,7.8,16.1,16.8,16.1h16.6"/>
			<path class="st2" d="M589.3,253.7h15.6h1.3c9.5,0,17.1,7.9,16.8,17.4l-1.2,29.9c-0.4,9-7.8,16.1-16.8,16.1h-15.8"/>
			<path class="st2" d="M387.9,253.7c-4.8,0-11.9,0-11.9,0v-52.7c0-51.2,41.5-92.7,92.7-92.7h43.5c51.2,0,92.7,41.5,92.7,92.7v52.9
				c0,0-14.1-0.6-16.7-0.8c-0.2,0-0.4,0-0.4,0c-76.6,16.9-151.5-42.4-151.5-42.4c-15.1,19.3-40.7,42-44.1,43c0,0-0.2,0-0.4,0
				C391.1,253.7,389.7,253.7,387.9,253.7z"/>
			<path class="st2" d="M533.2,391.6v57.6c0,0-17.6,21.9-43.2,21.9c-26,0-43.2-21.9-43.2-21.9v-57.6"/>
			<path class="st2" d="M446.8,449.2c0,0-43.5,16.8-81.5,32.5c-25.4,10.5-44.1,32.6-44.1,60.1c0,13.7,0,30.9,0,30.9
				S386,614.1,490,614.1c106.4,0,169.8-41.4,169.8-41.4s0-17.2,0-30.8c0-27.5-18.7-49.7-44.2-60.1c-39.6-16.2-82.3-32.6-82.3-32.6"
				/>
		</g>
	</g>
	<g>
		<path class="st1" d="M185.9,518.1c5.3-11.1,17.3-15.5,32.4-9.3c21.3,8.7,43.7,56.1,89.9,102c46.2,45.9,43.6,77.4,39.8,104.7
			c-3.8,27.3,6,60,6,60H224.6c0,0-5.6-34.4-28.6-59.6c-21.7-23.7-41.3-34.6-60-73.9c-18.7-39.3-45.9-213.7-46-273
			c0-26,39.8-27.2,51.7,14.6C152.7,421.8,167.6,486.9,185.9,518.1z"/>
		<polygon class="st6" points="392.6,775.5 392.6,871.8 176.7,871.8 176.7,775.5 224.6,775.5 354,775.5 		"/>
		<path class="st2" d="M354,775.5c0,0-9.8-32.7-6-60c3.8-27.3,6.4-58.8-39.8-104.7c-46.2-45.9-68.6-93.3-89.9-102
			c-15.1-6.2-27.1-1.8-32.4,9.3c-4.1,8.5-4.2,20.9,1.2,35.5c12.4,33.6,50.1,85.9,50.1,85.9"/>
		<path class="st2" d="M224.6,775.5c0,0-5.6-34.4-28.6-59.6c-21.7-23.7-41.3-34.6-60-73.9c-18.7-39.3-45.9-213.7-46-273
			c0-26,39.8-27.2,51.7,14.6c11,38.3,25.8,103.4,44.2,134.6c0,0,0,0,0,0"/>
		<polygon class="st2" points="354,775.5 392.6,775.5 392.6,871.8 176.7,871.8 176.7,775.5 224.6,775.5 		"/>
	</g>
	<g>
		<path class="st1" d="M794.1,518.1c18.3-31.1,33.2-96.2,44.2-134.6c12-41.7,51.8-40.6,51.7-14.6c0,59.3-27.3,233.7-46,273
			c-18.7,39.3-38.3,50.2-60,73.9c-23.1,25.3-28.7,59.6-28.7,59.6H626c0,0,9.8-32.7,6-60c-3.8-27.3-6.4-58.8,39.8-104.7
			c46.2-45.9,68.6-93.3,89.9-102C776.8,502.6,788.8,507,794.1,518.1z"/>
		<polygon class="st6" points="803.3,775.5 803.3,871.8 587.4,871.8 587.4,775.5 626,775.5 755.4,775.5 		"/>
		<path class="st2" d="M626,775.5c0,0,9.8-32.7,6-60c-3.8-27.3-6.4-58.8,39.8-104.7c46.2-45.9,68.6-93.3,89.9-102
			c15.1-6.2,27.1-1.8,32.4,9.3c4.1,8.5,4.2,20.9-1.2,35.5c-12.4,33.6-50.1,85.9-50.1,85.9"/>
		<path class="st2" d="M755.4,775.5c0,0,5.6-34.4,28.7-59.6c21.7-23.7,41.3-34.6,60-73.9c18.7-39.3,45.9-213.7,46-273
			c0-26-39.8-27.2-51.7,14.6c-11,38.4-25.8,103.4-44.2,134.6"/>
		<polygon class="st2" points="626,775.5 587.4,775.5 587.4,871.8 803.3,871.8 803.3,775.5 755.4,775.5 		"/>
	</g>
</g>
</svg>
