<?xml version="1.0" encoding="utf-8"?>
<!-- Generator: Adobe Illustrator 26.0.3, SVG Export Plug-In . SVG Version: 6.00 Build 0)  -->
<svg version="1.1" id="Слой_1" xmlns="http://www.w3.org/2000/svg" xmlns:xlink="http://www.w3.org/1999/xlink" x="0px" y="0px"
	 viewBox="0 0 980 980" style="enable-background:new 0 0 980 980;" xml:space="preserve">
<style type="text/css">
	.st0{fill:#7B80B4;stroke:#272D63;stroke-width:20;stroke-linecap:round;stroke-linejoin:round;stroke-miterlimit:10;}
	.st1{fill:#FFFFFF;}
	.st2{fill:none;stroke:#272D63;stroke-width:20;stroke-linecap:round;stroke-linejoin:round;stroke-miterlimit:10;}
	.st3{fill:#FFFFFF;stroke:#272D63;stroke-width:20;stroke-linecap:round;stroke-linejoin:round;stroke-miterlimit:10;}
	
		.st4{fill:none;stroke:#272D63;stroke-width:20;stroke-linecap:round;stroke-linejoin:round;stroke-miterlimit:10;stroke-dasharray:23.1594,28.9493;}
	.st5{fill:#272D63;}
	.st6{fill:#7B80B4;}
	.st7{fill:#FFFFFF;stroke:#272D63;stroke-width:20.0121;stroke-linecap:round;stroke-linejoin:round;stroke-miterlimit:10;}
	.st8{fill:#7B80B4;stroke:#272D63;stroke-width:20.0121;stroke-linecap:round;stroke-linejoin:round;stroke-miterlimit:10;}
	.st9{fill:none;stroke:#272D63;stroke-width:20.202;stroke-linecap:round;stroke-linejoin:round;stroke-miterlimit:10;}
	.st10{fill:none;stroke:#272D63;stroke-width:17.5882;stroke-linecap:round;stroke-linejoin:round;stroke-miterlimit:10;}
	.st11{fill:#7B80B4;stroke:#272D63;stroke-width:18.181;stroke-linecap:round;stroke-linejoin:round;stroke-miterlimit:10;}
	
		.st12{fill:none;stroke:#272D63;stroke-width:20;stroke-linecap:round;stroke-linejoin:round;stroke-miterlimit:10;stroke-dasharray:28.0422,35.0527;}
</style>
<g>
	<g>
		<path class="st1" d="M554.1,684.6l27,18.7c5.6,3.9,9.3,9.7,10.7,15.9c1.4,6.2,0.5,13-3,18.9c-6.8,11.5-21.1,16-33.3,10.6
			c-51.8-23.4-181.2-84.2-212-106.5c-34.4-24.9-51.2-58.3-58.6-78.2c-4.2-11.3-12.3-20.8-22.9-26.7l-84.8-47.2
			c0,0,4.4-24.3,50.5-102.3c44.4-75.2,63.5-91,63.5-91s58.7,34.9,82.4,48.8c17.7,10.4,23,10.2,41.8,0.2
			c40.6-21.7,88.3-20.7,119.6-9.9c36.4,12.5,96.8,11.6,99.6,14.9c15.9,19,8.6,45.3-6.2,56.4c-14.8,11.1-38.2,10.8-79.1,6.7
			c-8.6-0.9-15.2-0.2-20.1,0.9c-7.7,1.7-9.6,11.9-3,16.3l183.6,125.4c6.4,4.3,10.5,10.8,12,17.8c1.6,7,0.6,14.6-3.4,21.2
			c-7.8,13.3-24.7,18.2-38.4,11.2l-21.1-10.7l-0.3,0.4l39,25.7c6.9,4.5,11.4,11.4,13.2,18.9c1.7,7.5,0.7,15.7-3.5,22.8
			c-8.6,14.6-27.3,19.6-42,11.2L625,652.5l25.2,17.2c6.4,4.3,10.5,10.8,12,17.8c1.6,7,0.6,14.6-3.4,21.2c-7.9,13.4-25,18.3-38.8,11
			L554.1,684.6z"/>
		<path class="st2" d="M463.5,636.7l90.5,48l65.9,34.9c13.8,7.3,30.9,2.5,38.8-11c3.9-6.6,4.9-14.2,3.4-21.2
			c-1.6-7-5.7-13.4-12-17.8L625,652.5l-1.2-0.8"/>
		<path class="st2" d="M506.8,585.7L625,652.5l40.2,22.7c14.7,8.3,33.4,3.3,42-11.2c4.2-7.1,5.2-15.3,3.5-22.8
			c-1.7-7.5-6.3-14.4-13.2-18.9l-39-25.7l-113.9-74.9"/>
		<path class="st2" d="M658.7,596.2l21.1,10.7c13.8,7,30.6,2.1,38.4-11.2c3.9-6.6,4.9-14.2,3.4-21.2c-1.6-7-5.7-13.4-12-17.8
			L525.9,431.3c-6.6-4.4-4.7-14.6,3-16.3c5-1.1,14.9-4,23.5-4c41.2,0.2,62,8.8,75.7-3.6c13.7-12.4,20.5-33.6,6.2-56.4
			c-2.3-3.7-66-7.3-103.4-16.3c-32.2-7.8-75.1-10.4-115.7,11.2c-18.7,10-24.1,10.1-41.8-0.2c-23.7-13.8-82.4-48.8-82.4-48.8
			s-19.2,15.7-63.5,91c-46,78-50.5,102.3-50.5,102.3l84.8,47.2c10.6,5.9,18.7,15.3,22.9,26.7c7.4,19.8,24.2,53.3,58.6,78.2
			c30.8,22.3,160.2,83.1,212,106.5c12.2,5.5,26.5,0.9,33.3-10.6c3.5-5.9,4.4-12.7,3-18.9c-1.4-6.2-5-12-10.7-15.9l-27-18.7l-1.6-1.1
			"/>
		<path class="st0" d="M90,471.3L232.9,229l75.1,44.3c7.2,4.2,11.7,12.7,9.3,20.7c-7.2,23.4-20.3,58.8-54.1,116.2
			c-34.3,58.1-61.9,90.1-75.4,103.6c-5.9,5.9-15.4,6.1-22.6,1.9L90,471.3z"/>
	</g>
	<g>
		<path class="st1" d="M802.9,490.2l-21.5,11.9l-63.3,35.2c-10.6,5.9-18.7,15.3-22.9,26.7c-7.4,19.8-24.2,53.3-58.6,78.2
			c-30.8,22.3-160.2,83.1-212,106.5c-12.2,5.5-26.5,0.9-33.3-10.6c-3.5-5.9-4.4-12.6-3-18.9c1.4-6.2,5-12,10.7-15.9l27-18.7
			L360,719.6c-13.8,7.3-30.9,2.5-38.8-11c-3.9-6.6-4.9-14.2-3.4-21.2c1.6-7,5.7-13.4,12.1-17.8l25.2-17.2l-40.2,22.7
			c-14.7,8.3-33.4,3.3-42-11.3c-4.2-7.1-5.2-15.3-3.5-22.8c1.7-7.5,6.3-14.4,13.2-18.9l39-25.7l-0.3-0.4L300.2,607
			c-13.8,7-30.6,2.1-38.4-11.2c-3.9-6.6-4.9-14.2-3.4-21.2c1.6-7,5.7-13.5,12-17.8L454,431.3c6.6-4.4,4.7-14.6-3-16.3
			c0,0-0.1-0.1-0.1-0.1c0-0.1,0-0.1,0.2-0.3c0.4-0.3,1.4-0.9,2.9-1.7c7.9-0.3,19.2,0,50.4,0c5.1,0,39.4-1.9,48-1.9
			c41.2,0.2,60.3,6.5,75.7-3.6c21-13.8,14.7-48.3,6.2-56.4c-1.3-1.2-13-2.7-28.9-4.7c0.4-0.2,0.7-0.4,1.1-0.6
			c14.5-8.5,42.1-24.8,61.3-36.3c12.2-7.2,21.1-12.5,21.1-12.5s19.1,15.7,63.5,91C798.4,465.9,802.9,490.2,802.9,490.2z"/>
		<path class="st2" d="M454,412.9c7.9-0.3,19.2,2.1,50.4,0c12-0.8,39.4-1.9,48-1.9c41.2,0.2,50.8,8.7,71.5-0.6
			c22-9.9,25.2-45.8,10.4-59.4c-1.3-1.2-13-2.7-28.9-4.7"/>
		<path class="st2" d="M516.5,636.7l-90.5,48L360,719.6c-13.8,7.3-30.9,2.5-38.8-11c-3.9-6.6-4.9-14.2-3.4-21.2
			c1.6-7,5.7-13.4,12-17.8l25.2-17.2l1.2-0.8"/>
		<path class="st2" d="M473.2,585.7L355,652.5l-40.2,22.7c-14.7,8.3-33.4,3.3-42-11.2c-4.2-7.1-5.2-15.3-3.5-22.8
			c1.7-7.5,6.3-14.4,13.2-18.9l39-25.7l113.9-74.9"/>
		<path class="st2" d="M427.5,683.5l-1.6,1.1l-27,18.7c-5.6,3.9-9.3,9.7-10.7,15.9c-1.4,6.3-0.5,13,3,18.9
			c6.8,11.5,21.1,16,33.3,10.6c51.8-23.4,181.2-84.2,212-106.5c34.4-24.9,51.1-58.3,58.6-78.2c4.2-11.3,12.3-20.8,22.9-26.7
			l63.3-35.2l21.5-11.9c0,0-4.4-24.3-50.5-102.3c-44.4-75.2-63.5-91-63.5-91s-8.9,5.3-21.1,12.5c-19.2,11.4-46.8,27.8-61.3,36.3
			c-0.3,0.2-0.7,0.4-1.1,0.6"/>
		<path class="st2" d="M454,412.9c-1.6,0.8-2.6,1.4-2.9,1.7c-0.1,0.1-0.2,0.2-0.2,0.3c0,0,0,0.1,0.1,0.1c7.7,1.7,9.6,11.9,3,16.3
			L270.5,556.7c-6.4,4.3-10.5,10.8-12,17.8c-1.6,7-0.6,14.6,3.4,21.2c7.8,13.3,24.7,18.2,38.4,11.2l21.1-10.7"/>
		<path class="st0" d="M890,471.3L747.1,229l-75.1,44.3c-7.2,4.2-11.7,12.7-9.3,20.7c7.2,23.4,20.3,58.8,54.1,116.2
			c34.3,58.1,61.9,90.1,75.4,103.6c5.9,5.9,15.4,6.1,22.6,1.9L890,471.3z"/>
	</g>
	<path class="st2" d="M451.2,413.1l-0.2,1.5l0,0.4c0,0-0.1-0.1-0.1-0.1C449.4,413.9,449.6,413.4,451.2,413.1z"/>
</g>
</svg>
