<?xml version="1.0" encoding="utf-8"?>
<!-- Generator: Adobe Illustrator 26.0.3, SVG Export Plug-In . SVG Version: 6.00 Build 0)  -->
<svg version="1.1" id="Слой_1" xmlns="http://www.w3.org/2000/svg" xmlns:xlink="http://www.w3.org/1999/xlink" x="0px" y="0px"
	 viewBox="0 0 980 980" style="enable-background:new 0 0 980 980;" xml:space="preserve">
<style type="text/css">
	.st0{fill:#7B80B4;stroke:#272D63;stroke-width:20;stroke-linecap:round;stroke-linejoin:round;stroke-miterlimit:10;}
	.st1{fill:#FFFFFF;}
	.st2{fill:none;stroke:#272D63;stroke-width:20;stroke-linecap:round;stroke-linejoin:round;stroke-miterlimit:10;}
	.st3{fill:#FFFFFF;stroke:#272D63;stroke-width:20;stroke-linecap:round;stroke-linejoin:round;stroke-miterlimit:10;}
	
		.st4{fill:none;stroke:#272D63;stroke-width:20;stroke-linecap:round;stroke-linejoin:round;stroke-miterlimit:10;stroke-dasharray:23.1594,28.9493;}
	.st5{fill:#272D63;}
	.st6{fill:#7B80B4;}
	.st7{fill:#FFFFFF;stroke:#272D63;stroke-width:20.0121;stroke-linecap:round;stroke-linejoin:round;stroke-miterlimit:10;}
	.st8{fill:#7B80B4;stroke:#272D63;stroke-width:20.0121;stroke-linecap:round;stroke-linejoin:round;stroke-miterlimit:10;}
	.st9{fill:none;stroke:#272D63;stroke-width:20.202;stroke-linecap:round;stroke-linejoin:round;stroke-miterlimit:10;}
	.st10{fill:none;stroke:#272D63;stroke-width:17.5882;stroke-linecap:round;stroke-linejoin:round;stroke-miterlimit:10;}
	.st11{fill:#7B80B4;stroke:#272D63;stroke-width:18.181;stroke-linecap:round;stroke-linejoin:round;stroke-miterlimit:10;}
	
		.st12{fill:none;stroke:#272D63;stroke-width:20;stroke-linecap:round;stroke-linejoin:round;stroke-miterlimit:10;stroke-dasharray:28.0422,35.0527;}
</style>
<g>
	<circle class="st0" cx="490" cy="854.6" r="35.4"/>
	<path class="st0" d="M534.3,849.5h-88.5c-18.3,0-33.2-14.9-33.2-33.2v-47.6h155v47.6C567.5,834.6,552.6,849.5,534.3,849.5z"/>
	<path class="st3" d="M694.4,481.4C694.4,368.5,602.9,277,490,277c-112.3,0-203.1,89.7-204.4,202c-0.7,57,22,108.7,59.1,146.2
		c24.5,24.8,38.6,57.9,38.6,92.8v2c0,29.7,24.1,53.8,53.8,53.8h105.7c29.7,0,53.8-24.1,53.8-53.8v-2.3c0-34.2,13.3-67.3,37.6-91.5
		C671.4,589.2,694.4,538,694.4,481.4z"/>
	<path class="st2" d="M457.7,773.8V491.2c0-21.2-17.2-38.3-38.3-38.3h-2c-21.2,0-38.3,17.2-38.3,38.3v3.1
		c0,21.2,17.2,38.3,38.3,38.3h145.3c21.2,0,38.3-17.2,38.3-38.3v-3.1c0-21.2-17.2-38.3-38.3-38.3h0c-21.2,0-38.3,17.2-38.3,38.3
		v282.6"/>
	<g>
		<line class="st2" x1="489.3" y1="202.2" x2="489.3" y2="90"/>
		<line class="st2" x1="768.2" y1="464.1" x2="879" y2="464.1"/>
		<line class="st2" x1="616.7" y1="233" x2="666.8" y2="129.9"/>
		<line class="st2" x1="724.8" y1="332.4" x2="818.3" y2="264.2"/>
		<line class="st2" x1="211.7" y1="464.1" x2="101" y2="464.1"/>
		<line class="st2" x1="362.9" y1="232.3" x2="313.2" y2="129.9"/>
		<line class="st2" x1="254" y1="331.6" x2="161.7" y2="264.2"/>
	</g>
</g>
</svg>
