<?xml version="1.0" encoding="utf-8"?>
<!-- Generator: Adobe Illustrator 26.0.3, SVG Export Plug-In . SVG Version: 6.00 Build 0)  -->
<svg version="1.1" id="Слой_1" xmlns="http://www.w3.org/2000/svg" xmlns:xlink="http://www.w3.org/1999/xlink" x="0px" y="0px"
	 viewBox="0 0 980 980" style="enable-background:new 0 0 980 980;" xml:space="preserve">
<style type="text/css">
	.st0{fill:none;stroke:#1D1D1B;stroke-width:7;stroke-linecap:round;stroke-linejoin:round;stroke-miterlimit:10;}
	.st1{fill:none;stroke:#272D63;stroke-width:15;stroke-linecap:round;stroke-linejoin:round;stroke-miterlimit:10;}
	.st2{fill:#7B80B4;stroke:#272D63;stroke-width:5.3954;stroke-linecap:round;stroke-linejoin:round;stroke-miterlimit:10;}
	.st3{fill:#FFFFFF;}
	.st4{fill:none;stroke:#272D63;stroke-width:5.3954;stroke-linecap:round;stroke-linejoin:round;stroke-miterlimit:10;}
	.st5{fill:#7B80B4;stroke:#272D63;stroke-width:12;stroke-linecap:round;stroke-linejoin:round;stroke-miterlimit:10;}
	.st6{fill:none;stroke:#272D63;stroke-width:12;stroke-linecap:round;stroke-linejoin:round;stroke-miterlimit:10;}
	.st7{fill:#FFFFFF;stroke:#272D63;stroke-width:12;stroke-linecap:round;stroke-linejoin:round;stroke-miterlimit:10;}
	
		.st8{fill:none;stroke:#272D63;stroke-width:12;stroke-linecap:round;stroke-linejoin:round;stroke-miterlimit:10;stroke-dasharray:23.1594,28.9493;}
	.st9{fill:#272D63;}
	.st10{fill:#7B80B4;}
</style>
<g>
	<g>
		<path class="st7" d="M800.8,329.9L661,368.7c3.4,12.1-3.7,24.6-15.8,28c-12.1,3.4-24.6-3.7-28-15.8l-443,122.7
			c-23.7,6.6-37.6,31.1-31.1,54.9l82.1,296.2c6.6,23.7,31.1,37.6,54.9,31.1l443-122.7c-3.4-12.1,3.7-24.6,15.8-28
			c12.1-3.4,24.6,3.7,28,15.8L906.7,712c23.7-6.6,37.6-31.1,31.1-54.9L855.7,361C849.1,337.3,824.5,323.4,800.8,329.9z"/>
		<line class="st8" x1="645.5" y1="398" x2="738.5" y2="733.6"/>
		<path class="st5" d="M616.4,559.1l-88,26.4l-86.3-70.1l-24.4,6.8l54.5,80.8l-78.4,23.9l-40.2-25.8l-24.4,6.8l36.7,41.5l3.5,12.8
			l-10.1,54.5l24.4-6.8l21.2-42.8l79.4-19.8l-5.1,96.9l24.4-6.8L541.6,633l89.2-22.3c14.6-3.7,23.4-18.6,19.3-33.2
			C646.1,563.1,630.8,554.7,616.4,559.1z"/>
		<g>
			
				<rect x="698.2" y="395" transform="matrix(0.9637 -0.267 0.267 0.9637 -81.0568 218.9034)" class="st9" width="132.4" height="25.1"/>
			
				<rect x="707.8" y="434.8" transform="matrix(0.9637 -0.267 0.267 0.9637 -89.9192 222.7096)" class="st9" width="132.4" height="14.3"/>
			
				<rect x="714" y="461" transform="matrix(0.9637 -0.267 0.267 0.9637 -95.7235 225.1954)" class="st9" width="132.4" height="7.2"/>
			
				<rect x="720.4" y="479.4" transform="matrix(0.9637 -0.267 0.267 0.9637 -101.6515 227.7413)" class="st9" width="132.4" height="16.5"/>
			
				<rect x="726.7" y="505.6" transform="matrix(0.9637 -0.267 0.267 0.9637 -107.4942 230.2497)" class="st9" width="132.4" height="9.6"/>
			
				<rect x="734" y="527.1" transform="matrix(0.9637 -0.267 0.267 0.9637 -114.2452 233.1491)" class="st9" width="132.4" height="19.2"/>
			
				<rect x="740.7" y="557.7" transform="matrix(0.9637 -0.267 0.267 0.9637 -120.426 235.7955)" class="st9" width="132.4" height="6"/>
			
				<rect x="745.6" y="573.8" transform="matrix(0.9637 -0.267 0.267 0.9637 -125.0333 237.7737)" class="st9" width="132.4" height="9.8"/>
			
				<rect x="752.4" y="594.8" transform="matrix(0.9637 -0.267 0.267 0.9637 -131.2811 240.4577)" class="st9" width="132.4" height="16.5"/>
			
				<rect x="759.2" y="622.8" transform="matrix(0.9637 -0.267 0.267 0.9637 -137.6014 243.1719)" class="st9" width="132.4" height="9.6"/>
			
				<rect x="768.3" y="643.5" transform="matrix(0.9637 -0.267 0.267 0.9637 -145.9913 246.7737)" class="st9" width="132.4" height="33.4"/>
		</g>
		
			<rect x="272.8" y="550.5" transform="matrix(0.9637 -0.267 0.267 0.9637 -171.0578 100.2031)" class="st10" width="20.2" height="257.2"/>
		
			<rect x="227" y="532.3" transform="matrix(0.9637 -0.267 0.267 0.9637 -176.1119 88.4276)" class="st10" width="20.2" height="319.1"/>
		<line class="st5" x1="395.9" y1="528.3" x2="309.4" y2="552.2"/>
		<line class="st5" x1="411.8" y1="556.7" x2="343.7" y2="575.5"/>
		<line class="st5" x1="457.4" y1="750.3" x2="370.9" y2="774.3"/>
		<line class="st5" x1="457.5" y1="721.5" x2="389.3" y2="740.4"/>
	</g>
	<g>
		<path class="st7" d="M527.3,104.9l-105.5,99.6c8.6,9.1,8.2,23.5-0.9,32.1c-9.1,8.6-23.5,8.2-32.1-0.9L54.6,551.4
			c-17.9,16.9-18.7,45.1-1.8,63l211,223.4c16.9,17.9,45.1,18.7,63,1.8L661,524c-8.6-9.1-8.2-23.5,0.9-32.1
			c9.1-8.6,23.5-8.2,32.1,0.9l105.5-99.6c17.9-16.9,18.7-45.1,1.8-63l-211-223.4C573.4,88.8,545.2,88,527.3,104.9z"/>
		<line class="st8" x1="421.9" y1="237.7" x2="661" y2="490.8"/>
		<path class="st5" d="M471.5,393.7L406,458.2l-109-21.6l-18.4,17.4l85.9,46l-58.1,57.8l-47.6-4l-18.4,17.4l51.9,19.5l9.1,9.7
			l16.5,52.9l18.4-17.4l-1.3-47.7l60.9-54.6l40.8,88.1l18.4-17.4l-15.3-110.1l68.4-61.4c11.2-10.1,11.9-27.4,1.6-38.4
			C499.5,383.3,482.2,383.1,471.5,393.7z"/>
		<g>
			
				<rect x="465.2" y="177.9" transform="matrix(0.727 -0.6867 0.6867 0.727 14.2779 416.919)" class="st9" width="132.4" height="25.1"/>
			
				<rect x="489.8" y="209.3" transform="matrix(0.727 -0.6867 0.6867 0.727 3.1256 440.9026)" class="st9" width="132.4" height="14.3"/>
			
				<rect x="505.9" y="230" transform="matrix(0.727 -0.6867 0.6867 0.727 -4.1912 456.5961)" class="st9" width="132.4" height="7.2"/>
			
				<rect x="522.3" y="242.7" transform="matrix(0.727 -0.6867 0.6867 0.727 -11.6508 472.6385)" class="st9" width="132.4" height="16.5"/>
			
				<rect x="538.5" y="263.3" transform="matrix(0.727 -0.6867 0.6867 0.727 -19.0044 488.4484)" class="st9" width="132.4" height="9.6"/>
			
				<rect x="557.3" y="278.3" transform="matrix(0.727 -0.6867 0.6867 0.727 -27.4997 506.7183)" class="st9" width="132.4" height="19.2"/>
			
				<rect x="574.4" y="303.1" transform="matrix(0.727 -0.6867 0.6867 0.727 -35.2924 523.4282)" class="st9" width="132.4" height="6"/>
			
				<rect x="587.2" y="314.7" transform="matrix(0.727 -0.6867 0.6867 0.727 -41.0909 535.8957)" class="st9" width="132.4" height="9.8"/>
			
				<rect x="604.5" y="329.7" transform="matrix(0.727 -0.6867 0.6867 0.727 -48.9517 552.8051)" class="st9" width="132.4" height="16.5"/>
			
				<rect x="622" y="351.7" transform="matrix(0.727 -0.6867 0.6867 0.727 -56.9052 569.9088)" class="st9" width="132.4" height="9.6"/>
			
				<rect x="645.3" y="364.4" transform="matrix(0.727 -0.6867 0.6867 0.727 -67.4654 592.6107)" class="st9" width="132.4" height="33.4"/>
		</g>
		
			<rect x="222.7" y="527.2" transform="matrix(0.727 -0.6867 0.6867 0.727 -386.7006 338.9033)" class="st10" width="20.2" height="257.2"/>
		
			<rect x="188.1" y="528.8" transform="matrix(0.727 -0.6867 0.6867 0.727 -418.5613 324.0796)" class="st10" width="20.2" height="319.1"/>
		<line class="st5" x1="262.2" y1="469.6" x2="196.9" y2="531.2"/>
		<line class="st5" x1="289.5" y1="487.2" x2="238.1" y2="535.8"/>
		<line class="st5" x1="420.4" y1="637.1" x2="355.1" y2="698.7"/>
		<line class="st5" x1="407" y1="611.6" x2="355.5" y2="660.2"/>
	</g>
</g>
</svg>
