<?xml version="1.0" encoding="utf-8"?>
<!-- Generator: Adobe Illustrator 26.0.3, SVG Export Plug-In . SVG Version: 6.00 Build 0)  -->
<svg version="1.1" id="Слой_1" xmlns="http://www.w3.org/2000/svg" xmlns:xlink="http://www.w3.org/1999/xlink" x="0px" y="0px"
	 viewBox="0 0 980 980" style="enable-background:new 0 0 980 980;" xml:space="preserve">
<style type="text/css">
	.st0{fill:none;stroke:#1D1D1B;stroke-width:7;stroke-linecap:round;stroke-linejoin:round;stroke-miterlimit:10;}
	.st1{fill:none;stroke:#272D63;stroke-width:15;stroke-linecap:round;stroke-linejoin:round;stroke-miterlimit:10;}
	.st2{fill:#7B80B4;stroke:#272D63;stroke-width:5.3954;stroke-linecap:round;stroke-linejoin:round;stroke-miterlimit:10;}
	.st3{fill:#FFFFFF;}
	.st4{fill:none;stroke:#272D63;stroke-width:5.3954;stroke-linecap:round;stroke-linejoin:round;stroke-miterlimit:10;}
	.st5{fill:#7B80B4;stroke:#272D63;stroke-width:12;stroke-linecap:round;stroke-linejoin:round;stroke-miterlimit:10;}
	.st6{fill:none;stroke:#272D63;stroke-width:12;stroke-linecap:round;stroke-linejoin:round;stroke-miterlimit:10;}
	.st7{fill:#FFFFFF;stroke:#272D63;stroke-width:12;stroke-linecap:round;stroke-linejoin:round;stroke-miterlimit:10;}
	
		.st8{fill:none;stroke:#272D63;stroke-width:12;stroke-linecap:round;stroke-linejoin:round;stroke-miterlimit:10;stroke-dasharray:23.1594,28.9493;}
	.st9{fill:#272D63;}
	.st10{fill:#7B80B4;}
	.st11{fill:#7B80B4;stroke:#272D63;stroke-width:20;stroke-linecap:round;stroke-linejoin:round;stroke-miterlimit:10;}
	.st12{fill:none;stroke:#272D63;stroke-width:20;stroke-linecap:round;stroke-linejoin:round;stroke-miterlimit:10;}
	.st13{fill:#FFFFFF;stroke:#272D63;stroke-width:20;stroke-linecap:round;stroke-linejoin:round;stroke-miterlimit:10;}
	
		.st14{fill:none;stroke:#272D63;stroke-width:20;stroke-linecap:round;stroke-linejoin:round;stroke-miterlimit:10;stroke-dasharray:23.1594,28.9493;}
	.st15{fill:#FFFFFF;stroke:#272D63;stroke-width:20.0121;stroke-linecap:round;stroke-linejoin:round;stroke-miterlimit:10;}
	.st16{fill:#7B80B4;stroke:#272D63;stroke-width:20.0121;stroke-linecap:round;stroke-linejoin:round;stroke-miterlimit:10;}
</style>
<g>
	<circle class="st13" cx="490" cy="490" r="409.4"/>
	<g id="XMLID_00000128448694207692495410000008517665573901700276_">
		<g>
			<polygon class="st10" points="648.5,364.2 407.8,573.2 402.7,709.2 348.1,544.3 			"/>
			<polygon class="st10" points="487,633.4 402.7,709.2 407.8,573.2 			"/>
			<path class="st10" d="M742.6,264.2c9.8-3.7,19.7,5,17.3,15.2l-103,440.8c-3.9,16.9-23.9,24.1-37.7,13.6L487,633.4l-79.2-60.2
				l240.7-209L348.1,544.3l-137.8-43.4c-16.3-5.1-16.9-27.9-1-33.9L742.6,264.2z"/>
		</g>
		<g>
			<path class="st12" d="M407.8,573.2l240.7-209L348.1,544.3l-137.8-43.4c-16.3-5.1-16.9-27.9-1-33.9l533.3-202.8
				c9.8-3.7,19.7,5,17.3,15.2l-103,440.8c-3.9,16.9-23.9,24.1-37.7,13.6L487,633.4L407.8,573.2z"/>
			<polyline class="st12" points="348.1,544.3 402.7,709.2 407.8,573.2 			"/>
			<line class="st12" x1="487" y1="633.4" x2="402.7" y2="709.2"/>
		</g>
	</g>
</g>
</svg>
