<?xml version="1.0" encoding="utf-8"?>
<!-- Generator: Adobe Illustrator 26.0.3, SVG Export Plug-In . SVG Version: 6.00 Build 0)  -->
<svg version="1.1" id="Слой_1" xmlns="http://www.w3.org/2000/svg" xmlns:xlink="http://www.w3.org/1999/xlink" x="0px" y="0px"
	 viewBox="0 0 980 980" style="enable-background:new 0 0 980 980;" xml:space="preserve">
<style type="text/css">
	.st0{fill:#7B80B4;stroke:#272D63;stroke-width:20;stroke-linecap:round;stroke-linejoin:round;stroke-miterlimit:10;}
	.st1{fill:#FFFFFF;}
	.st2{fill:none;stroke:#272D63;stroke-width:20;stroke-linecap:round;stroke-linejoin:round;stroke-miterlimit:10;}
	.st3{fill:#FFFFFF;stroke:#272D63;stroke-width:20;stroke-linecap:round;stroke-linejoin:round;stroke-miterlimit:10;}
	
		.st4{fill:none;stroke:#272D63;stroke-width:20;stroke-linecap:round;stroke-linejoin:round;stroke-miterlimit:10;stroke-dasharray:23.1594,28.9493;}
	.st5{fill:#272D63;}
	.st6{fill:#7B80B4;}
	.st7{fill:#FFFFFF;stroke:#272D63;stroke-width:20.0121;stroke-linecap:round;stroke-linejoin:round;stroke-miterlimit:10;}
	.st8{fill:#7B80B4;stroke:#272D63;stroke-width:20.0121;stroke-linecap:round;stroke-linejoin:round;stroke-miterlimit:10;}
	.st9{fill:none;stroke:#272D63;stroke-width:20.202;stroke-linecap:round;stroke-linejoin:round;stroke-miterlimit:10;}
	.st10{fill:none;stroke:#272D63;stroke-width:17.5882;stroke-linecap:round;stroke-linejoin:round;stroke-miterlimit:10;}
	.st11{fill:#7B80B4;stroke:#272D63;stroke-width:18.181;stroke-linecap:round;stroke-linejoin:round;stroke-miterlimit:10;}
	
		.st12{fill:none;stroke:#272D63;stroke-width:20;stroke-linecap:round;stroke-linejoin:round;stroke-miterlimit:10;stroke-dasharray:28.0422,35.0527;}
</style>
<g>
	<rect x="90" y="610.5" class="st0" width="800" height="57.8"/>
	<rect x="131.6" y="668.3" class="st0" width="716.8" height="190.5"/>
	<g>
		<g id="XMLID_00000050656923278936002720000002980708009226100114_">
			<g>
				<path class="st1" d="M266.7,447.9c-18.8,0-31.3-15.8-31.3-15.8v-41.7l0.3-0.6c9.4,4.5,19.9,7.1,31,7.1c11.1,0,21.6-2.5,31-7.1
					l0.3,0.6v41.7C298,432.1,285.3,447.9,266.7,447.9z"/>
				<path class="st1" d="M227.9,259.5c0,0,54.2,42.9,109.6,30.7c0,0,0.1,0,0.3,0l0,0.3v35.4c0,3.6-0.3,7.1-0.8,10.5
					c-3.5,23.6-18.6,43.4-39.3,53.5c-9.4,4.5-19.9,7.1-31,7.1c-11.1,0-21.6-2.5-31-7.1c-20.7-10.1-35.8-29.9-39.3-53.4
					c-0.5-3.4-0.8-7-0.8-10.5v-35.3c0.2,0,0.3,0,0.3,0C198.4,289.9,217,273.4,227.9,259.5z"/>
				<path class="st1" d="M235.4,432.1c0,0,12.5,15.8,31.3,15.8c18.6,0,31.3-15.8,31.3-15.8s45.3,18.4,59.6,23.6
					c18.7,6.9,32,23.6,32,43.5c0,9.9,0,109.9,0,109.9h-245c0,0,0-100.1,0-110c0-19.9,13.2-36.6,31.9-43.5
					C190.5,450.4,235.4,432.1,235.4,432.1z"/>
				<path class="st1" d="M337.8,325.9v-35.4l0-0.3c1.9,0.1,12.1,0.5,12.1,0.5h1c6.9,0,12.4,5.7,12.1,12.6l-0.9,21.6
					c-0.3,6.5-5.6,11.7-12.1,11.7h-11.4l-1.6-0.2C337.5,333,337.8,329.5,337.8,325.9z"/>
				<path class="st1" d="M195.6,290.7v35.3c0,3.6,0.3,7.1,0.8,10.5l-1.4,0.2h-12c-6.5,0-11.9-5.1-12.1-11.7l-0.9-21.6
					c-0.3-6.9,5.2-12.6,12.1-12.6h10.7v-0.1C194.1,290.7,195.2,290.7,195.6,290.7z"/>
				<path class="st6" d="M195.6,290.7c-0.5,0-1.5,0-2.8,0c-3.5,0-8.6,0-8.6,0v-38.2c0-37,30-67.1,67.1-67.1h31.5
					c37,0,67.1,42.1,67.1,79.1v26.2c0,0-10.2-0.5-12.1-0.5c-0.2,0-0.3,0-0.3,0c-55.4,12.2-109.6-30.7-109.6-30.7
					c-10.9,13.9-29.4,30.4-31.9,31.1C195.9,290.7,195.8,290.7,195.6,290.7z"/>
			</g>
			<g>
				<path class="st2" d="M337.8,290.5v35.4c0,3.6-0.3,7.1-0.8,10.5c-3.5,23.6-18.6,43.4-39.3,53.5c-9.4,4.5-19.9,7.1-31,7.1
					c-11.1,0-21.6-2.5-31-7.1c-20.7-10.1-35.8-29.9-39.3-53.4c-0.5-3.4-0.8-7-0.8-10.5v-35.3"/>
				<path class="st2" d="M195,290.7h-2.2h-10.7c-6.9,0-12.4,5.7-12.1,12.6l0.9,21.6c0.3,6.5,5.6,11.7,12.1,11.7h12"/>
				<path class="st2" d="M338.6,290.7h11.3h1c6.9,0,12.4,5.7,12.1,12.6l-0.9,21.6c-0.3,6.5-5.6,11.7-12.1,11.7h-11.4"/>
				<path class="st2" d="M192.8,290.7c-3.5,0-8.6,0-8.6,0v-38.2c0-37,30-67.1,67.1-67.1h31.5c37,0,67.1,30,67.1,67.1v38.2
					c0,0-10.2-0.5-12.1-0.5c-0.2,0-0.3,0-0.3,0c-55.4,12.2-109.6-30.7-109.6-30.7c-10.9,13.9-29.4,30.4-31.9,31.1c0,0-0.1,0-0.3,0
					C195.2,290.7,194.1,290.7,192.8,290.7z"/>
				<path class="st2" d="M298,390.5v41.7c0,0-12.7,15.8-31.3,15.8c-18.8,0-31.3-15.8-31.3-15.8v-41.7"/>
				<path class="st2" d="M235.4,432.1c0,0-31.5,12.2-59,23.5c-18.4,7.6-31.9,23.6-31.9,43.5c0,9.9,0,110,0,110h245
					c0,0,0-100.1,0-109.9c0-19.9-13.5-35.9-32-43.5c-28.7-11.8-59.6-23.6-59.6-23.6"/>
			</g>
			<line class="st2" x1="189.1" y1="548.6" x2="189.1" y2="607.5"/>
			<line class="st2" x1="344.3" y1="548.6" x2="344.3" y2="607.5"/>
		</g>
		<g id="XMLID_00000026147646533401280160000007239691020577852561_">
			<g>
				<path class="st1" d="M712.6,447.7c-18.8,0-31.3-15.8-31.3-15.8v-41.7l0.3-0.6c9.4,4.5,19.9,7.1,31,7.1s21.6-2.5,31-7.1l0.3,0.6
					v41.7C743.9,431.9,731.2,447.7,712.6,447.7z"/>
				<path class="st1" d="M673.8,259.2c0,0,54.2,42.9,109.6,30.7c0,0,0.1,0,0.3,0l0,0.3v35.4c0,3.6-0.3,7.1-0.8,10.5
					c-3.5,23.6-18.6,43.4-39.3,53.5c-9.4,4.5-19.9,7.1-31,7.1s-21.6-2.5-31-7.1c-20.7-10.1-35.8-29.9-39.3-53.4
					c-0.5-3.4-0.8-7-0.8-10.5v-35.3c0.2,0,0.3,0,0.3,0C644.4,289.6,662.9,273.2,673.8,259.2z"/>
				<path class="st1" d="M681.3,431.9c0,0,12.5,15.8,31.3,15.8c18.6,0,31.3-15.8,31.3-15.8s45.3,18.4,59.6,23.6
					c18.7,6.9,32,23.6,32,43.5c0,9.9-0.3,109.9-0.3,109.9h-245c0,0,0.3-100.1,0.3-110c0-19.9,13.2-36.6,31.9-43.5
					C636.4,450.2,681.3,431.9,681.3,431.9z"/>
				<path class="st1" d="M783.7,325.6v-35.4l0-0.3c1.9,0.1,12.1,0.5,12.1,0.5h1c6.9,0,12.4,5.7,12.1,12.6l-0.9,21.6
					c-0.3,6.5-5.6,11.7-12.1,11.7h-11.4l-1.6-0.2C783.4,332.7,783.7,329.2,783.7,325.6z"/>
				<path class="st1" d="M641.5,290.4v35.3c0,3.6,0.3,7.1,0.8,10.5l-1.4,0.2h-12c-6.5,0-11.9-5.1-12.1-11.7l-0.9-21.6
					c-0.3-6.9,5.2-12.6,12.1-12.6h10.7v-0.1C640,290.4,641.1,290.4,641.5,290.4z"/>
				<path class="st6" d="M641.5,290.4c-0.5,0-1.5,0-2.8,0c-3.5,0-8.6,0-8.6,0v-38.2c0-37,30-67.1,67.1-67.1h31.5
					c37,0,67.1,42.1,67.1,79.1v26.2c0,0-10.2-0.5-12.1-0.5c-0.2,0-0.3,0-0.3,0c-55.4,12.2-109.6-30.7-109.6-30.7
					c-10.9,13.9-29.4,30.4-31.9,31.1C641.8,290.4,641.7,290.4,641.5,290.4z"/>
			</g>
			<g>
				<path class="st2" d="M783.7,290.2v35.4c0,3.6-0.3,7.1-0.8,10.5c-3.5,23.6-18.6,43.4-39.3,53.5c-9.4,4.5-19.9,7.1-31,7.1
					s-21.6-2.5-31-7.1c-20.7-10.1-35.8-29.9-39.3-53.4c-0.5-3.4-0.8-7-0.8-10.5v-35.3"/>
				<path class="st2" d="M640.9,290.5h-2.2h-10.7c-6.9,0-12.4,5.7-12.1,12.6l0.9,21.6c0.3,6.5,5.6,11.7,12.1,11.7h12"/>
				<path class="st2" d="M784.5,290.5h11.3h1c6.9,0,12.4,5.7,12.1,12.6l-0.9,21.6c-0.3,6.5-5.6,11.7-12.1,11.7h-11.4"/>
				<path class="st2" d="M638.7,290.4c-3.5,0-8.6,0-8.6,0v-38.2c0-37,30-67.1,67.1-67.1h31.5c37,0,67.1,30,67.1,67.1v38.2
					c0,0-10.2-0.5-12.1-0.5c-0.2,0-0.3,0-0.3,0c-55.4,12.2-109.6-30.7-109.6-30.7c-10.9,13.9-29.4,30.4-31.9,31.1c0,0-0.1,0-0.3,0
					C641.1,290.4,640,290.4,638.7,290.4z"/>
				<path class="st2" d="M743.9,390.2v41.7c0,0-12.7,15.8-31.3,15.8c-18.8,0-31.3-15.8-31.3-15.8v-41.7"/>
				<path class="st2" d="M681.3,431.9c0,0-31.5,12.2-59,23.5c-18.4,7.6-31.9,23.6-31.9,43.5c0,9.9,0,110,0,110h245
					c0,0,0-100.1,0-109.9c0-19.9-13.5-35.9-32-43.5c-28.7-11.8-59.6-23.6-59.6-23.6"/>
			</g>
			<line class="st2" x1="635.1" y1="546.5" x2="635.1" y2="605.4"/>
			<line class="st2" x1="790.2" y1="546.5" x2="790.2" y2="605.4"/>
		</g>
		<g id="XMLID_00000124873074559518504940000006661190604031157131_">
			<g>
				<path class="st1" d="M489.9,431.9c-22.4,0-37.3-18.9-37.3-18.9v-49.7l0.3-0.7c11.2,5.4,23.7,8.5,36.9,8.5c13.2,0,25.8-3,37-8.5
					l0.3,0.7V413C527.2,413,512,431.9,489.9,431.9z"/>
				<path class="st1" d="M443.6,207.2c0,0,64.6,51.1,130.7,36.6c0,0,0.1,0,0.3,0l0,0.4v42.2c0,4.3-0.3,8.4-0.9,12.5
					c-4.2,28.1-22.2,51.7-46.8,63.7c-11.2,5.4-23.7,8.5-37,8.5c-13.2,0-25.8-3-36.9-8.5c-24.7-12-42.7-35.6-46.8-63.7
					c-0.6-4.1-0.9-8.3-0.9-12.6v-42c0.2,0,0.3,0,0.3,0C408.5,243.4,430.6,223.8,443.6,207.2z"/>
				<path class="st1" d="M452.6,413c0,0,14.9,18.9,37.3,18.9c22.1,0,37.3-18.9,37.3-18.9s54,21.9,71,28.1
					c22.3,8.2,38.1,28.1,38.1,51.9c0,11.8,0,113.3,0,113.3H344.3c0,0,0-101.6,0-113.3c0-23.7,15.8-43.6,38-51.8
					C399.1,434.8,452.6,413,452.6,413z"/>
				<path class="st1" d="M574.6,286.4v-42.2l0-0.4c2.2,0.1,14.4,0.7,14.4,0.7h1.2c8.2,0,14.8,6.8,14.5,15l-1,25.8
					c-0.3,7.8-6.7,13.9-14.5,13.9h-13.6l-1.9-0.3C574.3,294.8,574.6,290.7,574.6,286.4z"/>
				<path class="st1" d="M405.2,244.4v42c0,4.3,0.3,8.5,0.9,12.6l-1.7,0.2h-14.3c-7.8,0-14.1-6.1-14.5-13.9l-1-25.8
					c-0.3-8.2,6.2-15,14.5-15h12.7v-0.1C403.3,244.4,404.6,244.4,405.2,244.4z"/>
				<path class="st6" d="M405.2,244.4c-0.6,0-1.8,0-3.4,0c-4.1,0-10.2,0-10.2,0v-31.2c0-44.2,35.8-92,80-92h37.5
					c44.2,0,80,47.8,80,92v31.3c0,0-12.2-0.6-14.4-0.7c-0.2,0-0.3,0-0.3,0c-66.1,14.5-130.7-36.6-130.7-36.6
					c-13,16.6-35.1,36.2-38.1,37.1C405.5,244.4,405.4,244.4,405.2,244.4z"/>
			</g>
			<g>
				<path class="st2" d="M574.6,244.2v42.2c0,4.3-0.3,8.4-0.9,12.5c-4.2,28.1-22.2,51.7-46.8,63.7c-11.2,5.4-23.7,8.5-37,8.5
					c-13.2,0-25.8-3-36.9-8.5c-24.7-12-42.7-35.6-46.8-63.7c-0.6-4.1-0.9-8.3-0.9-12.6v-42"/>
				<path class="st2" d="M404.5,244.4h-2.6h-12.7c-8.2,0-14.8,6.8-14.5,15l1,25.8c0.3,7.8,6.7,13.9,14.5,13.9h14.3"/>
				<path class="st2" d="M575.6,244.4H589h1.2c8.2,0,14.8,6.8,14.5,15l-1,25.8c-0.3,7.8-6.7,13.9-14.5,13.9h-13.6"/>
				<path class="st2" d="M401.8,244.4c-4.1,0-10.2,0-10.2,0v-43.2c0-44.2,35.8-80,80-80h37.5c44.2,0,80,35.8,80,80v43.3
					c0,0-12.2-0.6-14.4-0.7c-0.2,0-0.3,0-0.3,0c-66.1,14.5-130.7-36.6-130.7-36.6c-13,16.6-35.1,36.2-38.1,37.1c0,0-0.1,0-0.3,0
					C404.6,244.4,403.3,244.4,401.8,244.4z"/>
				<path class="st2" d="M527.2,363.3V413c0,0-15.2,18.9-37.3,18.9c-22.4,0-37.3-18.9-37.3-18.9v-49.7"/>
				<path class="st2" d="M452.6,413c0,0-37.5,14.5-70.3,28c-21.9,9.1-38,28.1-38,51.8c0,11.8,0,117.6,0,117.6h292.1
					c0,0,0-105.7,0-117.5c0-23.8-16.1-42.8-38.1-51.9c-34.2-14-71-28.1-71-28.1"/>
			</g>
			<line class="st2" x1="401.2" y1="542.8" x2="401.2" y2="610.5"/>
			<line class="st2" x1="579.4" y1="542.8" x2="579.4" y2="610.5"/>
		</g>
	</g>
</g>
</svg>
