<?xml version="1.0" encoding="utf-8"?>
<!-- Generator: Adobe Illustrator 26.0.3, SVG Export Plug-In . SVG Version: 6.00 Build 0)  -->
<svg version="1.1" id="Слой_1" xmlns="http://www.w3.org/2000/svg" xmlns:xlink="http://www.w3.org/1999/xlink" x="0px" y="0px"
	 viewBox="0 0 980 980" style="enable-background:new 0 0 980 980;" xml:space="preserve">
<style type="text/css">
	.st0{fill:#7B80B4;stroke:#272D63;stroke-width:20;stroke-linecap:round;stroke-linejoin:round;stroke-miterlimit:10;}
	.st1{fill:#FFFFFF;}
	.st2{fill:none;stroke:#272D63;stroke-width:20;stroke-linecap:round;stroke-linejoin:round;stroke-miterlimit:10;}
	.st3{fill:#FFFFFF;stroke:#272D63;stroke-width:20;stroke-linecap:round;stroke-linejoin:round;stroke-miterlimit:10;}
	
		.st4{fill:none;stroke:#272D63;stroke-width:20;stroke-linecap:round;stroke-linejoin:round;stroke-miterlimit:10;stroke-dasharray:23.1594,28.9493;}
	.st5{fill:#272D63;}
	.st6{fill:#7B80B4;}
	.st7{fill:#FFFFFF;stroke:#272D63;stroke-width:20.0121;stroke-linecap:round;stroke-linejoin:round;stroke-miterlimit:10;}
	.st8{fill:#7B80B4;stroke:#272D63;stroke-width:20.0121;stroke-linecap:round;stroke-linejoin:round;stroke-miterlimit:10;}
	.st9{fill:none;stroke:#272D63;stroke-width:20.202;stroke-linecap:round;stroke-linejoin:round;stroke-miterlimit:10;}
	.st10{fill:none;stroke:#272D63;stroke-width:17.5882;stroke-linecap:round;stroke-linejoin:round;stroke-miterlimit:10;}
	.st11{fill:#7B80B4;stroke:#272D63;stroke-width:18.181;stroke-linecap:round;stroke-linejoin:round;stroke-miterlimit:10;}
	
		.st12{fill:none;stroke:#272D63;stroke-width:20;stroke-linecap:round;stroke-linejoin:round;stroke-miterlimit:10;stroke-dasharray:28.0422,35.0527;}
</style>
<g>
	<path class="st12" d="M326.4,221.8l411.3-1.8c71.4-0.3,129.3,57.6,129,128.9v0c-0.3,70.8-57.7,128-128.5,128H252
		c-70.8,0-128.2,57.2-128.5,128l0,0.6c-0.3,71.1,57.3,128.9,128.5,128.9h600.3"/>
	<circle class="st3" cx="224.6" cy="221.4" r="131.4"/>
	<g>
		<path class="st5" d="M169.8,278.6l19.6-28.4c4.8,4.4,10.6,8.2,17.3,11.2c6.7,3.1,13.1,4.6,19.2,4.6c4.4,0,8.2-1,11.3-2.9
			c3.1-1.9,4.7-5,4.7-9.3c0-3-2.4-5.9-7.2-8.6c-4.8-2.8-10.6-5.6-17.4-8.3c-6.8-2.8-13.6-6-20.4-9.7c-6.8-3.7-12.5-8.8-17.3-15.3
			c-4.8-6.5-7.2-14-7.2-22.5c0-11.7,3.8-21.6,11.3-29.8c7.5-8.2,17.4-13.4,29.5-15.7v-20.1h23.3v19.4c15.4,1.6,28.4,7.1,39.1,16.7
			l-15.8,30.5c-4.6-3.8-9.9-7-16-9.6c-6.1-2.6-12-3.8-17.7-3.8c-4.4,0-8.2,1-11.4,3c-3.2,2-4.8,5-4.8,9c0,3.3,2.4,6.3,7.2,9
			c4.8,2.7,10.5,5.4,17.3,8c6.8,2.6,13.6,5.7,20.4,9.2c6.8,3.5,12.6,8.5,17.4,15.1c4.8,6.6,7.2,14.2,7.2,22.9
			c0,11.7-3.8,21.8-11.4,30.4c-7.6,8.6-18,14-31.3,16.1V319h-23.3v-19.4C195.1,296.8,180.6,289.9,169.8,278.6z"/>
	</g>
	<path class="st0" d="M495.4,770.4l124.1-2.7l87,122.3l34.2,0L699,765.2l110.6-2.8l43,48.1l34.2,0L854,743.2v-17.9l32.8-67.3
		l-34.2,0l-43,48l-110.4-2.8l41.6-124.3l-34.2,0l-87,122.3L495.4,698c-20.4-0.5-37.1,15.8-37.1,36.2S475.1,770.9,495.4,770.4z"/>
</g>
</svg>
