<?xml version="1.0" encoding="UTF-8"?>
<!DOCTYPE svg PUBLIC "-//W3C//DTD SVG 1.0//EN" "http://www.w3.org/TR/2001/REC-SVG-20010904/DTD/svg10.dtd">
<!-- Creator: CorelDRAW X8 -->
<svg xmlns="http://www.w3.org/2000/svg" xml:space="preserve" width="6.0941mm" height="4.8324mm" version="1.0" style="shape-rendering:geometricPrecision; text-rendering:geometricPrecision; image-rendering:optimizeQuality; fill-rule:evenodd; clip-rule:evenodd"
viewBox="0 0 40 32"
 xmlns:xlink="http://www.w3.org/1999/xlink">
 <defs>
  <style type="text/css">
   <![CDATA[
    .str0 {stroke:#211F2E;stroke-width:1.12238;stroke-linecap:round;stroke-linejoin:round}
    .fil1 {fill:none}
    .fil0 {fill:#303AFD}
    .fil2 {fill:white}
   ]]>
  </style>
 </defs>
 <g id="Слой_x0020_1">
  <metadata id="CorelCorpID_0Corel-Layer"/>
  <g id="_1859144861792">
   <g>
    <path class="fil0 str0" d="M4 1l16 0c2,0 3,1 3,3l0 9c0,2 -1,4 -3,4l-6 0 -8 7 0 -7 -2 0c-2,0 -3,-2 -3,-4l0 -9c0,-2 1,-3 3,-3z"/>
    <path class="fil1 str0" d="M4 5l15 0"/>
    <path class="fil1 str0" d="M4 8l15 0"/>
    <path class="fil1 str0" d="M4 12l15 0"/>
    <path class="fil2 str0" d="M36 8l-15 0c-2,0 -4,2 -4,4l0 9c0,2 2,4 4,4l5 0 9 6 0 -6 1 0c2,0 4,-2 4,-4l0 -9c0,-2 -2,-4 -4,-4z"/>
    <path class="fil1 str0" d="M21 12l15 0"/>
    <path class="fil1 str0" d="M21 16l15 0"/>
    <path class="fil1 str0" d="M21 20l15 0"/>
   </g>
  </g>
 </g>
</svg>
