<?xml version="1.0" encoding="UTF-8"?>
<!DOCTYPE svg PUBLIC "-//W3C//DTD SVG 1.0//EN" "http://www.w3.org/TR/2001/REC-SVG-20010904/DTD/svg10.dtd">
<!-- Creator: CorelDRAW X8 -->
<svg xmlns="http://www.w3.org/2000/svg" xml:space="preserve" width="6.1637mm" height="6.0616mm" version="1.0" style="shape-rendering:geometricPrecision; text-rendering:geometricPrecision; image-rendering:optimizeQuality; fill-rule:evenodd; clip-rule:evenodd"
viewBox="0 0 940 925"
 xmlns:xlink="http://www.w3.org/1999/xlink">
 <defs>
  <style type="text/css">
   <![CDATA[
    .str1 {stroke:#211F2E;stroke-width:25.8257;stroke-linecap:round}
    .str0 {stroke:#211F2E;stroke-width:25.8257;stroke-linecap:round;stroke-linejoin:round}
    .fil2 {fill:none}
    .fil3 {fill:#303AFD}
    .fil1 {fill:#7B80B4}
    .fil0 {fill:white}
   ]]>
  </style>
 </defs>
 <g id="Слой_x0020_1">
  <metadata id="CorelCorpID_0Corel-Layer"/>
  <g id="_1859221697360">
   <g>
    <g>
     <path class="fil0" d="M658 579c-43,0 -71,-35 -71,-35l0 -95 1 -1c21,10 45,16 70,16 25,0 49,-6 70,-16l0 1 0 95c0,0 -28,35 -70,35z"/>
     <path class="fil0" d="M570 153c0,0 122,97 248,70 0,0 0,0 0,0l0 0 0 80c0,9 0,17 -1,24 -8,54 -42,98 -89,121 -21,10 -45,16 -70,16 -25,0 -49,-6 -70,-16 -47,-23 -81,-67 -89,-121 -1,-7 -2,-15 -2,-24l0 -79c0,0 0,0 1,0 5,-2 47,-39 72,-71z"/>
     <path class="fil0" d="M587 544c0,0 28,35 71,35 42,0 70,-35 70,-35l127 39c43,14 72,54 72,98l0 103 -537 0 0 -103c0,-45 29,-84 72,-98l125 -39z"/>
     <path class="fil0" d="M818 303l0 -80 0 -1c5,1 28,2 28,2l6 0c16,0 28,13 27,28l-1 49c-1,15 -13,27 -28,27l-30 0 -3 -1c1,-8 1,-16 1,-24z"/>
     <path class="fil0" d="M497 224l0 79c0,8 0,16 2,24l-3 1 -30 0c-15,0 -27,-12 -28,-27l-2 -49c-1,-15 12,-28 28,-28l26 0 0 -1c3,1 6,1 7,1z"/>
     <path class="fil1" d="M497 224c-1,0 -4,0 -6,0 -8,0 -20,0 -20,0l0 -60c0,-83 68,-151 152,-151l71 0c84,0 152,68 152,151l0 60c0,0 -23,-1 -28,-2 0,0 0,0 0,0 -126,28 -248,-69 -248,-69 -25,32 -67,69 -72,71 0,0 -1,0 -1,0z"/>
    </g>
    <path class="fil2 str0" d="M818 223l0 80c0,9 0,17 -1,24 -8,54 -42,98 -89,121 -21,10 -45,16 -70,16 -25,0 -49,-6 -70,-16 -47,-23 -81,-67 -89,-121 -1,-7 -2,-15 -2,-24l0 -79"/>
    <path class="fil2 str0" d="M496 224l-5 0 -27 0c-16,0 -28,13 -28,28l2 49c1,15 13,27 28,27l30 0"/>
    <path class="fil2 str0" d="M820 224l26 0 6 0c16,0 28,13 27,28l-1 49c-1,15 -13,27 -28,27l-30 0"/>
    <path class="fil3 str0" d="M491 224c-8,0 -20,0 -20,0l0 -59c0,-84 68,-152 152,-152l71 0c84,0 152,68 152,152l0 59c0,0 -23,-1 -28,-1 0,0 0,0 0,0 -126,27 -248,-70 -248,-70 -25,32 -67,69 -72,71 0,0 -1,0 -1,0 -1,0 -4,0 -6,0z"/>
    <path class="fil2 str0" d="M728 449l0 95c0,0 -28,35 -70,35 -43,0 -71,-35 -71,-35l0 -95"/>
    <path class="fil3" d="M649 594c-8,10 -21,28 -28,38 -7,10 -8,12 -5,17 2,6 8,16 12,24 4,8 5,14 6,19 0,5 0,8 -5,22 -4,14 -13,39 -18,52 -5,14 -7,16 4,17 10,1 33,1 54,1 22,0 42,0 51,0 9,-1 8,-3 1,-17 -6,-13 -18,-38 -25,-52 -7,-14 -9,-18 -10,-20 0,-2 0,-3 4,-10 3,-7 10,-21 14,-28 3,-7 3,-7 -4,-18 -6,-10 -21,-30 -28,-41 -8,-11 -9,-14 -11,-15 -2,0 -5,1 -12,11z"/>
    <path class="fil2 str1" d="M611 647c8,16 16,32 25,49 16,-1 33,-2 49,-2 14,29 28,55 42,85m-119 -1c9,-28 18,-55 28,-82m74 -51c-8,16 -17,32 -25,49"/>
    <path class="fil2 str0" d="M658 579l46 68c0,0 56,-26 86,-84"/>
    <path class="fil2 str0" d="M658 579l-47 68c0,0 -57,-31 -85,-84"/>
    <path class="fil2 str0" d="M587 544l-125 39c-43,14 -72,53 -72,98l0 103 537 0 0 -103c0,-45 -29,-84 -72,-98l-127 -39"/>
   </g>
   <g>
    <g>
     <path class="fil0" d="M242 736c-36,0 -60,-31 -60,-31l0 -80 0 -1c19,9 39,13 60,13 22,0 42,-4 61,-13l0 1 0 80c0,0 -25,31 -61,31z"/>
     <path class="fil0" d="M167 371c0,0 105,83 213,60 0,0 0,0 0,0l0 0 0 69c0,7 0,14 -1,20 -7,46 -36,84 -76,104 -19,9 -39,13 -61,13 -21,0 -41,-4 -60,-13 -40,-20 -69,-58 -76,-104 -1,-6 -1,-13 -1,-20l0 -69c0,0 0,0 0,0 5,-1 41,-33 62,-60z"/>
     <path class="fil0" d="M182 705c0,0 24,31 60,31 36,0 61,-31 61,-31l108 34c37,12 62,46 62,85l0 88 -460 0 0 -89c0,-38 25,-72 62,-84l107 -34z"/>
     <path class="fil0" d="M380 500l0 -69 0 -1c4,1 24,1 24,1l5 0c13,0 24,12 23,25l-1 42c-1,12 -11,23 -24,23l-25 -1 -3 0c1,-7 1,-13 1,-20z"/>
     <path class="fil0" d="M105 431l0 69c0,7 0,13 1,20l-2 0 -26 0c-13,0 -23,-10 -24,-22l-1 -42c-1,-13 10,-25 23,-25l23 0 0 0c3,0 5,0 6,0z"/>
     <path class="fil1" d="M105 431c-1,0 -3,0 -6,0 -6,0 -16,0 -16,0l0 -50c0,-72 58,-130 130,-130l61 0c71,0 129,58 129,130l0 50c0,0 -19,0 -23,-1 0,0 -1,0 -1,0 -107,24 -212,-59 -212,-59 -21,27 -57,59 -62,60 0,0 0,0 0,0z"/>
    </g>
    <path class="fil2 str0" d="M380 431l0 69c0,7 0,14 -1,20 -7,46 -36,84 -76,104 -19,9 -39,13 -61,13 -21,0 -41,-4 -60,-13 -40,-20 -69,-58 -76,-104 -1,-6 -1,-13 -1,-20l0 -69"/>
    <path class="fil2 str0" d="M104 432l-5 0 -23 0c-13,0 -24,11 -23,24l2 42c0,13 10,23 23,23l26 0"/>
    <path class="fil2 str0" d="M382 432l22 0 5 0c13,0 24,11 23,24l-1 42c-1,13 -11,23 -24,23l-25 0"/>
    <path class="fil3 str0" d="M99 431c-6,0 -16,0 -16,0l0 -50c0,-72 58,-130 130,-130l61 0c71,0 129,58 129,130l0 51c0,0 -19,-1 -23,-1 0,0 -1,0 -1,0 -107,23 -212,-60 -212,-60 -21,27 -57,59 -62,60 0,0 0,0 0,0 -1,0 -3,0 -6,0z"/>
    <path class="fil2 str0" d="M303 625l0 80c0,0 -25,31 -61,31 -36,0 -60,-31 -60,-31l0 -80"/>
    <path class="fil3" d="M235 748c-7,9 -18,25 -24,33 -6,9 -7,10 -5,15 3,5 8,13 11,20 3,7 4,12 5,16 0,4 0,7 -4,19 -4,12 -11,33 -16,45 -4,12 -6,14 4,15 9,1 28,1 47,1 18,0 35,0 43,-1 8,-1 7,-2 1,-14 -6,-11 -16,-32 -22,-45 -6,-12 -7,-15 -8,-17 -1,-2 0,-3 3,-9 3,-6 9,-17 12,-23 3,-6 3,-7 -3,-16 -6,-8 -18,-25 -25,-35 -6,-9 -7,-12 -9,-12 -1,-1 -4,0 -10,8z"/>
    <path class="fil2 str1" d="M202 794c7,14 15,28 22,42 14,-1 28,-1 42,-2 12,25 24,48 36,73m-102 -1c8,-24 16,-47 24,-70m63 -44c-7,14 -14,28 -21,42"/>
    <path class="fil2 str0" d="M242 736l40 58c0,0 48,-22 74,-72"/>
    <path class="fil2 str0" d="M242 736l-40 58c0,0 -49,-27 -73,-72"/>
    <path class="fil2 str0" d="M182 705l-107 34c-37,12 -62,46 -62,84l0 89 460 0 0 -88c0,-39 -25,-73 -62,-85l-108 -34"/>
   </g>
  </g>
 </g>
</svg>
