<?xml version="1.0" encoding="UTF-8"?>
<!DOCTYPE svg PUBLIC "-//W3C//DTD SVG 1.0//EN" "http://www.w3.org/TR/2001/REC-SVG-20010904/DTD/svg10.dtd">
<!-- Creator: CorelDRAW X8 -->
<svg xmlns="http://www.w3.org/2000/svg" xml:space="preserve" width="6.7704mm" height="6.0933mm" version="1.0" style="shape-rendering:geometricPrecision; text-rendering:geometricPrecision; image-rendering:optimizeQuality; fill-rule:evenodd; clip-rule:evenodd"
viewBox="0 0 53 48"
 xmlns:xlink="http://www.w3.org/1999/xlink">
 <defs>
  <style type="text/css">
   <![CDATA[
    .str0 {stroke:#211F2E;stroke-width:1.33746;stroke-linecap:round;stroke-linejoin:round}
    .fil2 {fill:none}
    .fil4 {fill:#211F2E}
    .fil3 {fill:#303AFD}
    .fil1 {fill:#7B80B4}
    .fil0 {fill:white}
   ]]>
  </style>
 </defs>
 <g id="Слой_x0020_1">
  <metadata id="CorelCorpID_0Corel-Layer"/>
  <g id="_1859152190032">
   <g>
    <path class="fil0" d="M18 26c-2,0 -4,-2 -4,-2l0 -4 0 0c1,0 2,1 4,1 1,0 2,-1 3,-1l0 0 0 4c0,0 -2,2 -3,2z"/>
    <path class="fil0" d="M14 7c0,0 5,4 11,3 0,0 0,0 0,0l0 0 0 4c0,0 0,0 0,1 -1,2 -2,4 -4,5 -1,0 -2,1 -3,1 -2,0 -3,-1 -4,-1 -2,-1 -3,-3 -3,-5 -1,-1 -1,-1 -1,-1l0 -4c0,0 0,0 0,0 1,0 3,-2 4,-3z"/>
    <path class="fil0" d="M14 24c0,0 2,2 4,2 1,0 3,-2 3,-2l5 2c2,1 4,2 4,4l0 5 -24 0 0 -5c0,-2 1,-3 3,-4l5 -2z"/>
    <path class="fil0" d="M25 14l0 -4 0 0c0,0 1,0 1,0l0 0c1,0 1,1 1,1l0 2c0,1 0,2 -1,2l-1 0 0 0c0,-1 0,-1 0,-1z"/>
    <path class="fil0" d="M10 10l0 4c0,0 0,0 1,1l-1 0 -1 0c-1,0 -1,-1 -1,-2l0 -2c0,0 0,-1 1,-1l1 0 0 0c0,0 0,0 0,0z"/>
    <path class="fil1" d="M10 10c0,0 0,0 0,0 0,0 -1,0 -1,0l0 -3c0,-3 3,-6 7,-6l3 0c4,0 7,3 7,6l0 3c0,0 -1,0 -1,0 0,0 0,0 0,0 -6,1 -11,-3 -11,-3 -1,1 -3,3 -4,3 0,0 0,0 0,0z"/>
   </g>
   <g>
    <path class="fil2 str0" d="M25 10l0 4c0,0 0,0 0,1 -1,2 -2,4 -4,5 -1,0 -2,1 -3,1 -2,0 -3,-1 -4,-1 -2,-1 -3,-3 -3,-5 -1,-1 -1,-1 -1,-1l0 -4"/>
    <path class="fil2 str0" d="M10 10l0 0 -1 0c-1,0 -1,1 -1,1l0 2c0,1 0,2 1,2l1 0"/>
    <path class="fil2 str0" d="M25 10l1 0 0 0c1,0 1,1 1,1l0 2c0,1 0,2 -1,2l-1 0"/>
    <path class="fil3 str0" d="M10 10c0,0 -1,0 -1,0l0 -3c0,-3 3,-6 7,-6l3 0c4,0 7,3 7,6l0 3c0,0 -1,0 -1,0 0,0 0,0 0,0 -6,1 -11,-3 -11,-3 -1,1 -3,3 -4,3 0,0 0,0 0,0 0,0 0,0 0,0z"/>
    <path class="fil2 str0" d="M21 20l0 4c0,0 -2,2 -3,2 -2,0 -4,-2 -4,-2l0 -4"/>
    <path class="fil2 str0" d="M14 24l-5 2c-2,1 -3,2 -3,4l0 5 24 0 0 -5c0,-2 -2,-3 -4,-4l-5 -2"/>
   </g>
   <path class="fil2 str0" d="M18 26l-2 3c0,0 -3,-2 -4,-4"/>
   <path class="fil2 str0" d="M18 26l2 3c0,0 2,-1 3,-4"/>
   <rect class="fil3 str0" x="1" y="35" width="33.9053" height="4.14743"/>
   <rect class="fil3 str0" x="2" y="39" width="30.38" height="8.42906"/>
   <path class="fil0 str0" d="M34 7l0 3 -6 7 6 -1 0 0c0,1 2,3 3,3l13 0c1,0 3,-2 3,-3l0 -9c0,-1 -2,-3 -3,-3l-13 0c-1,0 -3,2 -3,3z"/>
   <circle class="fil4" cx="38" cy="12" r="1"/>
   <circle class="fil4" cx="43" cy="12" r="1"/>
   <circle class="fil4" cx="48" cy="12" r="1"/>
  </g>
 </g>
</svg>
