<?xml version="1.0" encoding="UTF-8"?>
<!DOCTYPE svg PUBLIC "-//W3C//DTD SVG 1.0//EN" "http://www.w3.org/TR/2001/REC-SVG-20010904/DTD/svg10.dtd">
<!-- Creator: CorelDRAW X8 -->
<svg xmlns="http://www.w3.org/2000/svg" xml:space="preserve" width="6.8131mm" height="6.0941mm" version="1.0" style="shape-rendering:geometricPrecision; text-rendering:geometricPrecision; image-rendering:optimizeQuality; fill-rule:evenodd; clip-rule:evenodd"
viewBox="0 0 45 40"
 xmlns:xlink="http://www.w3.org/1999/xlink">
 <defs>
  <style type="text/css">
   <![CDATA[
    .str0 {stroke:#211F2E;stroke-width:1.1214;stroke-linecap:round;stroke-linejoin:round}
    .str1 {stroke:#272D63;stroke-width:1.1214;stroke-linecap:round;stroke-linejoin:round}
    .fil2 {fill:none}
    .fil0 {fill:#303AFD}
    .fil1 {fill:white}
   ]]>
  </style>
 </defs>
 <g id="Слой_x0020_1">
  <metadata id="CorelCorpID_0Corel-Layer"/>
  <g id="_1859204695536">
   <path class="fil0 str0" d="M39 1c0,0 1,1 3,4 2,4 3,6 3,6l-4 2c0,0 0,0 -1,-1 0,0 -1,-1 -3,-4 -1,-2 -2,-4 -2,-5 0,0 0,0 0,-1l4 -1z"/>
   <path class="fil1" d="M22 19l-1 1c-1,0 -1,0 -1,0 0,0 -1,0 -1,-1 0,0 0,-1 0,-1l2 -1 -1 0c0,0 0,0 -1,0 0,0 -1,0 -1,0 0,-1 0,-2 1,-2l2 -2 -1 1c0,0 0,0 0,0 -1,0 -1,0 -1,-1 -1,0 -1,-1 0,-1 2,-1 7,-5 8,-5 2,-1 3,-1 4,-1 1,0 1,0 2,0l3 -2c0,0 1,0 3,3 2,3 2,5 2,5 0,0 -3,1 -4,2 0,0 0,0 0,1 -1,2 -2,4 -3,5 -1,1 -2,3 -3,3 0,0 -1,-1 -1,-1 0,-1 0,-2 1,-3 0,-1 1,-1 1,-1 0,0 -1,-1 -1,0l-8 4c0,0 -1,0 -1,0 0,0 -1,0 -1,-1 0,0 0,-1 1,-2l0 0 0 0z"/>
   <path class="fil2 str0" d="M25 11l-4 2 -2 2c-1,0 -1,1 -1,2 0,0 1,0 1,0 1,0 1,0 1,0l1 0 0 0"/>
   <path class="fil2 str1" d="M26 14l-5 3 -2 1c0,0 0,1 0,1 0,1 1,1 1,1 0,0 0,0 1,0l1 -1 5 -3"/>
   <path class="fil2 str0" d="M22 19l0 1c-1,0 -1,1 -1,1 0,1 1,1 1,1 0,0 1,0 1,0l8 -4c0,-1 1,0 1,0 0,0 -1,0 -1,1 -1,1 -1,2 -1,3 0,0 1,1 1,1 1,0 2,-2 3,-3 1,-1 2,-3 3,-5 0,-1 0,-1 0,-1 1,-1 4,-2 4,-2 0,0 0,-2 -2,-5 -2,-3 -3,-3 -3,-3l-3 2c-1,0 -1,0 -2,0 -1,0 -2,0 -4,1 -1,0 -6,4 -8,5 -1,0 -1,1 0,1 0,1 0,1 1,1 0,0 0,0 0,0l1 -1 0 0"/>
   <path class="fil0 str0" d="M6 1c0,0 -1,1 -3,4 -2,4 -2,6 -2,6l3 2c0,0 0,0 1,0 0,-1 2,-2 3,-5 1,-2 2,-4 2,-5 0,0 0,0 0,-1l-4 -1z"/>
   <path class="fil1" d="M24 16l2 1c1,0 1,1 1,1 0,0 0,0 0,1 -1,0 -2,0 -2,0l-2 -1 1 1c1,0 1,0 1,1 0,0 0,0 0,1 -1,0 -1,0 -2,0l-3 -1 1 0c1,1 1,1 1,1 0,0 0,1 0,1 -1,0 -1,0 -2,0 -2,-1 -7,-3 -9,-4 -1,-1 -2,-3 -2,-3 0,-1 -1,-1 -1,-2l-4 -1c0,0 0,-2 2,-5 2,-3 3,-4 3,-4 0,0 2,2 3,2 1,1 1,1 2,0 2,-1 4,0 5,0 2,0 4,1 4,1 1,0 1,1 0,2 0,0 -1,0 -3,0 -1,0 -1,0 -1,0 0,0 0,1 0,1l8 5c0,0 0,1 0,1 0,0 0,1 0,1 0,0 -1,1 -2,0l-1 0 0 0z"/>
   <path class="fil2 str0" d="M16 18l4 2 3 1c1,0 1,0 2,0 0,-1 0,-1 0,-1 0,-1 0,-1 -1,-1l-1 -1 0 0"/>
   <path class="fil2 str0" d="M18 15l5 3 2 1c0,0 1,0 2,0 0,-1 0,-1 0,-1 0,0 0,-1 -1,-1l-2 -1 -4 -3"/>
   <path class="fil2 str0" d="M24 16l1 0c1,1 2,0 2,0 0,0 0,-1 0,-1 0,0 0,-1 0,-1l-8 -5c0,0 0,-1 0,-1 0,0 0,0 1,0 2,0 3,0 3,0 1,-1 1,-2 0,-2 0,0 -2,-1 -4,-1 -1,0 -3,-1 -5,0 -1,1 -1,1 -2,0 -1,0 -3,-2 -3,-2 0,0 -1,1 -3,4 -2,3 -2,5 -2,5l4 1c0,1 1,1 1,2 0,0 1,2 2,3 2,1 7,3 9,4 1,0 1,0 2,0 0,0 0,-1 0,-1 0,0 0,0 -1,-1l-1 0 0 -1"/>
   <path class="fil0 str0" d="M28 39c0,0 -1,1 -6,1 -4,0 -6,-1 -6,-1l0 -4c0,0 1,0 1,0 1,-1 3,-1 5,-1 3,0 5,0 6,1 0,0 0,0 0,0l0 4z"/>
   <path class="fil1" d="M26 18l0 -2c0,0 0,0 1,0 0,-1 0,-1 0,-1 1,0 1,1 1,1 1,3 1,9 1,10 0,2 -1,3 -2,4 0,0 0,1 0,1l0 4c0,0 -1,1 -5,1 -3,0 -4,-1 -4,-1 0,0 0,-2 0,-4 0,0 0,-1 -1,-1 -2,-1 -3,-3 -3,-4 0,-2 -1,-4 -1,-4 0,-1 1,-1 2,-1 0,0 1,1 1,3 1,0 1,0 1,0 0,1 1,0 1,0l0 -9c0,0 0,-1 1,-1 0,0 0,0 0,0 1,0 2,0 2,1l0 1 0 0 0 -2c0,0 0,-1 0,-1 0,0 1,0 1,0 1,0 1,0 1,1l0 2 1 -1c0,-1 0,-1 0,-1 0,0 0,-1 1,-1 0,0 1,1 1,2l0 3z"/>
   <path class="fil2 str0" d="M26 22l0 -4 0 -3c0,-1 -1,-2 -1,-2 -1,0 -1,1 -1,1 0,0 0,0 0,1l-1 1 0 0"/>
   <path class="fil2 str0" d="M24 22l-1 -6 0 -2c0,-1 0,-1 -1,-1 0,0 -1,0 -1,0 0,0 0,1 0,1l0 2 -1 6"/>
   <path class="fil2 str0" d="M21 16l0 -1c0,-1 -1,-1 -2,-1 0,0 0,0 0,0 -1,0 -1,1 -1,1l0 9c0,0 -1,1 -1,0 0,0 0,0 -1,0 0,-2 -1,-3 -1,-3 -1,0 -2,0 -2,1 0,0 1,2 1,4 0,1 1,3 3,4 1,0 1,1 1,1 0,2 0,4 0,4 0,0 1,1 4,1 4,0 5,-1 5,-1l0 -4c0,0 0,-1 0,-1 1,-1 2,-2 2,-4 0,-1 0,-7 -1,-10 0,0 0,-1 -1,-1 0,0 0,0 0,1 -1,0 -1,0 -1,0l0 2 0 0"/>
  </g>
 </g>
</svg>
