<?xml version="1.0" encoding="UTF-8"?>
<!DOCTYPE svg PUBLIC "-//W3C//DTD SVG 1.0//EN" "http://www.w3.org/TR/2001/REC-SVG-20010904/DTD/svg10.dtd">
<!-- Creator: CorelDRAW X8 -->
<svg xmlns="http://www.w3.org/2000/svg" xml:space="preserve" width="5.9056mm" height="6.0941mm" version="1.0" style="shape-rendering:geometricPrecision; text-rendering:geometricPrecision; image-rendering:optimizeQuality; fill-rule:evenodd; clip-rule:evenodd"
viewBox="0 0 35 36"
 xmlns:xlink="http://www.w3.org/1999/xlink">
 <defs>
  <style type="text/css">
   <![CDATA[
    .str0 {stroke:#211F2E;stroke-width:0.996688;stroke-linecap:round;stroke-linejoin:round}
    .fil2 {fill:none}
    .fil1 {fill:#303AFD}
    .fil0 {fill:white}
   ]]>
  </style>
 </defs>
 <g id="Слой_x0020_1">
  <metadata id="CorelCorpID_0Corel-Layer"/>
  <g id="_1859221733360">
   <g>
    <rect class="fil0 str0" width="29.6038" height="34.8796"/>
    <rect class="fil0 str0" x="3" y="3" width="23.9632" height="29.2892"/>
    <g>
     <path class="fil1 str0" d="M34 29l-2 -1 -2 3 -4 -10 4 -2 4 10z"/>
     <path class="fil1 str0" d="M19 29l3 -1 1 3 5 -10 -4 -2 -5 10z"/>
     <path class="fil1 str0" d="M27 10l1 1c0,0 0,0 1,0l0 0c1,0 1,0 1,1l1 0c0,0 0,1 0,1l1 0c0,0 1,1 0,1l0 1c0,0 0,0 1,1l0 0c0,0 0,1 0,1l0 1c-1,0 -1,0 -1,1l0 0c1,1 0,1 0,1l-1 0c0,0 0,1 0,1l-1 1c0,0 0,0 -1,0l0 0c-1,0 -1,0 -1,0l-1 1c0,0 0,0 -1,0l0 -1c0,0 -1,0 -1,0l-1 0c0,0 -1,0 -1,0l0 -1c0,0 0,-1 -1,-1l0 0c-1,0 -1,0 -1,-1l0 0c0,-1 0,-1 0,-1l0 -1c-1,0 -1,-1 0,-1l0 0c0,-1 0,-1 0,-1l0 -1c0,0 0,-1 1,-1l0 0c1,0 1,-1 1,-1l0 0c0,-1 1,-1 1,-1l1 0c0,0 1,0 1,0l0 -1c1,0 1,0 1,0z"/>
     <circle class="fil1 str0" cx="27" cy="17" r="4"/>
    </g>
    <path class="fil2 str0" d="M7 7l16 0"/>
    <path class="fil2 str0" d="M7 12l13 0"/>
    <path class="fil2 str0" d="M7 17l11 0"/>
    <path class="fil2 str0" d="M7 22l13 0"/>
    <path class="fil2 str0" d="M7 27l11 0"/>
   </g>
  </g>
 </g>
</svg>
