<?xml version="1.0" encoding="UTF-8"?>
<!DOCTYPE svg PUBLIC "-//W3C//DTD SVG 1.0//EN" "http://www.w3.org/TR/2001/REC-SVG-20010904/DTD/svg10.dtd">
<!-- Creator: CorelDRAW X8 -->
<svg xmlns="http://www.w3.org/2000/svg" xml:space="preserve" width="6.0941mm" height="5.823mm" version="1.0" style="shape-rendering:geometricPrecision; text-rendering:geometricPrecision; image-rendering:optimizeQuality; fill-rule:evenodd; clip-rule:evenodd"
viewBox="0 0 76 73"
 xmlns:xlink="http://www.w3.org/1999/xlink">
 <defs>
  <style type="text/css">
   <![CDATA[
    .str0 {stroke:#211F2E;stroke-width:2.11109;stroke-linecap:round;stroke-linejoin:round}
    .fil2 {fill:none}
    .fil3 {fill:#303AFD}
    .fil1 {fill:#7B80B4}
    .fil0 {fill:white}
   ]]>
  </style>
 </defs>
 <g id="Слой_x0020_1">
  <metadata id="CorelCorpID_0Corel-Layer"/>
  <g id="_1859188686928">
   <g>
    <path class="fil0" d="M38 35c-2,0 -4,-2 -4,-2l0 -6 0 0c1,1 3,1 4,1 1,0 3,0 4,-1l0 0 0 6c0,0 -2,2 -4,2z"/>
    <path class="fil0" d="M33 11c0,0 7,5 14,3 0,0 0,0 0,0l0 0 0 5c0,0 0,1 0,1 0,3 -2,6 -5,7 -1,1 -3,1 -4,1 -1,0 -3,0 -4,-1 -3,-1 -5,-4 -5,-7 0,0 0,-1 0,-1l0 -5c0,0 0,0 0,0 0,0 3,-2 4,-3z"/>
    <path class="fil0" d="M34 33c0,0 2,2 4,2 2,0 4,-2 4,-2 0,0 6,2 8,3 2,0 4,3 4,5 0,1 0,3 0,3 0,0 -8,4 -16,4 -8,0 -16,-4 -16,-4 0,0 0,-2 0,-3 0,-2 2,-5 4,-5 2,-1 8,-3 8,-3z"/>
    <path class="fil0" d="M47 19l0 -5 0 0c0,0 2,0 2,0l0 0c1,0 1,1 1,2l0 3c0,1 -1,1 -1,1l-2 0 0 0c0,0 0,-1 0,-1z"/>
    <path class="fil0" d="M29 14l0 5c0,0 0,1 0,1l0 0 -2 0c-1,0 -1,0 -1,-1l0 -3c0,-1 0,-2 1,-2l2 0 0 0c0,0 0,0 0,0z"/>
    <path class="fil1" d="M29 14c0,0 0,0 0,0 -1,0 -2,0 -2,0l0 -4c0,-5 4,-9 9,-9l4 0c5,0 9,5 9,10l0 3c0,0 -2,0 -2,0 0,0 0,0 0,0 -7,2 -14,-4 -14,-4 -1,2 -4,4 -4,4 0,0 0,0 0,0z"/>
   </g>
   <g>
    <path class="fil2 str0" d="M47 14l0 5c0,0 0,1 0,1 0,3 -2,6 -5,7 -1,1 -3,1 -4,1 -1,0 -3,0 -4,-1 -3,-1 -5,-4 -5,-7 0,0 0,-1 0,-1l0 -5"/>
    <path class="fil2 str0" d="M29 14l0 0 -2 0c-1,0 -1,1 -1,2l0 3c0,1 0,1 1,1l2 0"/>
    <path class="fil2 str0" d="M47 14l2 0 0 0c1,0 1,1 1,2l0 3c0,1 -1,1 -1,1l-2 0"/>
    <path class="fil3 str0" d="M29 14c-1,0 -2,0 -2,0l0 -4c0,-5 4,-9 9,-9l4 0c5,0 9,4 9,9l0 5c0,0 -2,-1 -2,-1 0,0 0,0 0,0 -7,2 -14,-3 -14,-3 -1,1 -4,3 -4,3 0,0 0,0 0,0 0,0 0,0 0,0z"/>
    <path class="fil2 str0" d="M42 27l0 6c0,0 -2,2 -4,2 -2,0 -4,-2 -4,-2l0 -6"/>
    <path class="fil2 str0" d="M34 33c0,0 -4,1 -8,3 -2,1 -4,3 -4,5 0,1 0,3 0,3 0,0 6,4 16,4 10,0 16,-4 16,-4 0,0 0,-2 0,-3 0,-2 -2,-4 -4,-5 -4,-2 -8,-3 -8,-3"/>
   </g>
   <path class="fil0" d="M10 39c0,-1 2,-2 3,-1 2,1 4,5 8,9 4,5 4,8 4,10 0,3 0,6 0,6l-12 0c0,0 0,-4 -2,-6 -2,-2 -4,-3 -6,-7 -1,-3 -4,-19 -4,-25 0,-2 4,-2 5,1 1,4 2,10 4,13z"/>
   <path class="fil1" d="M29 63l0 9 -20 0 0 -9 4 0 12 0 4 0z"/>
   <path class="fil2 str0" d="M25 63c0,0 0,-3 0,-6 0,-2 0,-5 -4,-10 -4,-4 -6,-8 -8,-9 -1,-1 -3,0 -3,1 0,1 0,2 0,3 1,3 5,8 5,8"/>
   <path class="fil2 str0" d="M13 63c0,0 0,-4 -2,-6 -2,-2 -4,-3 -6,-7 -1,-3 -4,-19 -4,-25 0,-2 4,-2 5,1 1,4 2,10 4,13 0,0 0,0 0,0"/>
   <path class="fil3 str0" d="M25 63l4 0 0 9 -20 0 0 -9 4 0 12 0z"/>
   <path class="fil0" d="M66 39c2,-3 3,-9 4,-13 1,-3 5,-3 5,-1 0,6 -3,22 -4,25 -2,4 -4,5 -6,7 -2,2 -3,6 -3,6l-11 0c0,0 0,-3 0,-6 0,-2 0,-5 4,-10 4,-4 6,-8 8,-9 1,-1 3,0 3,1z"/>
   <path class="fil1" d="M67 63l0 9 -20 0 0 -9 4 0 11 0 5 0z"/>
   <path class="fil2 str0" d="M51 63c0,0 0,-3 0,-6 0,-2 0,-5 4,-10 4,-4 6,-8 8,-9 1,-1 3,0 3,1 0,1 0,2 0,3 -1,3 -5,8 -5,8"/>
   <path class="fil2 str0" d="M62 63c0,0 1,-4 3,-6 2,-2 4,-3 6,-7 1,-3 4,-19 4,-25 0,-2 -4,-2 -5,1 -1,4 -2,10 -4,13"/>
   <path class="fil3 str0" d="M51 63l-4 0 0 9 20 0 0 -9 -5 0 -11 0z"/>
  </g>
 </g>
</svg>
