<?xml version="1.0" encoding="UTF-8"?>
<!DOCTYPE svg PUBLIC "-//W3C//DTD SVG 1.0//EN" "http://www.w3.org/TR/2001/REC-SVG-20010904/DTD/svg10.dtd">
<!-- Creator: CorelDRAW X8 -->
<svg xmlns="http://www.w3.org/2000/svg" xml:space="preserve" width="6.0939mm" height="4.0359mm" version="1.0" style="shape-rendering:geometricPrecision; text-rendering:geometricPrecision; image-rendering:optimizeQuality; fill-rule:evenodd; clip-rule:evenodd"
viewBox="0 0 209 139"
 xmlns:xlink="http://www.w3.org/1999/xlink">
 <defs>
  <style type="text/css">
   <![CDATA[
    .str0 {stroke:#211F2E;stroke-width:5.81041;stroke-linecap:round;stroke-linejoin:round}
    .fil1 {fill:none}
    .fil2 {fill:#303AFD}
    .fil0 {fill:white}
   ]]>
  </style>
 </defs>
 <g id="Слой_x0020_1">
  <metadata id="CorelCorpID_0Corel-Layer"/>
  <g id="_1859144843104">
   <path class="fil0" d="M121 119l7 4c1,1 2,3 2,4 1,2 1,4 0,5 -2,3 -6,4 -9,3 -13,-6 -46,-21 -54,-27 -8,-6 -13,-15 -15,-20 -1,-3 -3,-5 -5,-7l-22 -12c0,0 1,-6 13,-26 11,-19 16,-23 16,-23 0,0 15,9 21,13 4,2 6,2 11,0 10,-6 22,-6 30,-3 9,3 25,3 25,4 4,5 3,11 -1,14 -4,3 -10,3 -20,2 -3,0 -4,0 -5,0 -2,1 -3,3 -1,4l46 32c2,1 3,3 3,5 1,1 1,3 0,5 -2,3 -7,5 -10,3l-5 -3 -1 0 10 7c2,1 3,3 4,5 0,2 0,4 -1,5 -2,4 -7,5 -11,3l-10 -5 6 4c2,1 3,3 3,4 1,2 0,4 -1,6 -2,3 -6,4 -9,3l-17 -9z"/>
   <path class="fil1 str0" d="M98 107l23 12 17 9c3,1 7,0 9,-3 1,-2 2,-4 1,-6 0,-1 -1,-3 -3,-4l-6 -4 0 -1"/>
   <path class="fil1 str0" d="M109 94l30 17 10 5c4,2 9,1 11,-3 1,-1 1,-3 1,-5 -1,-2 -2,-4 -4,-5l-10 -7 -29 -19"/>
   <path class="fil1 str0" d="M147 96l6 3c3,2 8,0 10,-3 1,-2 1,-4 0,-5 0,-2 -1,-4 -3,-5l-46 -32c-2,-1 -1,-3 0,-4 2,0 4,-1 6,-1 11,0 16,2 20,-1 3,-3 5,-8 1,-14 0,-1 -17,-2 -26,-4 -8,-2 -19,-3 -29,3 -5,2 -7,2 -11,0 -6,-4 -21,-13 -21,-13 0,0 -5,4 -16,23 -12,20 -13,26 -13,26l22 12c2,2 4,4 5,7 2,5 7,14 15,20 8,6 41,21 54,27 3,1 7,0 9,-3 1,-1 1,-3 0,-4 0,-2 -1,-4 -2,-5l-7 -4 -1 -1"/>
   <path class="fil2 str0" d="M3 64l36 -61 19 11c2,1 3,3 3,5 -2,6 -5,15 -14,30 -9,15 -16,23 -19,26 -2,2 -4,2 -6,1l-19 -12z"/>
   <path class="fil0" d="M184 69l-5 3 -16 9c-3,2 -5,4 -6,7 -2,5 -6,14 -15,20 -8,6 -41,21 -54,27 -3,1 -7,0 -9,-3 0,-1 -1,-3 0,-5 0,-1 1,-3 2,-4l7 -4 -16 9c-4,1 -8,0 -10,-3 -1,-2 -2,-4 -1,-6 0,-1 1,-3 3,-4l6 -4 -10 5c-4,2 -8,1 -11,-3 -1,-1 -1,-3 0,-5 0,-2 1,-4 3,-5l10 -7 0 0 -6 3c-3,2 -7,1 -9,-3 -1,-2 -2,-3 -1,-5 0,-2 1,-4 3,-5l46 -32c2,-1 2,-3 0,-4 0,0 0,0 0,0 0,0 0,0 0,0 0,0 0,0 0,0 2,0 5,0 13,0 2,0 10,-1 12,-1 11,0 16,2 20,-1 5,-3 3,-12 1,-14 0,0 -3,-1 -7,-1 0,0 0,0 0,0 4,-3 11,-7 16,-10 3,-1 5,-3 5,-3 0,0 5,4 16,23 12,20 13,26 13,26z"/>
   <path class="fil1 str0" d="M95 50c2,0 5,0 13,0 3,-1 10,-1 12,-1 11,0 13,2 19,0 5,-3 6,-12 2,-15 0,0 -3,-1 -7,-1"/>
   <path class="fil1 str0" d="M111 107l-23 12 -16 9c-4,1 -8,0 -10,-3 -1,-2 -2,-4 -1,-6 0,-1 1,-3 3,-4l6 -4 1 -1"/>
   <path class="fil1 str0" d="M100 94l-30 17 -10 5c-4,2 -8,1 -11,-3 -1,-1 -1,-3 -1,-5 1,-2 2,-4 4,-5l10 -7 29 -19"/>
   <path class="fil1 str0" d="M89 118l-1 1 -7 4c-1,1 -2,3 -2,4 -1,2 0,4 0,5 2,3 6,4 9,3 13,-6 46,-21 54,-27 9,-6 13,-15 15,-20 1,-3 3,-5 6,-7l16 -9 5 -3c0,0 -1,-6 -13,-26 -11,-19 -16,-23 -16,-23 0,0 -2,2 -5,3 -5,3 -12,7 -16,10 0,0 0,0 0,0"/>
   <path class="fil1 str0" d="M95 50c0,0 0,0 0,0 0,0 0,0 0,0 0,0 0,0 0,0 2,1 2,3 0,4l-46 32c-2,1 -3,3 -3,5 -1,1 0,3 1,5 2,3 6,5 9,3l6 -3"/>
   <path class="fil2 str0" d="M206 64l-36 -61 -19 11c-2,1 -3,3 -3,5 2,6 6,15 14,30 9,15 16,23 19,26 2,2 4,2 6,1l19 -12z"/>
   <path class="fil1 str0" d="M95 50l0 0 0 0c-1,0 0,0 0,0z"/>
  </g>
 </g>
</svg>
