<?xml version="1.0" encoding="UTF-8"?>
<!DOCTYPE svg PUBLIC "-//W3C//DTD SVG 1.0//EN" "http://www.w3.org/TR/2001/REC-SVG-20010904/DTD/svg10.dtd">
<!-- Creator: CorelDRAW X8 -->
<svg xmlns="http://www.w3.org/2000/svg" xml:space="preserve" width="5.4068mm" height="6.0941mm" version="1.0" style="shape-rendering:geometricPrecision; text-rendering:geometricPrecision; image-rendering:optimizeQuality; fill-rule:evenodd; clip-rule:evenodd"
viewBox="0 0 30 34"
 xmlns:xlink="http://www.w3.org/1999/xlink">
 <defs>
  <style type="text/css">
   <![CDATA[
    .str0 {stroke:#211F2E;stroke-width:0.933846;stroke-linecap:round;stroke-linejoin:round}
    .fil2 {fill:#211F2E}
    .fil1 {fill:#303AFD}
    .fil0 {fill:white}
   ]]>
  </style>
 </defs>
 <g id="Слой_x0020_1">
  <metadata id="CorelCorpID_0Corel-Layer"/>
  <g id="_1859154921632">
   <path class="fil0 str0" d="M27 33l-24 0c-1,0 -3,-1 -3,-2l0 -28c0,-1 2,-3 3,-3l24 0c1,0 2,2 2,3l0 28c0,1 -1,2 -2,2z"/>
   <path class="fil1 str0" d="M21 17c0,-4 -3,-7 -6,-7 -3,0 -6,3 -6,7l12 0z"/>
   <circle class="fil1 str0" cx="15" cy="7" r="3"/>
   <rect class="fil1 str0" x="4" y="26" width="22.1571" height="3.93391"/>
   <rect class="fil1 str0" x="4" y="20" width="22.1571" height="3.93391"/>
   <g>
    <circle class="fil2" cx="7" cy="28" r="1"/>
    <circle class="fil2" cx="23" cy="28" r="1"/>
    <circle class="fil2" cx="11" cy="28" r="1"/>
    <circle class="fil2" cx="15" cy="28" r="1"/>
    <circle class="fil2" cx="19" cy="28" r="1"/>
   </g>
  </g>
 </g>
</svg>
