<?xml version="1.0" encoding="UTF-8"?>
<!DOCTYPE svg PUBLIC "-//W3C//DTD SVG 1.0//EN" "http://www.w3.org/TR/2001/REC-SVG-20010904/DTD/svg10.dtd">
<!-- Creator: CorelDRAW X8 -->
<svg xmlns="http://www.w3.org/2000/svg" xml:space="preserve" width="6.1004mm" height="6.1787mm" version="1.0" style="shape-rendering:geometricPrecision; text-rendering:geometricPrecision; image-rendering:optimizeQuality; fill-rule:evenodd; clip-rule:evenodd"
viewBox="0 0 54 55"
 xmlns:xlink="http://www.w3.org/1999/xlink">
 <defs>
  <style type="text/css">
   <![CDATA[
    .str1 {stroke:#FEFEFE;stroke-width:3.01096;stroke-linecap:round;stroke-linejoin:round}
    .str0 {stroke:#211F2E;stroke-width:1.50548;stroke-linecap:round;stroke-linejoin:round}
    .fil2 {fill:none}
    .fil0 {fill:#303AFD}
    .fil1 {fill:white}
   ]]>
  </style>
 </defs>
 <g id="Слой_x0020_1">
  <metadata id="CorelCorpID_0Corel-Layer"/>
  <g id="_1859221402816">
   <circle class="fil0 str0" cx="27" cy="52" r="2"/>
   <path class="fil0 str0" d="M30 52l-6 0c-1,0 -2,-1 -2,-3l0 -3 10 0 0 3c0,2 -1,3 -2,3z"/>
   <path class="fil1 str0" d="M41 27c0,-7 -6,-13 -14,-13 -7,0 -13,6 -13,13 0,4 1,7 4,10 1,1 2,4 2,6l0 0c0,2 2,4 4,4l7 0c2,0 3,-2 3,-4l0 0c0,-2 1,-5 3,-6 2,-3 4,-6 4,-10z"/>
   <path class="fil2 str0" d="M25 47l0 -19c0,-1 -1,-3 -3,-3l0 0c-1,0 -2,2 -2,3l0 0c0,2 1,3 2,3l10 0c1,0 2,-1 2,-3l0 0c0,-1 -1,-3 -2,-3l0 0c-1,0 -3,2 -3,3l0 19"/>
   <g>
    <path class="fil2 str1" d="M27 9l0 -7"/>
    <path class="fil2 str1" d="M45 26l8 0"/>
    <path class="fil2 str1" d="M35 11l4 -7"/>
    <path class="fil2 str1" d="M43 17l6 -4"/>
    <path class="fil2 str1" d="M9 26l-7 0"/>
    <path class="fil2 str1" d="M19 11l-4 -7"/>
    <path class="fil2 str1" d="M12 17l-6 -4"/>
   </g>
  </g>
 </g>
</svg>
