<?xml version="1.0" encoding="UTF-8"?>
<!DOCTYPE svg PUBLIC "-//W3C//DTD SVG 1.0//EN" "http://www.w3.org/TR/2001/REC-SVG-20010904/DTD/svg10.dtd">
<!-- Creator: CorelDRAW X8 -->
<svg xmlns="http://www.w3.org/2000/svg" xml:space="preserve" width="6.0941mm" height="6.0941mm" version="1.0" style="shape-rendering:geometricPrecision; text-rendering:geometricPrecision; image-rendering:optimizeQuality; fill-rule:evenodd; clip-rule:evenodd"
viewBox="0 0 89 89"
 xmlns:xlink="http://www.w3.org/1999/xlink">
 <defs>
  <style type="text/css">
   <![CDATA[
    .str0 {stroke:#211F2E;stroke-width:2.47259;stroke-linecap:round;stroke-linejoin:round}
    .fil3 {fill:none}
    .fil1 {fill:#303AFD}
    .fil2 {fill:#7B80B4}
    .fil0 {fill:white}
   ]]>
  </style>
 </defs>
 <g id="Слой_x0020_1">
  <metadata id="CorelCorpID_0Corel-Layer"/>
  <g id="_1859154930560">
   <circle class="fil0 str0" cx="45" cy="45" r="43"/>
   <g>
    <path class="fil1" d="M61 31l-25 22 -1 15 -5 -18 31 -19z"/>
    <path class="fil1" d="M44 60l-9 8 1 -15 8 7z"/>
    <path class="fil2" d="M71 21c1,-1 2,0 2,1l-11 47c0,2 -2,2 -4,1l-14 -10 -8 -7 25 -22 -31 19 -15 -4c-2,-1 -2,-3 0,-4l56 -21z"/>
   </g>
   <path class="fil1 str0" d="M36 53l25 -22 -31 19 -15 -4c-2,-1 -2,-3 0,-4l56 -21c1,-1 2,0 2,1l-11 47c0,2 -2,2 -4,1l-14 -10 -8 -7z"/>
   <path class="fil3 str0" d="M30 50l5 18 1 -15"/>
   <path class="fil3 str0" d="M44 60l-9 8"/>
  </g>
 </g>
</svg>
