<?xml version="1.0" encoding="UTF-8"?>
<!DOCTYPE svg PUBLIC "-//W3C//DTD SVG 1.0//EN" "http://www.w3.org/TR/2001/REC-SVG-20010904/DTD/svg10.dtd">
<!-- Creator: CorelDRAW X8 -->
<svg xmlns="http://www.w3.org/2000/svg" xml:space="preserve" width="6.0941mm" height="5.632mm" version="1.0" style="shape-rendering:geometricPrecision; text-rendering:geometricPrecision; image-rendering:optimizeQuality; fill-rule:evenodd; clip-rule:evenodd"
viewBox="0 0 55 51"
 xmlns:xlink="http://www.w3.org/1999/xlink">
 <defs>
  <style type="text/css">
   <![CDATA[
    .str0 {stroke:#211F2E;stroke-width:1.53889;stroke-linecap:round;stroke-linejoin:round}
    .str1 {stroke:#272D63;stroke-width:1.53889;stroke-linecap:round;stroke-linejoin:round}
    .fil3 {fill:none}
    .fil0 {fill:#303AFD}
    .fil2 {fill:#7B80B4}
    .fil1 {fill:white}
   ]]>
  </style>
 </defs>
 <g id="Слой_x0020_1">
  <metadata id="CorelCorpID_0Corel-Layer"/>
  <g id="_1859202833856">
   <rect class="fil0 str0" x="1" y="34" width="53.8532" height="3.89047"/>
   <rect class="fil0 str0" x="4" y="38" width="48.2526" height="12.8232"/>
   <g>
    <path class="fil1" d="M13 23c-2,0 -2,-1 -2,-1l0 -3 0 0c0,0 1,0 2,0 0,0 1,0 2,0l0 0 0 3c0,0 -1,1 -2,1z"/>
    <path class="fil1" d="M10 10c0,0 4,3 7,2 0,0 0,0 0,0l0 0 0 3c0,0 0,0 0,0 0,2 -1,3 -2,4 -1,0 -2,0 -2,0 -1,0 -2,0 -2,0 -2,-1 -3,-2 -3,-4 0,0 0,0 0,0l0 -3c0,0 0,0 0,0 0,0 1,-1 2,-2z"/>
    <path class="fil1" d="M11 22c0,0 0,1 2,1 1,0 2,-1 2,-1 0,0 3,1 4,1 1,1 2,2 2,3 0,1 0,8 0,8l-17 0c0,0 0,-7 0,-8 0,-1 1,-2 3,-3 1,0 4,-1 4,-1z"/>
    <path class="fil1" d="M17 15l0 -3 0 0c1,0 1,0 1,0l0 0c1,0 1,1 1,1l0 1c0,1 0,1 -1,1l0 0 -1 0c0,0 0,0 0,0z"/>
    <path class="fil1" d="M8 12l0 3c0,0 0,0 0,0l0 0 -1 0c0,0 -1,0 -1,-1l0 -1c0,0 1,-1 1,-1l1 0 0 0c0,0 0,0 0,0z"/>
    <path class="fil2" d="M8 12c0,0 0,0 0,0 -1,0 -1,0 -1,0l0 -2c0,-3 2,-5 5,-5l2 0c2,0 4,3 4,5l0 2c0,0 0,0 -1,0 0,0 0,0 0,0 -3,1 -7,-2 -7,-2 -1,1 -2,2 -2,2 0,0 0,0 0,0z"/>
   </g>
   <g>
    <path class="fil3 str0" d="M17 12l0 3c0,0 0,0 0,0 0,2 -1,3 -2,4 -1,0 -2,0 -2,0 -1,0 -2,0 -2,0 -2,-1 -3,-2 -3,-4 0,0 0,0 0,0l0 -3"/>
    <path class="fil3 str0" d="M8 12l0 0 -1 0c0,0 -1,1 -1,1l0 1c0,1 1,1 1,1l1 0"/>
    <path class="fil3 str0" d="M18 12l0 0 0 0c1,0 1,1 1,1l0 1c0,1 0,1 -1,1l0 0"/>
    <path class="fil0 str0" d="M8 12c-1,0 -1,0 -1,0l0 -2c0,-3 2,-5 5,-5l2 0c2,0 4,2 4,5l0 2c0,0 0,0 -1,0 0,0 0,0 0,0 -3,1 -7,-2 -7,-2 -1,1 -2,2 -2,2 0,0 0,0 0,0 0,0 0,0 0,0z"/>
    <path class="fil3 str0" d="M15 19l0 3c0,0 -1,1 -2,1 -2,0 -2,-1 -2,-1l0 -3"/>
    <path class="fil3 str0" d="M11 22c0,0 -3,1 -4,1 -2,1 -3,2 -3,3 0,1 0,8 0,8l17 0c0,0 0,-7 0,-8 0,-1 -1,-2 -2,-3 -2,-1 -4,-1 -4,-1"/>
   </g>
   <path class="fil3 str0" d="M7 30l0 4"/>
   <path class="fil3 str1" d="M18 30l0 4"/>
   <g>
    <path class="fil1" d="M43 23c-2,0 -2,-1 -2,-1l0 -3 0 0c0,0 1,0 2,0 0,0 1,0 2,0l0 0 0 3c0,0 -1,1 -2,1z"/>
    <path class="fil1" d="M40 10c0,0 4,3 7,2 0,0 0,0 0,0l0 0 0 3c0,0 0,0 0,0 0,2 -1,3 -2,4 -1,0 -2,0 -2,0 -1,0 -2,0 -2,0 -2,-1 -3,-2 -3,-4 0,0 0,0 0,0l0 -3c0,0 0,0 0,0 0,0 1,-1 2,-2z"/>
    <path class="fil1" d="M41 22c0,0 0,1 2,1 1,0 2,-1 2,-1 0,0 3,1 4,1 1,1 2,2 2,3 0,1 0,8 0,8l-17 0c0,0 0,-7 0,-8 0,-1 1,-2 3,-3 1,0 4,-1 4,-1z"/>
    <path class="fil1" d="M47 15l0 -3 0 0c1,0 1,0 1,0l0 0c1,0 1,1 1,1l0 1c0,1 0,1 -1,1l0 0 -1 0c0,0 0,0 0,0z"/>
    <path class="fil1" d="M38 12l0 3c0,0 0,0 0,0l0 0 -1 0c0,0 -1,0 -1,-1l0 -1c0,0 1,-1 1,-1l1 0 0 0c0,0 0,0 0,0z"/>
    <path class="fil2" d="M38 12c0,0 0,0 0,0 -1,0 -1,0 -1,0l0 -2c0,-3 2,-5 5,-5l2 0c2,0 4,3 4,5l0 2c0,0 0,0 -1,0 0,0 0,0 0,0 -3,1 -7,-2 -7,-2 -1,1 -2,2 -2,2 0,0 0,0 0,0z"/>
   </g>
   <g>
    <path class="fil3 str0" d="M47 12l0 3c0,0 0,0 0,0 0,2 -1,3 -2,4 -1,0 -2,0 -2,0 -1,0 -2,0 -2,0 -2,-1 -3,-2 -3,-4 0,0 0,0 0,0l0 -3"/>
    <path class="fil3 str0" d="M38 12l0 0 -1 0c0,0 -1,1 -1,1l0 1c0,1 1,1 1,1l1 0"/>
    <path class="fil3 str0" d="M48 12l0 0 0 0c1,0 1,1 1,1l0 1c0,1 0,1 -1,1l0 0"/>
    <path class="fil0 str0" d="M38 12c-1,0 -1,0 -1,0l0 -2c0,-3 2,-5 5,-5l2 0c2,0 4,2 4,5l0 2c0,0 0,0 -1,0 0,0 0,0 0,0 -3,1 -7,-2 -7,-2 -1,1 -2,2 -2,2 0,0 0,0 0,0 0,0 0,0 0,0z"/>
    <path class="fil3 str0" d="M45 19l0 3c0,0 -1,1 -2,1 -2,0 -2,-1 -2,-1l0 -3"/>
    <path class="fil3 str0" d="M41 22c0,0 -3,1 -4,1 -2,1 -3,2 -3,3 0,1 0,8 0,8l17 0c0,0 0,-7 0,-8 0,-1 -1,-2 -2,-3 -2,-1 -4,-1 -4,-1"/>
   </g>
   <path class="fil3 str1" d="M37 29l0 4"/>
   <path class="fil3 str0" d="M48 29l0 4"/>
   <g>
    <path class="fil1" d="M28 22c-2,0 -3,-2 -3,-2l0 -3 0 0c1,0 2,1 3,1 1,0 1,-1 2,-1l0 0 0 3c0,0 -1,2 -2,2z"/>
    <path class="fil1" d="M25 7c0,0 4,3 8,2 0,0 0,0 0,0l0 0 0 3c0,0 0,0 0,1 0,2 -1,3 -3,4 -1,0 -1,1 -2,1 -1,0 -2,-1 -3,-1 -1,-1 -3,-2 -3,-4 0,-1 0,-1 0,-1l0 -3c0,0 0,0 0,0 0,0 2,-1 3,-2z"/>
    <path class="fil1" d="M25 20c0,0 1,2 3,2 1,0 2,-2 2,-2 0,0 4,2 5,2 1,1 3,2 3,4 0,1 0,7 0,7l-20 0c0,0 0,-6 0,-7 0,-2 1,-3 2,-4 2,0 5,-2 5,-2z"/>
    <path class="fil1" d="M33 12l0 -3 0 0c1,0 1,0 1,0l0 0c1,0 1,1 1,1l0 2c0,0 0,1 -1,1l-1 0 0 0c0,-1 0,-1 0,-1z"/>
    <path class="fil1" d="M22 9l0 3c0,0 0,0 0,1l0 0 -1 0c-1,0 -1,-1 -1,-1l0 -2c0,0 0,-1 1,-1l1 0 0 0c0,0 0,0 0,0z"/>
    <path class="fil2" d="M22 9c0,0 0,0 0,0 -1,0 -1,0 -1,0l0 -2c0,-3 2,-6 5,-6l3 0c3,0 5,3 5,6l0 2c0,0 0,0 -1,0 0,0 0,0 0,0 -4,1 -8,-2 -8,-2 -1,1 -3,2 -3,2 0,0 0,0 0,0z"/>
   </g>
   <g>
    <path class="fil3 str0" d="M33 9l0 3c0,0 0,0 0,1 0,2 -1,3 -3,4 -1,0 -1,1 -2,1 -1,0 -2,-1 -3,-1 -1,-1 -3,-2 -3,-4 0,-1 0,-1 0,-1l0 -3"/>
    <path class="fil3 str0" d="M22 9l0 0 -1 0c-1,0 -1,1 -1,1l0 2c0,0 0,1 1,1l1 0"/>
    <path class="fil3 str0" d="M33 9l1 0 0 0c1,0 1,1 1,1l0 2c0,0 0,1 -1,1l-1 0"/>
    <path class="fil0 str0" d="M22 9c-1,0 -1,0 -1,0l0 -3c0,-3 2,-5 5,-5l3 0c3,0 5,2 5,5l0 3c0,0 0,0 -1,0 0,0 0,0 0,0 -4,1 -8,-2 -8,-2 -1,1 -3,2 -3,2 0,0 0,0 0,0 0,0 0,0 0,0z"/>
    <path class="fil3 str0" d="M30 17l0 3c0,0 -1,2 -2,2 -2,0 -3,-2 -3,-2l0 -3"/>
    <path class="fil3 str0" d="M25 20c0,0 -2,1 -5,2 -1,1 -2,2 -2,4 0,1 0,8 0,8l20 0c0,0 0,-7 0,-8 0,-2 -2,-3 -3,-4 -2,-1 -5,-2 -5,-2"/>
   </g>
   <path class="fil3 str0" d="M22 29l0 5"/>
   <path class="fil3 str0" d="M34 29l0 5"/>
  </g>
 </g>
</svg>
