<?xml version="1.0" encoding="UTF-8"?>
<!DOCTYPE svg PUBLIC "-//W3C//DTD SVG 1.0//EN" "http://www.w3.org/TR/2001/REC-SVG-20010904/DTD/svg10.dtd">
<!-- Creator: CorelDRAW X8 -->
<svg xmlns="http://www.w3.org/2000/svg" xml:space="preserve" width="6.0467mm" height="6.0941mm" version="1.0" style="shape-rendering:geometricPrecision; text-rendering:geometricPrecision; image-rendering:optimizeQuality; fill-rule:evenodd; clip-rule:evenodd"
viewBox="0 0 60 60"
 xmlns:xlink="http://www.w3.org/1999/xlink">
 <defs>
  <style type="text/css">
   <![CDATA[
    .str1 {stroke:#211F2E;stroke-width:1.67201;stroke-linecap:round;stroke-linejoin:round}
    .str0 {stroke:#FEFEFE;stroke-width:3.34401;stroke-linecap:round;stroke-linejoin:round;stroke-dasharray:6.459892 6.459892}
    .fil0 {fill:none}
    .fil2 {fill:#211F2E}
    .fil3 {fill:#303AFD}
    .fil1 {fill:white}
   ]]>
  </style>
 </defs>
 <g id="Слой_x0020_1">
  <metadata id="CorelCorpID_0Corel-Layer"/>
  <g id="_1859220091824">
   <path class="fil0 str0" d="M18 10l30 0c5,0 9,5 9,10l0 0c0,5 -4,9 -9,9l-36 0c-5,0 -9,4 -9,9l0 1c0,5 4,9 9,9l17 0"/>
   <circle class="fil1 str1" cx="10" cy="10" r="10"/>
   <g>
    <path class="fil2" d="M6 15l2 -2c0,0 1,0 1,0 1,1 1,1 2,1 0,0 0,0 0,-1 1,0 1,0 1,0 0,0 0,-1 -1,-1 0,0 -1,0 -1,0 -1,-1 -1,-1 -2,-1 0,0 0,-1 -1,-1 0,-1 0,-1 0,-2 0,-1 0,-1 0,-2 1,-1 2,-1 3,-1l0 -2 1 0 0 2c1,0 2,0 3,1l-1 2c0,0 -1,0 -1,-1 -1,0 -1,0 -1,0 -1,0 -1,0 -1,0 -1,1 -1,1 -1,1 0,0 1,1 1,1 0,0 1,0 1,0 1,1 1,1 2,1 0,0 1,1 1,1 0,1 0,1 0,2 0,1 0,1 0,2 -1,1 -2,1 -3,1l0 2 -1 0 0 -2c-2,0 -3,-1 -4,-1z"/>
   </g>
   <path class="fil3 str1" d="M30 51l9 -1 7 9 2 0 -3 -9 8 0 3 4 3 0 -3 -5 0 -2 3 -5 -3 0 -3 4 -8 0 3 -9 -2 0 -7 9 -9 -1c-1,0 -2,1 -2,3 0,1 1,3 2,3z"/>
  </g>
 </g>
</svg>
